GeoramaExtraExtended-BlackItalic.ufo
<glyph name="exclam" format="2">
  <advance width="390"/>
  <unicode hex="0021"/>
  <outline>
    <contour>
      <point x="77" y="259" type="line"/>
      <point x="307" y="259" type="line"/>
      <point x="403" y="740" type="line"/>
      <point x="136" y="740" type="line"/>
    </contour>
    <contour>
      <point x="17" y="79" type="curve" smooth="yes"/>
      <point x="17" y="20"/>
      <point x="55" y="-10"/>
      <point x="151" y="-10" type="curve" smooth="yes"/>
      <point x="252" y="-10"/>
      <point x="321" y="26"/>
      <point x="321" y="130" type="curve" smooth="yes"/>
      <point x="321" y="189"/>
      <point x="283" y="219"/>
      <point x="188" y="219" type="curve" smooth="yes"/>
      <point x="82" y="219"/>
      <point x="17" y="178"/>
    </contour>
  </outline>
</glyph>
<glyph name="dollar" format="2">
  <advance width="1050"/>
  <unicode hex="0024"/>
  <outline>
    <contour>
      <point x="961" y="667" type="line"/>
      <point x="892" y="683"/>
      <point x="813" y="702"/>
      <point x="707" y="708" type="curve"/>
      <point x="723" y="805" type="line"/>
      <point x="538" y="805" type="line"/>
      <point x="522" y="707" type="line"/>
      <point x="318" y="698"/>
      <point x="148" y="635"/>
      <point x="148" y="441" type="curve" smooth="yes"/>
      <point x="148" y="174"/>
      <point x="644" y="258"/>
      <point x="644" y="205" type="curve" smooth="yes"/>
      <point x="644" y="189"/>
      <point x="616" y="181"/>
      <point x="534" y="181" type="curve" smooth="yes"/>
      <point x="399" y="181"/>
      <point x="252" y="208"/>
      <point x="138" y="249" type="curve"/>
      <point x="60" y="49" type="line"/>
      <point x="155" y="19"/>
      <point x="277" y="-4"/>
      <point x="407" y="-9" type="curve"/>
      <point x="392" y="-105" type="line"/>
      <point x="576" y="-105" type="line"/>
      <point x="591" y="-4" type="line"/>
      <point x="771" y="18"/>
      <point x="953" y="58"/>
      <point x="953" y="260" type="curve" smooth="yes"/>
      <point x="953" y="521"/>
      <point x="453" y="434"/>
      <point x="453" y="491" type="curve" smooth="yes"/>
      <point x="453" y="509"/>
      <point x="483" y="514"/>
      <point x="549" y="514" type="curve" smooth="yes"/>
      <point x="666" y="514"/>
      <point x="783" y="504"/>
      <point x="886" y="468" type="curve"/>
    </contour>
  </outline>
</glyph>
<glyph name="quotesingle" format="2">
  <advance width="290"/>
  <unicode hex="0027"/>
  <outline>
    <contour>
      <point x="62" y="427" type="line"/>
      <point x="274" y="427" type="line"/>
      <point x="327" y="700" type="line"/>
      <point x="97" y="700" type="line"/>
    </contour>
  </outline>
</glyph>
<glyph name="hyphen" format="2">
  <advance width="450"/>
  <unicode hex="002D"/>
  <outline>
    <contour>
      <point x="40" y="214" type="line"/>
      <point x="389" y="214" type="line"/>
      <point x="423" y="422" type="line"/>
      <point x="74" y="422" type="line"/>
    </contour>
  </outline>
</glyph>
<glyph name="period" format="2">
  <advance width="384"/>
  <unicode hex="002E"/>
  <outline>
    <contour>
      <point x="12" y="79" type="curve" smooth="yes"/>
      <point x="12" y="20"/>
      <point x="50" y="-10"/>
      <point x="146" y="-10" type="curve" smooth="yes"/>
      <point x="247" y="-10"/>
      <point x="316" y="26"/>
      <point x="316" y="130" type="curve" smooth="yes"/>
      <point x="316" y="189"/>
      <point x="278" y="219"/>
      <point x="183" y="219" type="curve" smooth="yes"/>
      <point x="77" y="219"/>
      <point x="12" y="178"/>
    </contour>
  </outline>
</glyph>
<glyph name="zero" format="2">
  <advance width="1050"/>
  <unicode hex="0030"/>
  <outline>
    <contour>
      <point x="526" y="-10" type="curve" smooth="yes"/>
      <point x="782" y="-10"/>
      <point x="995" y="98"/>
      <point x="995" y="372" type="curve" smooth="yes"/>
      <point x="995" y="599"/>
      <point x="820" y="710"/>
      <point x="547" y="710" type="curve" smooth="yes"/>
      <point x="290" y="710"/>
      <point x="78" y="605"/>
      <point x="78" y="330" type="curve" smooth="yes"/>
      <point x="78" y="104"/>
      <point x="253" y="-10"/>
    </contour>
    <contour>
      <point x="531" y="176" type="curve" smooth="yes"/>
      <point x="453" y="176"/>
      <point x="384" y="210"/>
      <point x="384" y="321" type="curve" smooth="yes"/>
      <point x="384" y="436"/>
      <point x="435" y="527"/>
      <point x="542" y="527" type="curve" smooth="yes"/>
      <point x="619" y="527"/>
      <point x="689" y="493"/>
      <point x="689" y="383" type="curve" smooth="yes"/>
      <point x="689" y="267"/>
      <point x="639" y="176"/>
    </contour>
  </outline>
</glyph>
<glyph name="one" format="2">
  <advance width="1050"/>
  <unicode hex="0031"/>
  <outline>
    <contour>
      <point x="168" y="0" type="line"/>
      <point x="885" y="0" type="line"/>
      <point x="918" y="200" type="line"/>
      <point x="712" y="200" type="line"/>
      <point x="794" y="700" type="line"/>
      <point x="651" y="700" type="line"/>
      <point x="208" y="541" type="line"/>
      <point x="248" y="338" type="line"/>
      <point x="450" y="410" type="line"/>
      <point x="419" y="200" type="line"/>
      <point x="201" y="200" type="line"/>
    </contour>
  </outline>
</glyph>
<glyph name="two" format="2">
  <advance width="1050"/>
  <unicode hex="0032"/>
  <outline>
    <contour>
      <point x="85" y="148" type="curve"/>
      <point x="64" y="0" type="line"/>
      <point x="907" y="0" type="line"/>
      <point x="942" y="200" type="line"/>
      <point x="618" y="200" type="line"/>
      <point x="755" y="263"/>
      <point x="892" y="348"/>
      <point x="892" y="497" type="curve" smooth="yes"/>
      <point x="892" y="644"/>
      <point x="735" y="710"/>
      <point x="561" y="710" type="curve" smooth="yes"/>
      <point x="433" y="710"/>
      <point x="261" y="672"/>
      <point x="154" y="620" type="curve"/>
      <point x="192" y="417" type="line"/>
      <point x="295" y="455"/>
      <point x="393" y="484"/>
      <point x="471" y="484" type="curve" smooth="yes"/>
      <point x="546" y="484"/>
      <point x="576" y="457"/>
      <point x="576" y="414" type="curve" smooth="yes"/>
      <point x="576" y="312"/>
      <point x="394" y="236"/>
    </contour>
  </outline>
</glyph>
<glyph name="six" format="2">
  <advance width="1050"/>
  <unicode hex="0036"/>
  <note>
14
</note>
  <outline>
    <contour>
      <point x="499" y="-10" type="curve" smooth="yes"/>
      <point x="710" y="-10"/>
      <point x="968" y="14"/>
      <point x="968" y="250" type="curve" smooth="yes"/>
      <point x="968" y="368"/>
      <point x="856" y="444"/>
      <point x="634" y="444" type="curve" smooth="yes"/>
      <point x="532" y="444"/>
      <point x="419" y="432"/>
      <point x="335" y="398" type="curve"/>
      <point x="322" y="243" type="line"/>
      <point x="373" y="258"/>
      <point x="453" y="269"/>
      <point x="531" y="269" type="curve" smooth="yes"/>
      <point x="649" y="269"/>
      <point x="674" y="257"/>
      <point x="674" y="233" type="curve" smooth="yes"/>
      <point x="674" y="203"/>
      <point x="635" y="187"/>
      <point x="543" y="187" type="curve" smooth="yes"/>
      <point x="431" y="187"/>
      <point x="344" y="216"/>
      <point x="344" y="309" type="curve" smooth="yes"/>
      <point x="344" y="387"/>
      <point x="385" y="441"/>
      <point x="452" y="473" type="curve" smooth="yes"/>
      <point x="505" y="498"/>
      <point x="584" y="510"/>
      <point x="662" y="510" type="curve" smooth="yes"/>
      <point x="769" y="510"/>
      <point x="841" y="500"/>
      <point x="927" y="481" type="curve"/>
      <point x="997" y="669" type="line"/>
      <point x="931" y="691"/>
      <point x="811" y="710"/>
      <point x="666" y="710" type="curve" smooth="yes"/>
      <point x="333" y="710"/>
      <point x="71" y="571"/>
      <point x="71" y="292" type="curve" smooth="yes"/>
      <point x="71" y="72"/>
      <point x="241" y="-10"/>
    </contour>
  </outline>
</glyph>
<glyph name="less" format="2">
  <advance width="742"/>
  <unicode hex="003C"/>
  <outline>
    <contour>
      <point x="639" y="21" type="line"/>
      <point x="673" y="234" type="line"/>
      <point x="298" y="318" type="line"/>
      <point x="702" y="401" type="line"/>
      <point x="736" y="616" type="line"/>
      <point x="85" y="434" type="line"/>
      <point x="50" y="214" type="line"/>
    </contour>
  </outline>
</glyph>
<glyph name="at" format="2">
  <advance width="1019"/>
  <unicode hex="0040"/>
  <outline>
    <contour>
      <point x="420" y="-122" type="curve" smooth="yes"/>
      <point x="494" y="-122"/>
      <point x="559" y="-113"/>
      <point x="637" y="-91" type="curve"/>
      <point x="626" y="7" type="line"/>
      <point x="552" y="-10"/>
      <point x="486" y="-17"/>
      <point x="431" y="-17" type="curve" smooth="yes"/>
      <point x="246" y="-17"/>
      <point x="141" y="75"/>
      <point x="141" y="224" type="curve" smooth="yes"/>
      <point x="141" y="441"/>
      <point x="327" y="607"/>
      <point x="567" y="607" type="curve" smooth="yes"/>
      <point x="778" y="607"/>
      <point x="887" y="522"/>
      <point x="887" y="353" type="curve" smooth="yes"/>
      <point x="887" y="244"/>
      <point x="858" y="171"/>
      <point x="777" y="171" type="curve" smooth="yes"/>
      <point x="746" y="171"/>
      <point x="732" y="194"/>
      <point x="742" y="240" type="curve" smooth="yes"/>
      <point x="794" y="472" type="line"/>
      <point x="728" y="497"/>
      <point x="630" y="515"/>
      <point x="564" y="515" type="curve" smooth="yes"/>
      <point x="371" y="515"/>
      <point x="236" y="393"/>
      <point x="236" y="238" type="curve" smooth="yes"/>
      <point x="236" y="126"/>
      <point x="299" y="71"/>
      <point x="403" y="71" type="curve" smooth="yes"/>
      <point x="481" y="71"/>
      <point x="550" y="110"/>
      <point x="588" y="160" type="curve"/>
      <point x="603" y="92"/>
      <point x="666" y="60"/>
      <point x="739" y="60" type="curve" smooth="yes"/>
      <point x="919" y="60"/>
      <point x="1004" y="184"/>
      <point x="1004" y="360" type="curve" smooth="yes"/>
      <point x="1004" y="578"/>
      <point x="849" y="710"/>
      <point x="592" y="710" type="curve" smooth="yes"/>
      <point x="261" y="710"/>
      <point x="21" y="502"/>
      <point x="21" y="216" type="curve" smooth="yes"/>
      <point x="21" y="10"/>
      <point x="177" y="-122"/>
    </contour>
    <contour>
      <point x="488" y="203" type="curve" smooth="yes"/>
      <point x="443" y="203"/>
      <point x="421" y="227"/>
      <point x="421" y="270" type="curve" smooth="yes"/>
      <point x="421" y="338"/>
      <point x="468" y="387"/>
      <point x="533" y="387" type="curve" smooth="yes"/>
      <point x="567" y="387"/>
      <point x="584" y="384"/>
      <point x="607" y="375" type="curve"/>
      <point x="580" y="264" type="line"/>
      <point x="565" y="228"/>
      <point x="526" y="203"/>
    </contour>
  </outline>
</glyph>
<glyph name="A" format="2">
  <advance width="1044"/>
  <unicode hex="0041"/>
  <anchor x="478.444" y="0" name="bottom"/>
  <anchor x="998" y="0" name="ogonek"/>
  <anchor x="596" y="700" name="top"/>
  <outline>
    <contour>
      <point x="-42" y="0" type="line"/>
      <point x="294" y="0" type="line"/>
      <point x="345" y="101" type="line"/>
      <point x="643" y="101" type="line"/>
      <point x="666" y="0" type="line"/>
      <point x="998" y="0" type="line"/>
      <point x="747" y="710" type="line"/>
      <point x="438" y="710" type="line"/>
    </contour>
    <contour>
      <point x="455" y="291" type="line"/>
      <point x="558" y="474" type="line"/>
      <point x="599" y="291" type="line"/>
    </contour>
  </outline>
</glyph>
<glyph name="B" format="2">
  <advance width="1009"/>
  <unicode hex="0042"/>
  <outline>
    <contour>
      <point x="29" y="5" type="line"/>
      <point x="202" y="-4"/>
      <point x="348" y="-10"/>
      <point x="493" y="-10" type="curve" smooth="yes"/>
      <point x="703" y="-10"/>
      <point x="992" y="-9"/>
      <point x="992" y="238" type="curve" smooth="yes"/>
      <point x="992" y="316"/>
      <point x="936" y="378"/>
      <point x="810" y="392" type="curve"/>
      <point x="913" y="423"/>
      <point x="988" y="469"/>
      <point x="988" y="579" type="curve" smooth="yes"/>
      <point x="988" y="675"/>
      <point x="885" y="710"/>
      <point x="586" y="710" type="curve" smooth="yes"/>
      <point x="482" y="710"/>
      <point x="343" y="706"/>
      <point x="143" y="695" type="curve"/>
    </contour>
    <contour>
      <point x="400" y="434" type="line"/>
      <point x="410" y="499" type="line"/>
      <point x="475" y="502"/>
      <point x="482" y="503"/>
      <point x="536" y="503" type="curve" smooth="yes"/>
      <point x="654" y="503"/>
      <point x="678" y="496"/>
      <point x="678" y="473" type="curve" smooth="yes"/>
      <point x="678" y="436"/>
      <point x="623" y="434"/>
      <point x="598" y="434" type="curve" smooth="yes"/>
    </contour>
    <contour>
      <point x="370" y="260" type="line"/>
      <point x="563" y="260" type="line" smooth="yes"/>
      <point x="657" y="260"/>
      <point x="675" y="251"/>
      <point x="675" y="232" type="curve" smooth="yes"/>
      <point x="675" y="189"/>
      <point x="625" y="188"/>
      <point x="471" y="188" type="curve" smooth="yes"/>
      <point x="449" y="188"/>
      <point x="391" y="190"/>
      <point x="359" y="192" type="curve"/>
    </contour>
  </outline>
</glyph>
<glyph name="E" format="2">
  <advance width="971"/>
  <unicode hex="0045"/>
  <anchor x="457" y="0" name="bottom"/>
  <anchor x="886" y="0" name="ogonek"/>
  <anchor x="551" y="700" name="top"/>
  <anchor x="87.313" y="700" name="topleft"/>
  <outline>
    <contour>
      <point x="28" y="0" type="line"/>
      <point x="886" y="0" type="line"/>
      <point x="920" y="205" type="line"/>
      <point x="355" y="205" type="line"/>
      <point x="364" y="261" type="line"/>
      <point x="872" y="261" type="line"/>
      <point x="902" y="441" type="line"/>
      <point x="394" y="441" type="line"/>
      <point x="403" y="495" type="line"/>
      <point x="940" y="495" type="line"/>
      <point x="974" y="700" type="line"/>
      <point x="143" y="700" type="line"/>
    </contour>
  </outline>
</glyph>
<glyph name="F" format="2">
  <advance width="920"/>
  <unicode hex="0046"/>
  <outline>
    <contour>
      <point x="28" y="0" type="line"/>
      <point x="328" y="0" type="line"/>
      <point x="356" y="176" type="line"/>
      <point x="810" y="176" type="line"/>
      <point x="845" y="386" type="line"/>
      <point x="391" y="386" type="line"/>
      <point x="406" y="480" type="line"/>
      <point x="928" y="480" type="line"/>
      <point x="965" y="700" type="line"/>
      <point x="143" y="700" type="line"/>
    </contour>
  </outline>
</glyph>
<glyph name="G" format="2">
  <advance width="1026"/>
  <unicode hex="0047"/>
  <anchor x="513" y="0" name="bottom"/>
  <anchor x="619" y="700" name="top"/>
  <outline>
    <contour>
      <point x="508" y="-10" type="curve" smooth="yes"/>
      <point x="714" y="-10"/>
      <point x="844" y="25"/>
      <point x="935" y="58" type="curve"/>
      <point x="997" y="428" type="line"/>
      <point x="584" y="428" type="line"/>
      <point x="554" y="244" type="line"/>
      <point x="705" y="244" type="line"/>
      <point x="699" y="206" type="line"/>
      <point x="672" y="196"/>
      <point x="631" y="187"/>
      <point x="572" y="187" type="curve" smooth="yes"/>
      <point x="423" y="187"/>
      <point x="355" y="230"/>
      <point x="355" y="324" type="curve" smooth="yes"/>
      <point x="355" y="448"/>
      <point x="449" y="496"/>
      <point x="625" y="496" type="curve" smooth="yes"/>
      <point x="737" y="496"/>
      <point x="826" y="483"/>
      <point x="916" y="465" type="curve"/>
      <point x="1003" y="669" type="line"/>
      <point x="875" y="700"/>
      <point x="758" y="710"/>
      <point x="610" y="710" type="curve" smooth="yes"/>
      <point x="244" y="710"/>
      <point x="49" y="575"/>
      <point x="49" y="300" type="curve" smooth="yes"/>
      <point x="49" y="99"/>
      <point x="211" y="-10"/>
    </contour>
  </outline>
</glyph>
<glyph name="I" format="2">
  <advance width="448"/>
  <unicode hex="0049"/>
  <anchor x="180" y="0" name="bottom"/>
  <anchor x="328" y="0" name="ogonek"/>
  <anchor x="291" y="700" name="top"/>
  <anchor x="87" y="700" name="topleft"/>
  <outline>
    <contour>
      <point x="28" y="0" type="line"/>
      <point x="328" y="0" type="line"/>
      <point x="443" y="700" type="line"/>
      <point x="143" y="700" type="line"/>
    </contour>
  </outline>
</glyph>
<glyph name="J" format="2">
  <advance width="863"/>
  <unicode hex="004A"/>
  <anchor x="384" y="0" name="bottom"/>
  <anchor x="505" y="700" name="top"/>
  <outline>
    <contour>
      <point x="-18" y="38" type="line"/>
      <point x="119" y="3"/>
      <point x="258" y="-10"/>
      <point x="374" y="-10" type="curve" smooth="yes"/>
      <point x="647" y="-10"/>
      <point x="762" y="89"/>
      <point x="799" y="306" type="curve" smooth="yes"/>
      <point x="866" y="700" type="line"/>
      <point x="156" y="700" type="line"/>
      <point x="117" y="467" type="line"/>
      <point x="527" y="467" type="line"/>
      <point x="507" y="339" type="line" smooth="yes"/>
      <point x="493" y="249"/>
      <point x="445" y="214"/>
      <point x="346" y="214" type="curve" smooth="yes"/>
      <point x="277" y="214"/>
      <point x="187" y="230"/>
      <point x="60" y="259" type="curve"/>
    </contour>
  </outline>
</glyph>
<glyph name="K" format="2">
  <advance width="1013"/>
  <unicode hex="004B"/>
  <anchor x="483" y="0" name="bottom"/>
  <anchor x="584" y="700" name="top"/>
  <outline>
    <contour>
      <point x="28" y="0" type="line"/>
      <point x="328" y="0" type="line"/>
      <point x="443" y="700" type="line"/>
      <point x="145" y="700" type="line"/>
    </contour>
    <contour>
      <point x="875" y="-10" type="curve" smooth="yes"/>
      <point x="886" y="-10"/>
      <point x="926" y="-8"/>
      <point x="937" y="-5" type="curve"/>
      <point x="974" y="229" type="line"/>
      <point x="962" y="228"/>
      <point x="951" y="228"/>
      <point x="941" y="228" type="curve" smooth="yes"/>
      <point x="884" y="228"/>
      <point x="831" y="240"/>
      <point x="749" y="279" type="curve" smooth="yes"/>
      <point x="355" y="466" type="line"/>
      <point x="322" y="233" type="line"/>
      <point x="615" y="62" type="line" smooth="yes"/>
      <point x="703" y="11"/>
      <point x="807" y="-10"/>
    </contour>
    <contour>
      <point x="585" y="312" type="line"/>
      <point x="780" y="363"/>
      <point x="923" y="455"/>
      <point x="1021" y="552" type="curve"/>
      <point x="836" y="719" type="line"/>
      <point x="696" y="582"/>
      <point x="536" y="478"/>
      <point x="390" y="410" type="curve"/>
    </contour>
  </outline>
</glyph>
<glyph name="O" format="2">
  <advance width="1080"/>
  <unicode hex="004F"/>
  <note>
8
</note>
  <anchor x="496" y="0" name="bottom"/>
  <anchor x="552" y="350" name="center"/>
  <anchor x="634" y="-1" name="ogonek"/>
  <anchor x="599" y="700" name="top"/>
  <anchor x="82" y="700" name="topleft"/>
  <anchor x="912" y="687" name="topright"/>
  <outline>
    <contour>
      <point x="528" y="-10" type="curve" smooth="yes"/>
      <point x="864" y="-10"/>
      <point x="1055" y="133"/>
      <point x="1055" y="400" type="curve" smooth="yes"/>
      <point x="1055" y="606"/>
      <point x="906" y="710"/>
      <point x="575" y="710" type="curve" smooth="yes"/>
      <point x="239" y="710"/>
      <point x="48" y="567"/>
      <point x="48" y="300" type="curve" smooth="yes"/>
      <point x="48" y="94"/>
      <point x="197" y="-10"/>
    </contour>
    <contour>
      <point x="542" y="186" type="curve" smooth="yes"/>
      <point x="408" y="186"/>
      <point x="352" y="229"/>
      <point x="352" y="325" type="curve" smooth="yes"/>
      <point x="352" y="440"/>
      <point x="432" y="514"/>
      <point x="561" y="514" type="curve" smooth="yes"/>
      <point x="695" y="514"/>
      <point x="751" y="471"/>
      <point x="751" y="375" type="curve" smooth="yes"/>
      <point x="751" y="260"/>
      <point x="671" y="186"/>
    </contour>
  </outline>
</glyph>
<glyph name="Q" format="2">
  <advance width="1080"/>
  <unicode hex="0051"/>
  <note>
14
</note>
  <outline>
    <contour>
      <point x="789" y="-212" type="curve" smooth="yes"/>
      <point x="834" y="-212"/>
      <point x="882" y="-205"/>
      <point x="936" y="-190" type="curve"/>
      <point x="936" y="17" type="line"/>
      <point x="922" y="12"/>
      <point x="905" y="10"/>
      <point x="885" y="10" type="curve" smooth="yes"/>
      <point x="852" y="10"/>
      <point x="805" y="22"/>
      <point x="781" y="50" type="curve"/>
      <point x="505" y="8" type="line"/>
      <point x="557" y="-140"/>
      <point x="652" y="-212"/>
    </contour>
    <component base="O"/>
  </outline>
</glyph>
<glyph name="R" format="2">
  <advance width="1088"/>
  <unicode hex="0052"/>
  <anchor x="530" y="0" name="bottom"/>
  <anchor x="581" y="700" name="top"/>
  <outline>
    <contour>
      <point x="28" y="0" type="line"/>
      <point x="328" y="0" type="line"/>
      <point x="361" y="205" type="line"/>
      <point x="445" y="204"/>
      <point x="528" y="203"/>
      <point x="612" y="202" type="curve"/>
      <point x="725" y="264" type="line"/>
      <point x="928" y="264"/>
      <point x="1058" y="344"/>
      <point x="1058" y="498" type="curve" smooth="yes"/>
      <point x="1058" y="640"/>
      <point x="928" y="710"/>
      <point x="603" y="710" type="curve" smooth="yes"/>
      <point x="546" y="710"/>
      <point x="381" y="707"/>
      <point x="143" y="700" type="curve"/>
    </contour>
    <contour>
      <point x="941" y="-10" type="curve" smooth="yes"/>
      <point x="952" y="-10"/>
      <point x="988" y="-9"/>
      <point x="997" y="-8" type="curve"/>
      <point x="1035" y="224" type="line"/>
      <point x="1028" y="223"/>
      <point x="1011" y="223"/>
      <point x="1002" y="223" type="curve" smooth="yes"/>
      <point x="936" y="223"/>
      <point x="833" y="257"/>
      <point x="755" y="289" type="curve"/>
      <point x="428" y="220" type="line"/>
      <point x="621" y="112"/>
      <point x="754" y="-10"/>
    </contour>
    <contour>
      <point x="575" y="381" type="curve" smooth="yes"/>
      <point x="509" y="381"/>
      <point x="450" y="384"/>
      <point x="392" y="388" type="curve"/>
      <point x="411" y="513" type="line"/>
      <point x="511" y="517"/>
      <point x="521" y="517"/>
      <point x="591" y="517" type="curve" smooth="yes"/>
      <point x="707" y="517"/>
      <point x="741" y="494"/>
      <point x="741" y="457" type="curve" smooth="yes"/>
      <point x="741" y="405"/>
      <point x="684" y="381"/>
    </contour>
  </outline>
</glyph>
<glyph name="Y" format="2">
  <advance width="929"/>
  <unicode hex="0059"/>
  <anchor x="417" y="0" name="bottom"/>
  <anchor x="537" y="700" name="top"/>
  <anchor x="76" y="700" name="topleft"/>
  <outline>
    <contour>
      <point x="285" y="0" type="line"/>
      <point x="581" y="0" type="line"/>
      <point x="619" y="226" type="line"/>
      <point x="909" y="527"/>
      <point x="969" y="596"/>
      <point x="991" y="671" type="curve" smooth="yes"/>
      <point x="994" y="680"/>
      <point x="996" y="690"/>
      <point x="998" y="700" type="curve"/>
      <point x="675" y="700" type="line"/>
      <point x="674" y="690"/>
      <point x="672" y="682"/>
      <point x="670" y="674" type="curve" smooth="yes"/>
      <point x="643" y="572"/>
      <point x="612" y="537"/>
      <point x="501" y="396" type="curve"/>
      <point x="386" y="700" type="line"/>
      <point x="58" y="700" type="line"/>
      <point x="321" y="226" type="line"/>
    </contour>
  </outline>
</glyph>
<glyph name="Z" format="2">
  <advance width="973"/>
  <unicode hex="005A"/>
  <anchor x="443" y="0" name="bottom"/>
  <anchor x="499" y="350" name="center"/>
  <anchor x="544" y="700" name="top"/>
  <outline>
    <contour>
      <point x="-9" y="0" type="line"/>
      <point x="891" y="0" type="line"/>
      <point x="924" y="202" type="line"/>
      <point x="465" y="202" type="line"/>
      <point x="939" y="517" type="line"/>
      <point x="969" y="700" type="line"/>
      <point x="155" y="700" type="line"/>
      <point x="122" y="498" type="line"/>
      <point x="518" y="498" type="line"/>
      <point x="21" y="182" type="line"/>
    </contour>
  </outline>
</glyph>
<glyph name="bracketright" format="2">
  <advance width="500"/>
  <unicode hex="005D"/>
  <outline>
    <contour>
      <point x="-15" y="-52" type="line"/>
      <point x="-39" y="-210" type="line"/>
      <point x="342" y="-210" type="line"/>
      <point x="493" y="740" type="line"/>
      <point x="111" y="740" type="line"/>
      <point x="86" y="582" type="line"/>
      <point x="261" y="582" type="line"/>
      <point x="160" y="-52" type="line"/>
    </contour>
  </outline>
</glyph>
<glyph name="underscore" format="2">
  <advance width="958"/>
  <unicode hex="005F"/>
  <outline>
    <contour>
      <point x="-57" y="-210" type="line"/>
      <point x="861" y="-210" type="line"/>
      <point x="888" y="-42" type="line"/>
      <point x="-30" y="-42" type="line"/>
    </contour>
  </outline>
</glyph>
<glyph name="a" format="2">
  <advance width="897"/>
  <unicode hex="0061"/>
  <note>
15
</note>
  <anchor x="405.444" y="0" name="bottom"/>
  <anchor x="855" y="4" name="ogonek"/>
  <anchor x="485" y="550" name="top"/>
  <outline>
    <contour>
      <point x="726" y="-10" type="curve" smooth="yes"/>
      <point x="770" y="-10"/>
      <point x="825" y="-3"/>
      <point x="855" y="4" type="curve"/>
      <point x="855" y="191" type="line"/>
      <point x="849" y="190"/>
      <point x="839" y="189"/>
      <point x="834" y="189" type="curve" smooth="yes"/>
      <point x="819" y="189"/>
      <point x="815" y="197"/>
      <point x="815" y="208" type="curve" smooth="yes"/>
      <point x="815" y="220"/>
      <point x="824" y="276"/>
      <point x="863" y="517" type="curve"/>
      <point x="788" y="539"/>
      <point x="606" y="560"/>
      <point x="453" y="560" type="curve" smooth="yes"/>
      <point x="187" y="560"/>
      <point x="27" y="466"/>
      <point x="27" y="226" type="curve" smooth="yes"/>
      <point x="27" y="57"/>
      <point x="145" y="-10"/>
      <point x="292" y="-10" type="curve" smooth="yes"/>
      <point x="385" y="-10"/>
      <point x="469" y="19"/>
      <point x="537" y="60" type="curve"/>
      <point x="575" y="20"/>
      <point x="659" y="-10"/>
    </contour>
    <contour>
      <point x="530" y="214" type="line"/>
      <point x="493" y="200"/>
      <point x="444" y="186"/>
      <point x="402" y="186" type="curve" smooth="yes"/>
      <point x="353" y="186"/>
      <point x="311" y="213"/>
      <point x="311" y="268" type="curve" smooth="yes"/>
      <point x="311" y="340"/>
      <point x="369" y="377"/>
      <point x="458" y="377" type="curve" smooth="yes"/>
      <point x="491" y="377"/>
      <point x="525" y="374"/>
      <point x="554" y="365" type="curve"/>
    </contour>
  </outline>
</glyph>
<glyph name="b" format="2">
  <advance width="881"/>
  <unicode hex="0062"/>
  <note>
12
</note>
  <outline>
    <contour>
      <point x="417" y="740" type="line"/>
      <point x="132" y="740" type="line"/>
      <point x="18" y="23" type="line"/>
      <point x="113" y="9"/>
      <point x="254" y="-10"/>
      <point x="400" y="-10" type="curve" smooth="yes"/>
      <point x="661" y="-10"/>
      <point x="856" y="70"/>
      <point x="856" y="336" type="curve" smooth="yes"/>
      <point x="856" y="465"/>
      <point x="785" y="560"/>
      <point x="632" y="560" type="curve" smooth="yes"/>
      <point x="545" y="560"/>
      <point x="466" y="538"/>
      <point x="375" y="489" type="curve"/>
    </contour>
    <contour>
      <point x="488" y="355" type="curve" smooth="yes"/>
      <point x="535" y="355"/>
      <point x="570" y="335"/>
      <point x="570" y="280" type="curve" smooth="yes"/>
      <point x="570" y="204"/>
      <point x="503" y="164"/>
      <point x="433" y="164" type="curve" smooth="yes"/>
      <point x="395" y="164"/>
      <point x="358" y="170"/>
      <point x="327" y="179" type="curve"/>
      <point x="350" y="327" type="line"/>
      <point x="391" y="340"/>
      <point x="443" y="355"/>
    </contour>
  </outline>
</glyph>
<glyph name="c" format="2">
  <advance width="785"/>
  <unicode hex="0063"/>
  <note>
10
</note>
  <anchor x="422" y="0" name="bottom"/>
  <anchor x="482" y="550" name="top"/>
  <outline>
    <contour>
      <point x="378" y="-10" type="curve" smooth="yes"/>
      <point x="480" y="-10"/>
      <point x="610" y="-5"/>
      <point x="718" y="26" type="curve"/>
      <point x="716" y="204" type="line"/>
      <point x="605" y="186"/>
      <point x="539" y="182"/>
      <point x="462" y="182" type="curve" smooth="yes"/>
      <point x="367" y="182"/>
      <point x="319" y="213"/>
      <point x="319" y="269" type="curve" smooth="yes"/>
      <point x="319" y="332"/>
      <point x="361" y="375"/>
      <point x="472" y="375" type="curve" smooth="yes"/>
      <point x="535" y="375"/>
      <point x="617" y="369"/>
      <point x="723" y="350" type="curve"/>
      <point x="785" y="530" type="line"/>
      <point x="704" y="549"/>
      <point x="582" y="560"/>
      <point x="480" y="560" type="curve" smooth="yes"/>
      <point x="170" y="560"/>
      <point x="28" y="448"/>
      <point x="28" y="240" type="curve" smooth="yes"/>
      <point x="28" y="78"/>
      <point x="127" y="-10"/>
    </contour>
  </outline>
</glyph>
<glyph name="e" format="2">
  <advance width="822"/>
  <unicode hex="0065"/>
  <note>
14 points
</note>
  <anchor x="367" y="0" name="bottom"/>
  <anchor x="700" y="14" name="ogonek"/>
  <anchor x="458" y="550" name="top"/>
  <outline>
    <contour>
      <point x="273" y="322" type="curve"/>
      <point x="291" y="212" type="line"/>
      <point x="333" y="204"/>
      <point x="385" y="198"/>
      <point x="464" y="199" type="curve" smooth="yes"/>
      <point x="685" y="203"/>
      <point x="802" y="270"/>
      <point x="802" y="379" type="curve" smooth="yes"/>
      <point x="802" y="494"/>
      <point x="674" y="560"/>
      <point x="475" y="560" type="curve" smooth="yes"/>
      <point x="172" y="560"/>
      <point x="29" y="447"/>
      <point x="29" y="250" type="curve" smooth="yes"/>
      <point x="29" y="81"/>
      <point x="172" y="-10"/>
      <point x="414" y="-10" type="curve" smooth="yes"/>
      <point x="529" y="-10"/>
      <point x="637" y="1"/>
      <point x="740" y="21" type="curve"/>
      <point x="720" y="200" type="line"/>
      <point x="616" y="177"/>
      <point x="517" y="169"/>
      <point x="478" y="169" type="curve" smooth="yes"/>
      <point x="343" y="169"/>
      <point x="315" y="190"/>
      <point x="315" y="260" type="curve" smooth="yes"/>
      <point x="315" y="335"/>
      <point x="374" y="388"/>
      <point x="451" y="388" type="curve" smooth="yes"/>
      <point x="488" y="388"/>
      <point x="504" y="378"/>
      <point x="504" y="360" type="curve" smooth="yes"/>
      <point x="504" y="335"/>
      <point x="452" y="324"/>
      <point x="359" y="322" type="curve" smooth="yes"/>
      <point x="322" y="321"/>
      <point x="296" y="320"/>
    </contour>
  </outline>
</glyph>
<glyph name="g" format="2">
  <advance width="881"/>
  <unicode hex="0067"/>
  <note>
16
</note>
  <anchor x="356" y="-210" name="bottom"/>
  <anchor x="493" y="550" name="top"/>
  <outline>
    <contour>
      <point x="-8" y="-162" type="line"/>
      <point x="80" y="-193"/>
      <point x="203" y="-220"/>
      <point x="375" y="-220" type="curve" smooth="yes"/>
      <point x="632" y="-220"/>
      <point x="763" y="-103"/>
      <point x="796" y="105" type="curve" smooth="yes"/>
      <point x="861" y="519" type="line"/>
      <point x="797" y="536"/>
      <point x="594" y="560"/>
      <point x="488" y="560" type="curve" smooth="yes"/>
      <point x="129" y="560"/>
      <point x="28" y="416"/>
      <point x="28" y="237" type="curve" smooth="yes"/>
      <point x="28" y="92"/>
      <point x="127" y="31"/>
      <point x="281" y="31" type="curve" smooth="yes"/>
      <point x="332" y="31"/>
      <point x="443" y="52"/>
      <point x="510" y="93" type="curve"/>
      <point x="506" y="73" type="line" smooth="yes"/>
      <point x="491" y="-17"/>
      <point x="440" y="-31"/>
      <point x="335" y="-31" type="curve" smooth="yes"/>
      <point x="235" y="-31"/>
      <point x="142" y="-10"/>
      <point x="52" y="16" type="curve"/>
    </contour>
    <contour>
      <point x="554" y="375" type="curve"/>
      <point x="530" y="224" type="line"/>
      <point x="482" y="210"/>
      <point x="441" y="201"/>
      <point x="406" y="201" type="curve" smooth="yes"/>
      <point x="344" y="201"/>
      <point x="313" y="232"/>
      <point x="313" y="282" type="curve" smooth="yes"/>
      <point x="313" y="339"/>
      <point x="357" y="386"/>
      <point x="454" y="386" type="curve" smooth="yes"/>
      <point x="499" y="386"/>
      <point x="534" y="379"/>
    </contour>
  </outline>
</glyph>
<glyph name="n" format="2">
  <advance width="854"/>
  <unicode hex="006E"/>
  <note>
16
</note>
  <anchor x="396" y="0" name="bottom"/>
  <anchor x="464" y="550" name="top"/>
  <outline>
    <contour>
      <point x="102" y="550" type="line"/>
      <point x="15" y="0" type="line"/>
      <point x="298" y="0" type="line"/>
      <point x="352" y="333" type="line"/>
      <point x="379" y="345"/>
      <point x="428" y="359"/>
      <point x="457" y="359" type="curve" smooth="yes"/>
      <point x="494" y="359"/>
      <point x="513" y="344"/>
      <point x="513" y="311" type="curve" smooth="yes"/>
      <point x="513" y="280"/>
      <point x="488" y="168"/>
      <point x="488" y="130" type="curve" smooth="yes"/>
      <point x="488" y="35"/>
      <point x="573" y="-10"/>
      <point x="681" y="-10" type="curve" smooth="yes"/>
      <point x="729" y="-10"/>
      <point x="787" y="-6"/>
      <point x="822" y="0" type="curve"/>
      <point x="822" y="191" type="line"/>
      <point x="816" y="190"/>
      <point x="806" y="189"/>
      <point x="800" y="189" type="curve" smooth="yes"/>
      <point x="787" y="189"/>
      <point x="782" y="198"/>
      <point x="782" y="209" type="curve" smooth="yes"/>
      <point x="782" y="246"/>
      <point x="808" y="354"/>
      <point x="808" y="396" type="curve" smooth="yes"/>
      <point x="808" y="496"/>
      <point x="725" y="560"/>
      <point x="594" y="560" type="curve" smooth="yes"/>
      <point x="509" y="560"/>
      <point x="420" y="533"/>
      <point x="353" y="486" type="curve"/>
      <point x="363" y="550" type="line"/>
    </contour>
  </outline>
</glyph>
<glyph name="o" format="2">
  <advance width="840"/>
  <unicode hex="006F"/>
  <note>
8
</note>
  <anchor x="376" y="0" name="bottom"/>
  <anchor x="420" y="275" name="center"/>
  <anchor x="521" y="0" name="ogonek"/>
  <anchor x="452" y="550" name="top"/>
  <anchor x="714" y="540" name="topright"/>
  <outline>
    <contour>
      <point x="413" y="-9" type="curve" smooth="yes"/>
      <point x="641" y="-9"/>
      <point x="804" y="69"/>
      <point x="811" y="290" type="curve" smooth="yes"/>
      <point x="816" y="489"/>
      <point x="662" y="561"/>
      <point x="427" y="561" type="curve" smooth="yes"/>
      <point x="199" y="561"/>
      <point x="36" y="483"/>
      <point x="29" y="262" type="curve" smooth="yes"/>
      <point x="24" y="63"/>
      <point x="178" y="-9"/>
    </contour>
    <contour>
      <point x="414" y="160" type="curve" smooth="yes"/>
      <point x="348" y="160"/>
      <point x="314" y="193"/>
      <point x="314" y="259" type="curve" smooth="yes"/>
      <point x="314" y="344"/>
      <point x="353" y="392"/>
      <point x="426" y="392" type="curve" smooth="yes"/>
      <point x="491" y="392"/>
      <point x="526" y="358"/>
      <point x="526" y="292" type="curve" smooth="yes"/>
      <point x="526" y="207"/>
      <point x="487" y="160"/>
    </contour>
  </outline>
</glyph>
<glyph name="s" format="2">
  <advance width="658"/>
  <unicode hex="0073"/>
  <anchor x="329" y="0" name="bottom"/>
  <anchor x="374" y="550" name="top"/>
  <outline>
    <contour>
      <point x="-18" y="29" type="line"/>
      <point x="79" y="5"/>
      <point x="173" y="-10"/>
      <point x="283" y="-10" type="curve" smooth="yes"/>
      <point x="428" y="-10"/>
      <point x="629" y="6"/>
      <point x="629" y="202" type="curve" smooth="yes"/>
      <point x="629" y="392"/>
      <point x="311" y="346"/>
      <point x="311" y="377" type="curve" smooth="yes"/>
      <point x="311" y="389"/>
      <point x="326" y="396"/>
      <point x="358" y="396" type="curve" smooth="yes"/>
      <point x="418" y="396"/>
      <point x="522" y="386"/>
      <point x="583" y="366" type="curve"/>
      <point x="637" y="526" type="line"/>
      <point x="563" y="546"/>
      <point x="494" y="560"/>
      <point x="390" y="560" type="curve" smooth="yes"/>
      <point x="204" y="560"/>
      <point x="42" y="515"/>
      <point x="42" y="347" type="curve" smooth="yes"/>
      <point x="42" y="144"/>
      <point x="353" y="210"/>
      <point x="353" y="163" type="curve" smooth="yes"/>
      <point x="353" y="154"/>
      <point x="332" y="148"/>
      <point x="303" y="148" type="curve" smooth="yes"/>
      <point x="232" y="148"/>
      <point x="105" y="163"/>
      <point x="32" y="185" type="curve"/>
    </contour>
  </outline>
</glyph>
<glyph name="t" format="2">
  <advance width="602"/>
  <unicode hex="0074"/>
  <anchor x="285" y="0" name="bottom"/>
  <anchor x="299" y="275" name="center"/>
  <anchor x="323" y="665" name="top"/>
  <anchor x="516" y="790" name="topright"/>
  <outline>
    <contour>
      <point x="544" y="222" type="line"/>
      <point x="487" y="212"/>
      <point x="456" y="205"/>
      <point x="428" y="205" type="curve" smooth="yes"/>
      <point x="396" y="205"/>
      <point x="380" y="215"/>
      <point x="380" y="240" type="curve" smooth="yes"/>
      <point x="380" y="245"/>
      <point x="380" y="250"/>
      <point x="381" y="256" type="curve" smooth="yes"/>
      <point x="401" y="371" type="line"/>
      <point x="570" y="371" type="line"/>
      <point x="601" y="550" type="line"/>
      <point x="429" y="550" type="line"/>
      <point x="448" y="665" type="line"/>
      <point x="197" y="665" type="line"/>
      <point x="150" y="550" type="line"/>
      <point x="42" y="530" type="line"/>
      <point x="14" y="371" type="line"/>
      <point x="116" y="371" type="line"/>
      <point x="97" y="247" type="line" smooth="yes"/>
      <point x="92" y="217"/>
      <point x="90" y="191"/>
      <point x="90" y="167" type="curve" smooth="yes"/>
      <point x="90" y="32"/>
      <point x="171" y="-10"/>
      <point x="297" y="-10" type="curve" smooth="yes"/>
      <point x="383" y="-10"/>
      <point x="450" y="3"/>
      <point x="537" y="22" type="curve"/>
    </contour>
  </outline>
</glyph>
<glyph name="u" format="2">
  <advance width="858"/>
  <unicode hex="0075"/>
  <note>
15
</note>
  <anchor x="385" y="0" name="bottom"/>
  <anchor x="819" y="26" name="ogonek"/>
  <anchor x="462" y="550" name="top"/>
  <anchor x="830" y="550" name="topright"/>
  <outline>
    <contour>
      <point x="256" y="-10" type="curve" smooth="yes"/>
      <point x="330" y="-10"/>
      <point x="425" y="18"/>
      <point x="502" y="68" type="curve"/>
      <point x="527" y="26"/>
      <point x="584" y="-10"/>
      <point x="658" y="-10" type="curve" smooth="yes"/>
      <point x="714" y="-10"/>
      <point x="774" y="6"/>
      <point x="819" y="37" type="curve"/>
      <point x="817" y="191" type="line"/>
      <point x="804" y="187"/>
      <point x="798" y="187"/>
      <point x="795" y="187" type="curve" smooth="yes"/>
      <point x="785" y="187"/>
      <point x="775" y="193"/>
      <point x="775" y="210" type="curve" smooth="yes"/>
      <point x="775" y="214"/>
      <point x="776" y="222"/>
      <point x="830" y="550" type="curve"/>
      <point x="545" y="550" type="line"/>
      <point x="493" y="214" type="line"/>
      <point x="467" y="202"/>
      <point x="420" y="189"/>
      <point x="389" y="189" type="curve" smooth="yes"/>
      <point x="353" y="189"/>
      <point x="332" y="201"/>
      <point x="332" y="239" type="curve" smooth="yes"/>
      <point x="332" y="267"/>
      <point x="338" y="288"/>
      <point x="384" y="550" type="curve"/>
      <point x="99" y="550" type="line"/>
      <point x="39" y="186"/>
      <point x="38" y="175"/>
      <point x="38" y="153" type="curve" smooth="yes"/>
      <point x="38" y="50"/>
      <point x="115" y="-10"/>
    </contour>
  </outline>
</glyph>
<glyph name="v" format="2">
  <advance width="775"/>
  <unicode hex="0076"/>
  <outline>
    <contour>
      <point x="454" y="0" type="line"/>
      <point x="636" y="170"/>
      <point x="768" y="349"/>
      <point x="805" y="550" type="curve"/>
      <point x="503" y="550" type="line"/>
      <point x="491" y="447"/>
      <point x="429" y="303"/>
      <point x="353" y="207" type="curve"/>
      <point x="324" y="550" type="line"/>
      <point x="23" y="550" type="line"/>
      <point x="142" y="0" type="line"/>
    </contour>
  </outline>
</glyph>
<glyph name="w" format="2">
  <advance width="1033"/>
  <unicode hex="0077"/>
  <note>
15
</note>
  <anchor x="466" y="0" name="bottom"/>
  <anchor x="546" y="550" name="top"/>
  <outline>
    <contour>
      <point x="838" y="0" type="line"/>
      <point x="936" y="172"/>
      <point x="1043" y="386"/>
      <point x="1043" y="550" type="curve"/>
      <point x="794" y="550" type="line"/>
      <point x="790" y="433"/>
      <point x="750" y="300"/>
      <point x="710" y="179" type="curve"/>
      <point x="704" y="550" type="line"/>
      <point x="393" y="550" type="line"/>
      <point x="368" y="388"/>
      <point x="334" y="299"/>
      <point x="298" y="180" type="curve"/>
      <point x="291" y="550" type="line"/>
      <point x="38" y="550" type="line"/>
      <point x="89" y="0" type="line"/>
      <point x="421" y="0" type="line"/>
      <point x="455" y="74"/>
      <point x="505" y="215"/>
      <point x="513" y="270" type="curve"/>
      <point x="535" y="0" type="line"/>
    </contour>
  </outline>
</glyph>
<glyph name="x" format="2">
  <advance width="791"/>
  <unicode hex="0078"/>
  <outline>
    <contour>
      <point x="517" y="550" type="line"/>
      <point x="492" y="470"/>
      <point x="461" y="422"/>
      <point x="414" y="362" type="curve"/>
      <point x="373" y="550" type="line"/>
      <point x="74" y="550" type="line"/>
      <point x="180" y="278" type="line"/>
      <point x="90" y="173"/>
      <point x="29" y="91"/>
      <point x="-18" y="0" type="curve"/>
      <point x="288" y="0" type="line"/>
      <point x="318" y="76"/>
      <point x="351" y="137"/>
      <point x="387" y="192" type="curve"/>
      <point x="436" y="0" type="line"/>
      <point x="742" y="0" type="line"/>
      <point x="622" y="276" type="line"/>
      <point x="702" y="358"/>
      <point x="757" y="420"/>
      <point x="817" y="550" type="curve"/>
    </contour>
  </outline>
</glyph>
<glyph name="z" format="2">
  <advance width="788"/>
  <unicode hex="007A"/>
  <anchor x="358" y="0" name="bottom"/>
  <anchor x="402" y="275" name="center"/>
  <anchor x="446" y="550" name="top"/>
  <outline>
    <contour>
      <point x="8" y="0" type="line"/>
      <point x="705" y="0" type="line"/>
      <point x="735" y="181" type="line"/>
      <point x="433" y="181" type="line"/>
      <point x="745" y="389" type="line"/>
      <point x="771" y="550" type="line"/>
      <point x="119" y="550" type="line"/>
      <point x="88" y="369" type="line"/>
      <point x="355" y="369" type="line"/>
      <point x="32" y="155" type="line"/>
    </contour>
  </outline>
</glyph>
<glyph name="braceleft" format="2">
  <advance width="500"/>
  <unicode hex="007B"/>
  <outline>
    <contour>
      <point x="52" y="-67" type="curve" smooth="yes"/>
      <point x="52" y="-171"/>
      <point x="138" y="-210"/>
      <point x="244" y="-210" type="curve" smooth="yes"/>
      <point x="386" y="-210" type="line"/>
      <point x="411" y="-52" type="line"/>
      <point x="344" y="-52" type="line" smooth="yes"/>
      <point x="312" y="-52"/>
      <point x="297" y="-39"/>
      <point x="297" y="-14" type="curve" smooth="yes"/>
      <point x="297" y="49"/>
      <point x="361" y="94"/>
      <point x="361" y="168" type="curve" smooth="yes"/>
      <point x="361" y="204"/>
      <point x="345" y="236"/>
      <point x="284" y="265" type="curve"/>
      <point x="357" y="298"/>
      <point x="400" y="338"/>
      <point x="400" y="408" type="curve" smooth="yes"/>
      <point x="400" y="447"/>
      <point x="381" y="465"/>
      <point x="381" y="519" type="curve" smooth="yes"/>
      <point x="381" y="558"/>
      <point x="407" y="582"/>
      <point x="445" y="582" type="curve" smooth="yes"/>
      <point x="512" y="582" type="line"/>
      <point x="537" y="740" type="line"/>
      <point x="395" y="740" type="line" smooth="yes"/>
      <point x="251" y="740"/>
      <point x="147" y="663"/>
      <point x="147" y="522" type="curve" smooth="yes"/>
      <point x="147" y="468"/>
      <point x="165" y="433"/>
      <point x="165" y="402" type="curve" smooth="yes"/>
      <point x="165" y="362"/>
      <point x="142" y="343"/>
      <point x="108" y="343" type="curve" smooth="yes"/>
      <point x="92" y="343" type="line"/>
      <point x="67" y="187" type="line"/>
      <point x="83" y="187" type="line" smooth="yes"/>
      <point x="115" y="187"/>
      <point x="126" y="176"/>
      <point x="126" y="154" type="curve" smooth="yes"/>
      <point x="126" y="101"/>
      <point x="52" y="30"/>
    </contour>
  </outline>
</glyph>
<glyph name="asciitilde" format="2">
  <advance width="746"/>
  <unicode hex="007E"/>
  <outline>
    <contour>
      <point x="677" y="216" type="curve"/>
      <point x="707" y="422" type="line"/>
      <point x="671" y="393"/>
      <point x="625" y="382"/>
      <point x="569" y="382" type="curve" smooth="yes"/>
      <point x="411" y="382"/>
      <point x="311" y="464"/>
      <point x="215" y="464" type="curve" smooth="yes"/>
      <point x="140" y="464"/>
      <point x="101" y="435"/>
      <point x="88" y="428" type="curve"/>
      <point x="53" y="222" type="line"/>
      <point x="95" y="245"/>
      <point x="120" y="254"/>
      <point x="180" y="254" type="curve" smooth="yes"/>
      <point x="318" y="254"/>
      <point x="412" y="172"/>
      <point x="552" y="172" type="curve" smooth="yes"/>
      <point x="590" y="172"/>
      <point x="648" y="191"/>
    </contour>
  </outline>
</glyph>
<glyph name="cent" format="2">
  <advance width="1050"/>
  <unicode hex="00A2"/>
  <outline>
    <contour>
      <point x="375" y="-104" type="line"/>
      <point x="562" y="-104" type="line"/>
      <point x="578" y="-9" type="line"/>
      <point x="663" y="-7"/>
      <point x="745" y="0"/>
      <point x="829" y="21" type="curve"/>
      <point x="829" y="201" type="line"/>
      <point x="715" y="183"/>
      <point x="668" y="182"/>
      <point x="616" y="182" type="curve" smooth="yes"/>
      <point x="516" y="182"/>
      <point x="465" y="205"/>
      <point x="465" y="251" type="curve" smooth="yes"/>
      <point x="465" y="343"/>
      <point x="555" y="363"/>
      <point x="626" y="363" type="curve" smooth="yes"/>
      <point x="690" y="363"/>
      <point x="729" y="357"/>
      <point x="837" y="335" type="curve"/>
      <point x="899" y="527" type="line"/>
      <point x="821" y="545"/>
      <point x="764" y="558"/>
      <point x="670" y="560" type="curve"/>
      <point x="687" y="655" type="line"/>
      <point x="500" y="655" type="line"/>
      <point x="480" y="541" type="line"/>
      <point x="302" y="501"/>
      <point x="174" y="391"/>
      <point x="174" y="201" type="curve" smooth="yes"/>
      <point x="174" y="89"/>
      <point x="244" y="23"/>
      <point x="393" y="0" type="curve"/>
    </contour>
  </outline>
</glyph>
<glyph name="sterling" format="2">
  <advance width="1050"/>
  <unicode hex="00A3"/>
  <outline>
    <contour>
      <point x="115" y="0" type="line"/>
      <point x="849" y="0" type="line"/>
      <point x="879" y="190" type="line"/>
      <point x="470" y="190" type="line"/>
      <point x="502" y="208"/>
      <point x="531" y="240"/>
      <point x="531" y="288" type="curve" smooth="yes"/>
      <point x="531" y="321"/>
      <point x="494" y="390"/>
      <point x="494" y="442" type="curve" smooth="yes"/>
      <point x="494" y="487"/>
      <point x="547" y="511"/>
      <point x="643" y="511" type="curve" smooth="yes"/>
      <point x="739" y="511"/>
      <point x="804" y="501"/>
      <point x="884" y="474" type="curve"/>
      <point x="949" y="663" type="line"/>
      <point x="850" y="694"/>
      <point x="789" y="710"/>
      <point x="649" y="710" type="curve" smooth="yes"/>
      <point x="491" y="710"/>
      <point x="225" y="675"/>
      <point x="225" y="488" type="curve" smooth="yes"/>
      <point x="225" y="409"/>
      <point x="268" y="343"/>
      <point x="268" y="289" type="curve" smooth="yes"/>
      <point x="268" y="235"/>
      <point x="230" y="202"/>
      <point x="140" y="158" type="curve"/>
    </contour>
    <contour>
      <point x="151" y="298" type="line"/>
      <point x="742" y="298" type="line"/>
      <point x="760" y="409" type="line"/>
      <point x="168" y="409" type="line"/>
    </contour>
  </outline>
</glyph>
<glyph name="currency" format="2">
  <advance width="581"/>
  <unicode hex="00A4"/>
  <outline>
    <contour>
      <point x="145" y="79" type="line"/>
      <point x="231" y="158" type="line"/>
      <point x="242" y="156"/>
      <point x="255" y="155"/>
      <point x="268" y="155" type="curve" smooth="yes"/>
      <point x="283" y="155"/>
      <point x="297" y="156"/>
      <point x="311" y="159" type="curve"/>
      <point x="373" y="79" type="line"/>
      <point x="498" y="195" type="line"/>
      <point x="449" y="259" type="line"/>
      <point x="463" y="287"/>
      <point x="471" y="318"/>
      <point x="471" y="353" type="curve" smooth="yes"/>
      <point x="471" y="362"/>
      <point x="470" y="371"/>
      <point x="469" y="379" type="curve"/>
      <point x="537" y="443" type="line"/>
      <point x="451" y="559" type="line"/>
      <point x="363" y="479" type="line"/>
      <point x="350" y="482"/>
      <point x="336" y="483"/>
      <point x="320" y="483" type="curve" smooth="yes"/>
      <point x="307" y="483"/>
      <point x="294" y="482"/>
      <point x="282" y="480" type="curve"/>
      <point x="222" y="559" type="line"/>
      <point x="97" y="443" type="line"/>
      <point x="141" y="384" type="line"/>
      <point x="125" y="356"/>
      <point x="117" y="323"/>
      <point x="117" y="288" type="curve" smooth="yes"/>
      <point x="117" y="276"/>
      <point x="118" y="264"/>
      <point x="120" y="254" type="curve"/>
      <point x="57" y="195" type="line"/>
    </contour>
    <contour>
      <point x="288" y="285" type="curve" smooth="yes"/>
      <point x="272" y="285"/>
      <point x="261" y="296"/>
      <point x="261" y="312" type="curve" smooth="yes"/>
      <point x="261" y="335"/>
      <point x="279" y="353"/>
      <point x="299" y="353" type="curve" smooth="yes"/>
      <point x="316" y="353"/>
      <point x="327" y="340"/>
      <point x="327" y="325" type="curve" smooth="yes"/>
      <point x="327" y="299"/>
      <point x="306" y="285"/>
    </contour>
  </outline>
</glyph>
<glyph name="degree" format="2">
  <advance width="480"/>
  <unicode hex="00B0"/>
  <outline>
    <contour>
      <point x="254" y="310" type="curve" smooth="yes"/>
      <point x="380" y="310"/>
      <point x="475" y="406"/>
      <point x="475" y="546" type="curve" smooth="yes"/>
      <point x="475" y="628"/>
      <point x="430" y="708"/>
      <point x="300" y="708" type="curve" smooth="yes"/>
      <point x="174" y="708"/>
      <point x="79" y="612"/>
      <point x="79" y="472" type="curve" smooth="yes"/>
      <point x="79" y="390"/>
      <point x="124" y="310"/>
    </contour>
    <contour>
      <point x="270" y="460" type="curve" smooth="yes"/>
      <point x="246" y="460"/>
      <point x="233" y="475"/>
      <point x="233" y="497" type="curve" smooth="yes"/>
      <point x="233" y="533"/>
      <point x="254" y="558"/>
      <point x="284" y="558" type="curve" smooth="yes"/>
      <point x="308" y="558"/>
      <point x="321" y="543"/>
      <point x="321" y="521" type="curve" smooth="yes"/>
      <point x="321" y="485"/>
      <point x="300" y="460"/>
    </contour>
  </outline>
</glyph>
<glyph name="plusminus" format="2">
  <advance width="743"/>
  <unicode hex="00B1"/>
  <outline>
    <contour>
      <point x="636" y="-1" type="line"/>
      <point x="670" y="204" type="line"/>
      <point x="474" y="204" type="line"/>
      <point x="491" y="309" type="line"/>
      <point x="687" y="309" type="line"/>
      <point x="721" y="514" type="line"/>
      <point x="525" y="514" type="line"/>
      <point x="545" y="642" type="line"/>
      <point x="316" y="642" type="line"/>
      <point x="294" y="514" type="line"/>
      <point x="101" y="514" type="line"/>
      <point x="67" y="309" type="line"/>
      <point x="262" y="309" type="line"/>
      <point x="243" y="204" type="line"/>
      <point x="50" y="204" type="line"/>
      <point x="16" y="-1" type="line"/>
    </contour>
  </outline>
</glyph>
<glyph name="uni00B3" format="2">
  <advance width="611"/>
  <unicode hex="00B3"/>
  <outline>
    <contour>
      <point x="50" y="392" type="line"/>
      <point x="118" y="368"/>
      <point x="217" y="362"/>
      <point x="300" y="362" type="curve" smooth="yes"/>
      <point x="451" y="362"/>
      <point x="613" y="392"/>
      <point x="613" y="506" type="curve" smooth="yes"/>
      <point x="613" y="537"/>
      <point x="589" y="568"/>
      <point x="536" y="582" type="curve"/>
      <point x="589" y="592"/>
      <point x="631" y="624"/>
      <point x="631" y="674" type="curve" smooth="yes"/>
      <point x="631" y="738"/>
      <point x="534" y="773"/>
      <point x="358" y="773" type="curve" smooth="yes"/>
      <point x="267" y="773"/>
      <point x="163" y="761"/>
      <point x="122" y="748" type="curve"/>
      <point x="122" y="633" type="line"/>
      <point x="186" y="645"/>
      <point x="263" y="650"/>
      <point x="323" y="650" type="curve" smooth="yes"/>
      <point x="391" y="650"/>
      <point x="436" y="647"/>
      <point x="436" y="636" type="curve" smooth="yes"/>
      <point x="436" y="620"/>
      <point x="409" y="617"/>
      <point x="316" y="617" type="curve" smooth="yes"/>
      <point x="204" y="617" type="line"/>
      <point x="186" y="515" type="line"/>
      <point x="276" y="515" type="line" smooth="yes"/>
      <point x="399" y="515"/>
      <point x="420" y="506"/>
      <point x="420" y="496" type="curve" smooth="yes"/>
      <point x="420" y="482"/>
      <point x="372" y="478"/>
      <point x="293" y="478" type="curve" smooth="yes"/>
      <point x="220" y="478"/>
      <point x="140" y="490"/>
      <point x="96" y="501" type="curve"/>
    </contour>
  </outline>
</glyph>
<glyph name="multiply" format="2">
  <advance width="629"/>
  <unicode hex="00D7"/>
  <outline>
    <contour>
      <point x="144" y="67" type="line"/>
      <point x="302" y="189" type="line"/>
      <point x="433" y="51" type="line"/>
      <point x="576" y="210" type="line"/>
      <point x="470" y="319" type="line"/>
      <point x="610" y="427" type="line"/>
      <point x="500" y="575" type="line"/>
      <point x="341" y="451" type="line"/>
      <point x="209" y="587" type="line"/>
      <point x="69" y="437" type="line"/>
      <point x="177" y="322" type="line"/>
      <point x="33" y="210" type="line"/>
    </contour>
  </outline>
</glyph>
<glyph name="germandbls" format="2">
  <advance width="1022"/>
  <unicode hex="00DF"/>
  <outline>
    <contour>
      <point x="76" y="40" type="line" smooth="yes"/>
      <point x="71" y="6"/>
      <point x="54" y="-15"/>
      <point x="28" y="-15" type="curve" smooth="yes"/>
      <point x="16" y="-15"/>
      <point x="2" y="-13"/>
      <point x="-8" y="-10" type="curve"/>
      <point x="-52" y="-193" type="line"/>
      <point x="-5" y="-212"/>
      <point x="43" y="-220"/>
      <point x="111" y="-220" type="curve" smooth="yes"/>
      <point x="239" y="-220"/>
      <point x="323" y="-135"/>
      <point x="344" y="0" type="curve" smooth="yes"/>
      <point x="416" y="464" type="line" smooth="yes"/>
      <point x="429" y="547"/>
      <point x="514" y="570"/>
      <point x="633" y="570" type="curve" smooth="yes"/>
      <point x="733" y="570"/>
      <point x="751" y="561"/>
      <point x="751" y="551" type="curve" smooth="yes"/>
      <point x="751" y="539"/>
      <point x="738" y="531"/>
      <point x="629" y="516" type="curve" smooth="yes"/>
      <point x="507" y="499"/>
      <point x="458" y="448"/>
      <point x="458" y="341" type="curve" smooth="yes"/>
      <point x="458" y="252"/>
      <point x="503" y="201"/>
      <point x="629" y="186" type="curve" smooth="yes"/>
      <point x="730" y="174"/>
      <point x="747" y="170"/>
      <point x="747" y="157" type="curve" smooth="yes"/>
      <point x="747" y="147"/>
      <point x="734" y="143"/>
      <point x="702" y="143" type="curve" smooth="yes"/>
      <point x="629" y="143"/>
      <point x="511" y="160"/>
      <point x="441" y="180" type="curve"/>
      <point x="396" y="27" type="line"/>
      <point x="484" y="3"/>
      <point x="577" y="-10"/>
      <point x="669" y="-10" type="curve" smooth="yes"/>
      <point x="919" y="-10"/>
      <point x="1011" y="47"/>
      <point x="1011" y="183" type="curve" smooth="yes"/>
      <point x="1011" y="275"/>
      <point x="965" y="327"/>
      <point x="838" y="337" type="curve" smooth="yes"/>
      <point x="720" y="346"/>
      <point x="704" y="350"/>
      <point x="704" y="364" type="curve" smooth="yes"/>
      <point x="704" y="375"/>
      <point x="715" y="379"/>
      <point x="808" y="389" type="curve" smooth="yes"/>
      <point x="950" y="404"/>
      <point x="982" y="468"/>
      <point x="982" y="562" type="curve" smooth="yes"/>
      <point x="982" y="684"/>
      <point x="872" y="750"/>
      <point x="616" y="750" type="curve" smooth="yes"/>
      <point x="336" y="750"/>
      <point x="180" y="684"/>
      <point x="151" y="500" type="curve" smooth="yes"/>
      <point x="149" y="484" type="line"/>
      <point x="49" y="464" type="line"/>
      <point x="23" y="305" type="line"/>
      <point x="118" y="305" type="line"/>
    </contour>
  </outline>
</glyph>
<glyph name="ae" format="2">
  <advance width="1258"/>
  <unicode hex="00E6"/>
  <anchor x="585" y="0" name="bottom"/>
  <anchor x="674" y="550" name="top"/>
  <outline>
    <contour>
      <point x="259" y="-10" type="curve" smooth="yes"/>
      <point x="329" y="-10"/>
      <point x="400" y="14"/>
      <point x="474" y="56" type="curve"/>
      <point x="464" y="0" type="line"/>
      <point x="714" y="0" type="line"/>
      <point x="723" y="56" type="line"/>
      <point x="774" y="13"/>
      <point x="847" y="-10"/>
      <point x="940" y="-10" type="curve" smooth="yes"/>
      <point x="1023" y="-10"/>
      <point x="1101" y="1"/>
      <point x="1176" y="21" type="curve"/>
      <point x="1156" y="200" type="line"/>
      <point x="1052" y="177"/>
      <point x="953" y="169"/>
      <point x="914" y="169" type="curve" smooth="yes"/>
      <point x="779" y="169"/>
      <point x="751" y="190"/>
      <point x="751" y="260" type="curve" smooth="yes"/>
      <point x="751" y="335"/>
      <point x="810" y="388"/>
      <point x="887" y="388" type="curve" smooth="yes"/>
      <point x="924" y="388"/>
      <point x="940" y="378"/>
      <point x="940" y="360" type="curve" smooth="yes"/>
      <point x="940" y="335"/>
      <point x="888" y="325"/>
      <point x="795" y="322" type="curve" smooth="yes"/>
      <point x="758" y="321"/>
      <point x="732" y="320"/>
      <point x="709" y="322" type="curve"/>
      <point x="727" y="212" type="line"/>
      <point x="769" y="204"/>
      <point x="821" y="198"/>
      <point x="900" y="199" type="curve" smooth="yes"/>
      <point x="1121" y="202"/>
      <point x="1238" y="270"/>
      <point x="1238" y="379" type="curve" smooth="yes"/>
      <point x="1238" y="494"/>
      <point x="1141" y="560"/>
      <point x="991" y="560" type="curve" smooth="yes"/>
      <point x="912" y="560"/>
      <point x="847" y="546"/>
      <point x="796" y="520" type="curve"/>
      <point x="801" y="550" type="line"/>
      <point x="551" y="550" type="line"/>
      <point x="543" y="499" type="line"/>
      <point x="509" y="539"/>
      <point x="452" y="560"/>
      <point x="378" y="560" type="curve" smooth="yes"/>
      <point x="146" y="560"/>
      <point x="26" y="403"/>
      <point x="26" y="222" type="curve" smooth="yes"/>
      <point x="26" y="61"/>
      <point x="117" y="-10"/>
    </contour>
    <contour>
      <point x="397" y="186" type="curve" smooth="yes"/>
      <point x="354" y="186"/>
      <point x="307" y="204"/>
      <point x="307" y="261" type="curve" smooth="yes"/>
      <point x="307" y="357"/>
      <point x="382" y="390"/>
      <point x="453" y="390" type="curve" smooth="yes"/>
      <point x="479" y="390"/>
      <point x="503" y="386"/>
      <point x="524" y="380" type="curve"/>
      <point x="496" y="203" type="line"/>
      <point x="463" y="194"/>
      <point x="431" y="186"/>
    </contour>
  </outline>
</glyph>
<glyph name="eth" format="2">
  <advance width="854"/>
  <unicode hex="00F0"/>
  <outline>
    <contour>
      <point x="590" y="337" type="curve"/>
      <point x="617" y="492" type="line"/>
      <point x="547" y="509"/>
      <point x="456" y="518"/>
      <point x="373" y="518" type="curve" smooth="yes"/>
      <point x="166" y="518"/>
      <point x="21" y="422"/>
      <point x="21" y="239" type="curve" smooth="yes"/>
      <point x="21" y="56"/>
      <point x="164" y="-7"/>
      <point x="370" y="-7" type="curve" smooth="yes"/>
      <point x="637" y="-7"/>
      <point x="792" y="100"/>
      <point x="833" y="325" type="curve" smooth="yes"/>
      <point x="839" y="355"/>
      <point x="841" y="384"/>
      <point x="841" y="410" type="curve" smooth="yes"/>
      <point x="841" y="709"/>
      <point x="592" y="768"/>
      <point x="246" y="768" type="curve" smooth="yes"/>
      <point x="183" y="768"/>
      <point x="125" y="763"/>
      <point x="71" y="755" type="curve"/>
      <point x="48" y="608" type="line"/>
      <point x="94" y="612"/>
      <point x="114" y="615"/>
      <point x="219" y="615" type="curve" smooth="yes"/>
      <point x="476" y="615"/>
      <point x="560" y="581"/>
      <point x="560" y="458" type="curve" smooth="yes"/>
      <point x="560" y="429"/>
      <point x="559" y="395"/>
      <point x="552" y="354" type="curve" smooth="yes"/>
      <point x="530" y="221"/>
      <point x="484" y="169"/>
      <point x="399" y="169" type="curve" smooth="yes"/>
      <point x="328" y="169"/>
      <point x="299" y="200"/>
      <point x="299" y="255" type="curve" smooth="yes"/>
      <point x="299" y="324"/>
      <point x="359" y="356"/>
      <point x="428" y="356" type="curve" smooth="yes"/>
      <point x="503" y="356"/>
      <point x="542" y="345"/>
    </contour>
    <contour>
      <point x="292" y="532" type="line"/>
      <point x="565" y="639" type="line"/>
      <point x="565" y="645" type="line"/>
      <point x="875" y="767" type="line"/>
      <point x="629" y="767" type="line"/>
      <point x="455" y="699" type="line"/>
      <point x="441" y="687" type="line"/>
      <point x="45" y="532" type="line"/>
    </contour>
  </outline>
</glyph>
<glyph name="hbar" format="2">
  <advance width="848"/>
  <unicode hex="0127"/>
  <outline>
    <contour>
      <point x="25" y="592" type="line"/>
      <point x="544" y="592" type="line"/>
      <point x="560" y="698" type="line"/>
      <point x="41" y="698" type="line"/>
    </contour>
    <component base="h" xOffset="-6"/>
  </outline>
</glyph>
<glyph name="kgreenlandic" format="2">
  <advance width="830"/>
  <unicode hex="0138"/>
  <anchor x="381" y="0" name="bottom"/>
  <anchor x="458.556" y="550" name="top"/>
  <outline>
    <contour>
      <point x="14" y="0" type="line"/>
      <point x="297" y="0" type="line"/>
      <point x="386" y="550" type="line"/>
      <point x="102" y="550" type="line"/>
    </contour>
    <contour>
      <point x="711" y="-10" type="curve" smooth="yes"/>
      <point x="725" y="-10"/>
      <point x="740" y="-9"/>
      <point x="754" y="-7" type="curve"/>
      <point x="793" y="233" type="line"/>
      <point x="783" y="232"/>
      <point x="774" y="232"/>
      <point x="763" y="232" type="curve" smooth="yes"/>
      <point x="698" y="232"/>
      <point x="630" y="254"/>
      <point x="517" y="310" type="curve" smooth="yes"/>
      <point x="331" y="403" type="line"/>
      <point x="296" y="185" type="line"/>
      <point x="441" y="85" type="line" smooth="yes"/>
      <point x="526" y="27"/>
      <point x="623" y="-10"/>
    </contour>
    <contour>
      <point x="539" y="280" type="line"/>
      <point x="675" y="358"/>
      <point x="795" y="466"/>
      <point x="840" y="550" type="curve"/>
      <point x="534" y="560" type="line"/>
      <point x="488" y="483"/>
      <point x="416" y="420"/>
      <point x="320" y="349" type="curve"/>
    </contour>
  </outline>
</glyph>
<glyph name="Lslash" format="2">
  <advance width="893"/>
  <unicode hex="0141"/>
  <outline>
    <contour>
      <point x="13" y="0" type="line"/>
      <point x="813" y="0" type="line"/>
      <point x="853" y="225" type="line"/>
      <point x="351" y="225" type="line"/>
      <point x="364" y="307" type="line"/>
      <point x="632" y="422" type="line"/>
      <point x="669" y="650" type="line"/>
      <point x="401" y="535" type="line"/>
      <point x="428" y="700" type="line"/>
      <point x="128" y="700" type="line"/>
      <point x="78" y="396" type="line"/>
      <point x="10" y="367" type="line"/>
      <point x="-25" y="144" type="line"/>
      <point x="41" y="172" type="line"/>
    </contour>
  </outline>
</glyph>
<glyph name="Eng" format="2">
  <advance width="1005"/>
  <unicode hex="014A"/>
  <outline>
    <contour>
      <point x="28" y="0" type="line"/>
      <point x="299" y="0" type="line"/>
      <point x="354" y="335" type="line"/>
      <point x="624" y="9" type="line"/>
      <point x="623" y="-22"/>
      <point x="591" y="-31"/>
      <point x="542" y="-31" type="curve" smooth="yes"/>
      <point x="509" y="-31"/>
      <point x="484" y="-24"/>
      <point x="456" y="-10" type="curve"/>
      <point x="415" y="-199" type="line"/>
      <point x="476" y="-218"/>
      <point x="557" y="-220"/>
      <point x="577" y="-220" type="curve" smooth="yes"/>
      <point x="755" y="-220"/>
      <point x="854" y="-187"/>
      <point x="883" y="-9" type="curve" smooth="yes"/>
      <point x="1000" y="700" type="line"/>
      <point x="729" y="700" type="line"/>
      <point x="670" y="344" type="line"/>
      <point x="399" y="700" type="line"/>
      <point x="144" y="700" type="line"/>
    </contour>
  </outline>
</glyph>
<glyph name="eng" format="2">
  <advance width="841"/>
  <unicode hex="014B"/>
  <outline>
    <contour>
      <point x="751" y="75" type="curve" smooth="yes"/>
      <point x="756" y="105"/>
      <point x="804" y="403"/>
      <point x="804" y="412" type="curve" smooth="yes"/>
      <point x="804" y="494"/>
      <point x="729" y="560"/>
      <point x="593" y="560" type="curve" smooth="yes"/>
      <point x="508" y="560"/>
      <point x="449" y="536"/>
      <point x="344" y="486" type="curve"/>
      <point x="354" y="550" type="line"/>
      <point x="102" y="550" type="line"/>
      <point x="15" y="0" type="line"/>
      <point x="293" y="0" type="line"/>
      <point x="349" y="338" type="line"/>
      <point x="388" y="351"/>
      <point x="423" y="360"/>
      <point x="451" y="360" type="curve" smooth="yes"/>
      <point x="489" y="360"/>
      <point x="516" y="344"/>
      <point x="508" y="298" type="curve" smooth="yes"/>
      <point x="496" y="226"/>
      <point x="484" y="154"/>
      <point x="472" y="82" type="curve" smooth="yes"/>
      <point x="460" y="10"/>
      <point x="427" y="-9"/>
      <point x="366" y="-9" type="curve" smooth="yes"/>
      <point x="361" y="-9"/>
      <point x="356" y="-9"/>
      <point x="351" y="-9" type="curve"/>
      <point x="308" y="-215" type="line"/>
      <point x="336" y="-217"/>
      <point x="396" y="-220"/>
      <point x="443" y="-220" type="curve" smooth="yes"/>
      <point x="636" y="-220"/>
      <point x="720" y="-117"/>
    </contour>
  </outline>
</glyph>
<glyph name="OE" format="2">
  <advance width="1583"/>
  <unicode hex="0152"/>
  <outline>
    <contour>
      <point x="1497" y="0" type="line"/>
      <point x="1532" y="205" type="line"/>
      <point x="975" y="205" type="line"/>
      <point x="984" y="261" type="line"/>
      <point x="1483" y="261" type="line"/>
      <point x="1515" y="441" type="line"/>
      <point x="1015" y="441" type="line"/>
      <point x="1023" y="494" type="line"/>
      <point x="1552" y="494" type="line"/>
      <point x="1585" y="700" type="line"/>
      <point x="1056" y="700" type="line"/>
      <point x="919" y="700"/>
      <point x="827" y="710"/>
      <point x="572" y="710" type="curve" smooth="yes"/>
      <point x="310" y="710"/>
      <point x="49" y="610"/>
      <point x="49" y="307" type="curve" smooth="yes"/>
      <point x="49" y="110"/>
      <point x="177" y="-10"/>
      <point x="528" y="-10" type="curve" smooth="yes"/>
      <point x="708" y="-10"/>
      <point x="810" y="0"/>
      <point x="941" y="0" type="curve" smooth="yes"/>
    </contour>
    <contour>
      <point x="689" y="187" type="line"/>
      <point x="654" y="185"/>
      <point x="601" y="183"/>
      <point x="533" y="183" type="curve" smooth="yes"/>
      <point x="425" y="183"/>
      <point x="344" y="244"/>
      <point x="344" y="326" type="curve" smooth="yes"/>
      <point x="344" y="470"/>
      <point x="454" y="516"/>
      <point x="557" y="516" type="curve" smooth="yes"/>
      <point x="641" y="516"/>
      <point x="677" y="513"/>
      <point x="743" y="511" type="curve"/>
    </contour>
  </outline>
</glyph>
<glyph name="oe" format="2">
  <advance width="1305"/>
  <unicode hex="0153"/>
  <outline>
    <contour>
      <point x="403" y="-9" type="curve" smooth="yes"/>
      <point x="496" y="-9"/>
      <point x="584" y="5"/>
      <point x="656" y="59" type="curve"/>
      <point x="725" y="8"/>
      <point x="822" y="-10"/>
      <point x="917" y="-10" type="curve" smooth="yes"/>
      <point x="1025" y="-10"/>
      <point x="1126" y="1"/>
      <point x="1223" y="21" type="curve"/>
      <point x="1203" y="200" type="line"/>
      <point x="1099" y="177"/>
      <point x="1000" y="169"/>
      <point x="961" y="169" type="curve" smooth="yes"/>
      <point x="826" y="169"/>
      <point x="798" y="190"/>
      <point x="798" y="260" type="curve" smooth="yes"/>
      <point x="798" y="335"/>
      <point x="857" y="388"/>
      <point x="934" y="388" type="curve" smooth="yes"/>
      <point x="971" y="388"/>
      <point x="987" y="378"/>
      <point x="987" y="360" type="curve" smooth="yes"/>
      <point x="987" y="335"/>
      <point x="935" y="324"/>
      <point x="842" y="322" type="curve" smooth="yes"/>
      <point x="805" y="321"/>
      <point x="779" y="320"/>
      <point x="756" y="322" type="curve"/>
      <point x="774" y="212" type="line"/>
      <point x="816" y="204"/>
      <point x="868" y="198"/>
      <point x="947" y="199" type="curve" smooth="yes"/>
      <point x="1168" y="203"/>
      <point x="1285" y="270"/>
      <point x="1285" y="379" type="curve" smooth="yes"/>
      <point x="1285" y="494"/>
      <point x="1157" y="560"/>
      <point x="958" y="560" type="curve" smooth="yes"/>
      <point x="845" y="560"/>
      <point x="755" y="542"/>
      <point x="682" y="492" type="curve"/>
      <point x="620" y="545"/>
      <point x="529" y="561"/>
      <point x="417" y="561" type="curve" smooth="yes"/>
      <point x="199" y="561"/>
      <point x="36" y="483"/>
      <point x="29" y="262" type="curve" smooth="yes"/>
      <point x="24" y="63"/>
      <point x="178" y="-9"/>
    </contour>
    <contour>
      <point x="414" y="160" type="curve" smooth="yes"/>
      <point x="348" y="160"/>
      <point x="314" y="193"/>
      <point x="314" y="259" type="curve" smooth="yes"/>
      <point x="314" y="344"/>
      <point x="353" y="392"/>
      <point x="426" y="392" type="curve" smooth="yes"/>
      <point x="491" y="392"/>
      <point x="526" y="358"/>
      <point x="526" y="292" type="curve" smooth="yes"/>
      <point x="526" y="207"/>
      <point x="487" y="160"/>
    </contour>
  </outline>
</glyph>
<glyph name="uni018F" format="2">
  <advance width="987"/>
  <unicode hex="018F"/>
  <outline>
    <contour>
      <point x="391" y="-10" type="curve" smooth="yes"/>
      <point x="647" y="-10"/>
      <point x="962" y="51"/>
      <point x="962" y="396" type="curve" smooth="yes"/>
      <point x="962" y="580"/>
      <point x="799" y="710"/>
      <point x="492" y="710" type="curve" smooth="yes"/>
      <point x="349" y="710"/>
      <point x="204" y="694"/>
      <point x="76" y="669" type="curve"/>
      <point x="104" y="475" type="line"/>
      <point x="233" y="504"/>
      <point x="356" y="514"/>
      <point x="455" y="514" type="curve" smooth="yes"/>
      <point x="603" y="514"/>
      <point x="658" y="463"/>
      <point x="658" y="378" type="curve" smooth="yes"/>
      <point x="658" y="299"/>
      <point x="632" y="190"/>
      <point x="446" y="190" type="curve" smooth="yes"/>
      <point x="376" y="190"/>
      <point x="333" y="203"/>
      <point x="333" y="234" type="curve" smooth="yes"/>
      <point x="333" y="266"/>
      <point x="367" y="288"/>
      <point x="454" y="295" type="curve" smooth="yes"/>
      <point x="512" y="299"/>
      <point x="601" y="297"/>
      <point x="688" y="291" type="curve"/>
      <point x="689" y="429" type="line"/>
      <point x="663" y="437"/>
      <point x="538" y="446"/>
      <point x="455" y="446" type="curve" smooth="yes"/>
      <point x="180" y="446"/>
      <point x="19" y="366"/>
      <point x="19" y="209" type="curve" smooth="yes"/>
      <point x="19" y="73"/>
      <point x="142" y="-10"/>
    </contour>
  </outline>
</glyph>
<glyph name="florin" format="2">
  <advance width="1050"/>
  <unicode hex="0192"/>
  <outline>
    <contour>
      <point x="573" y="230" type="line"/>
      <point x="852" y="230" type="line"/>
      <point x="880" y="409" type="line"/>
      <point x="602" y="409" type="line"/>
      <point x="604" y="418" type="line" smooth="yes"/>
      <point x="614" y="463"/>
      <point x="637" y="494"/>
      <point x="705" y="494" type="curve" smooth="yes"/>
      <point x="779" y="494"/>
      <point x="836" y="482"/>
      <point x="906" y="459" type="curve"/>
      <point x="968" y="662" type="line"/>
      <point x="891" y="701"/>
      <point x="763" y="710"/>
      <point x="685" y="710" type="curve" smooth="yes"/>
      <point x="518" y="710"/>
      <point x="340" y="642"/>
      <point x="310" y="460" type="curve" smooth="yes"/>
      <point x="302" y="409" type="line"/>
      <point x="185" y="389" type="line"/>
      <point x="160" y="230" type="line"/>
      <point x="273" y="230" type="line"/>
      <point x="202" y="-210" type="line"/>
      <point x="503" y="-210" type="line"/>
    </contour>
  </outline>
</glyph>
<glyph name="gravecomb" format="2">
  <unicode hex="0300"/>
  <anchor x="-388" y="550" name="_top"/>
  <anchor x="-401" y="790" name="top"/>
  <outline>
    <contour>
      <point x="-459" y="596" type="line"/>
      <point x="-249" y="596" type="line"/>
      <point x="-334" y="790" type="line"/>
      <point x="-583" y="790" type="line"/>
    </contour>
  </outline>
</glyph>
<glyph name="uni0302" format="2">
  <unicode hex="0302"/>
  <anchor x="-388" y="550" name="_top"/>
  <anchor x="-351" y="790" name="top"/>
  <anchor x="-28" y="661" name="top_viet"/>
  <outline>
    <contour>
      <point x="-657" y="596" type="line"/>
      <point x="-442" y="596" type="line"/>
      <point x="-371" y="657" type="line"/>
      <point x="-319" y="596" type="line"/>
      <point x="-104" y="596" type="line"/>
      <point x="-191" y="790" type="line"/>
      <point x="-497" y="790" type="line"/>
    </contour>
  </outline>
</glyph>
<glyph name="uni0304" format="2">
  <unicode hex="0304"/>
  <anchor x="-388" y="550" name="_top"/>
  <anchor x="-352" y="780" name="top"/>
  <outline>
    <contour>
      <point x="-581" y="606" type="line"/>
      <point x="-177" y="606" type="line"/>
      <point x="-150" y="780" type="line"/>
      <point x="-554" y="780" type="line"/>
    </contour>
  </outline>
</glyph>
<glyph name="uni0307" format="2">
  <unicode hex="0307"/>
  <anchor x="-388" y="550" name="_top"/>
  <anchor x="-347" y="808" name="top"/>
  <outline>
    <contour>
      <point x="-380" y="594" type="curve" smooth="yes"/>
      <point x="-293" y="594"/>
      <point x="-254" y="647"/>
      <point x="-254" y="732" type="curve" smooth="yes"/>
      <point x="-254" y="782"/>
      <point x="-281" y="808"/>
      <point x="-347" y="808" type="curve" smooth="yes"/>
      <point x="-432" y="808"/>
      <point x="-474" y="750"/>
      <point x="-474" y="670" type="curve" smooth="yes"/>
      <point x="-474" y="620"/>
      <point x="-447" y="594"/>
    </contour>
  </outline>
</glyph>
<glyph name="uni0308" format="2">
  <unicode hex="0308"/>
  <anchor x="-388" y="550" name="_top"/>
  <anchor x="-350" y="790" name="top"/>
  <outline>
    <contour>
      <point x="-262" y="576" type="curve" smooth="yes"/>
      <point x="-176" y="576"/>
      <point x="-135" y="628"/>
      <point x="-135" y="713" type="curve" smooth="yes"/>
      <point x="-135" y="764"/>
      <point x="-163" y="790"/>
      <point x="-228" y="790" type="curve" smooth="yes"/>
      <point x="-314" y="790"/>
      <point x="-356" y="738"/>
      <point x="-356" y="652" type="curve" smooth="yes"/>
      <point x="-356" y="602"/>
      <point x="-328" y="576"/>
    </contour>
    <contour>
      <point x="-507" y="576" type="curve" smooth="yes"/>
      <point x="-421" y="576"/>
      <point x="-379" y="622"/>
      <point x="-379" y="713" type="curve" smooth="yes"/>
      <point x="-379" y="764"/>
      <point x="-407" y="790"/>
      <point x="-473" y="790" type="curve" smooth="yes"/>
      <point x="-558" y="790"/>
      <point x="-600" y="737"/>
      <point x="-600" y="647" type="curve" smooth="yes"/>
      <point x="-600" y="602"/>
      <point x="-572" y="576"/>
    </contour>
  </outline>
</glyph>
<glyph name="hookabovecomb" format="2">
  <unicode hex="0309"/>
  <anchor x="-388" y="550" name="_top"/>
  <anchor x="-371" y="808" name="top"/>
  <outline>
    <contour>
      <point x="-473" y="586" type="line"/>
      <point x="-333" y="592"/>
      <point x="-205" y="616"/>
      <point x="-205" y="722" type="curve" smooth="yes"/>
      <point x="-205" y="793"/>
      <point x="-268" y="817"/>
      <point x="-382" y="817" type="curve" smooth="yes"/>
      <point x="-416" y="817"/>
      <point x="-473" y="812"/>
      <point x="-503" y="806" type="curve"/>
      <point x="-521" y="694" type="line"/>
      <point x="-493" y="697"/>
      <point x="-475" y="699"/>
      <point x="-447" y="699" type="curve" smooth="yes"/>
      <point x="-415" y="699"/>
      <point x="-392" y="697"/>
      <point x="-392" y="684" type="curve" smooth="yes"/>
      <point x="-392" y="670"/>
      <point x="-411" y="663"/>
      <point x="-470" y="659" type="curve"/>
    </contour>
  </outline>
</glyph>
<glyph name="uni030F" format="2">
  <unicode hex="030F"/>
  <anchor x="-388" y="550" name="_top"/>
  <anchor x="-420" y="790" name="top"/>
  <outline>
    <contour>
      <point x="-618" y="596" type="line"/>
      <point x="-408" y="596" type="line"/>
      <point x="-493" y="790" type="line"/>
      <point x="-742" y="790" type="line"/>
    </contour>
    <contour>
      <point x="-338" y="596" type="line"/>
      <point x="-128" y="596" type="line"/>
      <point x="-213" y="790" type="line"/>
      <point x="-462" y="790" type="line"/>
    </contour>
  </outline>
</glyph>
<glyph name="uni031B" format="2">
  <unicode hex="031B"/>
  <anchor x="-157" y="550" name="_topright"/>
  <anchor x="60" y="655" name="topright"/>
  <outline>
    <contour>
      <point x="-294" y="388" type="line"/>
      <point x="-244" y="388" type="line" smooth="yes"/>
      <point x="-73" y="388"/>
      <point x="31" y="471"/>
      <point x="40" y="655" type="curve"/>
      <point x="-227" y="655" type="line"/>
      <point x="-235" y="569"/>
      <point x="-256" y="550"/>
      <point x="-295" y="550" type="curve"/>
      <point x="-308" y="550" type="line"/>
    </contour>
  </outline>
</glyph>
<glyph name="emdash" format="2">
  <advance width="959"/>
  <unicode hex="2014"/>
  <outline>
    <contour>
      <point x="14" y="234" type="line"/>
      <point x="932" y="234" type="line"/>
      <point x="959" y="402" type="line"/>
      <point x="41" y="402" type="line"/>
    </contour>
  </outline>
</glyph>
<glyph name="quoteleft" format="2">
  <advance width="331"/>
  <unicode hex="2018"/>
  <outline>
    <contour>
      <point x="68" y="430" type="curve"/>
      <point x="300" y="430" type="line"/>
      <point x="307" y="525"/>
      <point x="323" y="586"/>
      <point x="360" y="678" type="curve"/>
      <point x="174" y="700" type="line"/>
      <point x="111" y="622"/>
      <point x="82" y="544"/>
    </contour>
  </outline>
</glyph>
<glyph name="quoteright" format="2">
  <advance width="331"/>
  <unicode hex="2019"/>
  <outline>
    <contour>
      <point x="355" y="700" type="curve"/>
      <point x="123" y="700" type="line"/>
      <point x="116" y="605"/>
      <point x="100" y="544"/>
      <point x="63" y="452" type="curve"/>
      <point x="249" y="430" type="line"/>
      <point x="312" y="508"/>
      <point x="341" y="586"/>
    </contour>
  </outline>
</glyph>
<glyph name="bullet" format="2">
  <advance width="500"/>
  <unicode hex="2022"/>
  <outline>
    <contour>
      <point x="232" y="164" type="curve" smooth="yes"/>
      <point x="366" y="164"/>
      <point x="444" y="273"/>
      <point x="444" y="389" type="curve" smooth="yes"/>
      <point x="444" y="480"/>
      <point x="382" y="550"/>
      <point x="295" y="550" type="curve" smooth="yes"/>
      <point x="165" y="550"/>
      <point x="83" y="444"/>
      <point x="83" y="323" type="curve" smooth="yes"/>
      <point x="83" y="233"/>
      <point x="145" y="164"/>
    </contour>
  </outline>
</glyph>
<glyph name="minute" format="2">
  <advance width="301"/>
  <unicode hex="2032"/>
  <outline>
    <contour>
      <point x="40" y="427" type="line"/>
      <point x="250" y="427" type="line"/>
      <point x="348" y="700" type="line"/>
      <point x="118" y="700" type="line"/>
    </contour>
  </outline>
</glyph>
<glyph name="guilsinglleft" format="2">
  <advance width="397"/>
  <unicode hex="2039"/>
  <outline>
    <contour>
      <point x="299" y="-11" type="line"/>
      <point x="339" y="241" type="line"/>
      <point x="200" y="274" type="line"/>
      <point x="352" y="313" type="line"/>
      <point x="392" y="560" type="line"/>
      <point x="49" y="387" type="line"/>
      <point x="14" y="172" type="line"/>
    </contour>
  </outline>
</glyph>
<glyph name="guilsinglright" format="2">
  <advance width="397"/>
  <unicode hex="203A"/>
  <outline>
    <contour>
      <point x="45" y="241" type="line"/>
      <point x="5" y="-11" type="line"/>
      <point x="349" y="172" type="line"/>
      <point x="384" y="387" type="line"/>
      <point x="98" y="560" type="line"/>
      <point x="58" y="308" type="line"/>
      <point x="191" y="274" type="line"/>
    </contour>
  </outline>
</glyph>
<glyph name="uni2052" format="2">
  <advance width="1050"/>
  <unicode hex="2052"/>
  <outline>
    <contour>
      <point x="12" y="0" type="line"/>
      <point x="270" y="0" type="line"/>
      <point x="1061" y="700" type="line"/>
      <point x="803" y="700" type="line"/>
    </contour>
    <component base="period" xOffset="99" yOffset="492"/>
    <component base="period" xOffset="645"/>
  </outline>
</glyph>
<glyph name="uni2075" format="2">
  <advance width="614"/>
  <unicode hex="2075"/>
  <outline>
    <contour>
      <point x="44" y="392" type="line"/>
      <point x="116" y="369"/>
      <point x="225" y="362"/>
      <point x="313" y="362" type="curve" smooth="yes"/>
      <point x="514" y="362"/>
      <point x="624" y="416"/>
      <point x="624" y="516" type="curve" smooth="yes"/>
      <point x="624" y="602"/>
      <point x="545" y="624"/>
      <point x="396" y="624" type="curve" smooth="yes"/>
      <point x="276" y="624" type="line"/>
      <point x="285" y="652" type="line"/>
      <point x="611" y="652" type="line"/>
      <point x="632" y="772" type="line"/>
      <point x="175" y="772" type="line"/>
      <point x="92" y="522" type="line"/>
      <point x="98" y="518" type="line"/>
      <point x="367" y="518" type="line" smooth="yes"/>
      <point x="436" y="518"/>
      <point x="448" y="507"/>
      <point x="448" y="497" type="curve" smooth="yes"/>
      <point x="448" y="482"/>
      <point x="395" y="476"/>
      <point x="311" y="476" type="curve" smooth="yes"/>
      <point x="234" y="476"/>
      <point x="140" y="490"/>
      <point x="92" y="501" type="curve"/>
    </contour>
  </outline>
</glyph>
<glyph name="uni2076" format="2">
  <advance width="627"/>
  <unicode hex="2076"/>
  <outline>
    <contour>
      <point x="346" y="362" type="curve" smooth="yes"/>
      <point x="550" y="362"/>
      <point x="646" y="411"/>
      <point x="646" y="502" type="curve" smooth="yes"/>
      <point x="646" y="579"/>
      <point x="573" y="624"/>
      <point x="430" y="624" type="curve" smooth="yes"/>
      <point x="360" y="624"/>
      <point x="280" y="613"/>
      <point x="225" y="590" type="curve"/>
      <point x="218" y="504" type="line"/>
      <point x="250" y="513"/>
      <point x="308" y="524"/>
      <point x="364" y="524" type="curve" smooth="yes"/>
      <point x="440" y="524"/>
      <point x="456" y="515"/>
      <point x="456" y="501" type="curve" smooth="yes"/>
      <point x="456" y="484"/>
      <point x="431" y="475"/>
      <point x="372" y="475" type="curve" smooth="yes"/>
      <point x="300" y="475"/>
      <point x="234" y="491"/>
      <point x="234" y="554" type="curve" smooth="yes"/>
      <point x="234" y="589"/>
      <point x="244" y="611"/>
      <point x="315" y="638" type="curve" smooth="yes"/>
      <point x="349" y="651"/>
      <point x="397" y="659"/>
      <point x="446" y="659" type="curve" smooth="yes"/>
      <point x="515" y="659"/>
      <point x="547" y="651"/>
      <point x="598" y="638" type="curve"/>
      <point x="643" y="745" type="line"/>
      <point x="601" y="757"/>
      <point x="544" y="773"/>
      <point x="451" y="773" type="curve" smooth="yes"/>
      <point x="236" y="773"/>
      <point x="68" y="703"/>
      <point x="68" y="549" type="curve" smooth="yes"/>
      <point x="68" y="414"/>
      <point x="180" y="362"/>
    </contour>
  </outline>
</glyph>
<glyph name="uni2077" format="2">
  <advance width="592"/>
  <unicode hex="2077"/>
  <outline>
    <contour>
      <point x="130" y="370" type="curve"/>
      <point x="359" y="370" type="line"/>
      <point x="372" y="417"/>
      <point x="402" y="458"/>
      <point x="499" y="546" type="curve" smooth="yes"/>
      <point x="627" y="661" type="line"/>
      <point x="644" y="760" type="line"/>
      <point x="111" y="760" type="line"/>
      <point x="91" y="640" type="line"/>
      <point x="367" y="640" type="line"/>
      <point x="261" y="548" type="line" smooth="yes"/>
      <point x="175" y="473"/>
      <point x="140" y="433"/>
    </contour>
  </outline>
</glyph>
<glyph name="uni207A" format="2">
  <advance width="477"/>
  <unicode hex="207A"/>
  <outline>
    <contour>
      <point x="194" y="420" type="line"/>
      <point x="326" y="420" type="line"/>
      <point x="337" y="493" type="line"/>
      <point x="449" y="493" type="line"/>
      <point x="469" y="610" type="line"/>
      <point x="357" y="610" type="line"/>
      <point x="369" y="683" type="line"/>
      <point x="238" y="683" type="line"/>
      <point x="225" y="610" type="line"/>
      <point x="115" y="610" type="line"/>
      <point x="96" y="493" type="line"/>
      <point x="207" y="493" type="line"/>
    </contour>
  </outline>
</glyph>
<glyph name="uni207B" format="2">
  <advance width="477"/>
  <unicode hex="207B"/>
  <outline>
    <contour>
      <point x="96" y="493" type="line"/>
      <point x="449" y="493" type="line"/>
      <point x="469" y="610" type="line"/>
      <point x="115" y="610" type="line"/>
    </contour>
  </outline>
</glyph>
<glyph name="uni207C" format="2">
  <advance width="478"/>
  <unicode hex="207C"/>
  <outline>
    <contour>
      <point x="457" y="538" type="line"/>
      <point x="104" y="538" type="line"/>
      <point x="84" y="421" type="line"/>
      <point x="438" y="421" type="line"/>
    </contour>
    <contour>
      <point x="481" y="682" type="line"/>
      <point x="127" y="682" type="line"/>
      <point x="108" y="565" type="line"/>
      <point x="461" y="565" type="line"/>
    </contour>
  </outline>
</glyph>
<glyph name="uni207D" format="2">
  <advance width="267"/>
  <unicode hex="207D"/>
  <outline>
    <contour>
      <point x="72" y="503" type="curve" smooth="yes"/>
      <point x="72" y="393"/>
      <point x="123" y="298"/>
      <point x="253" y="285" type="curve"/>
      <point x="267" y="376" type="line"/>
      <point x="215" y="393"/>
      <point x="196" y="433"/>
      <point x="196" y="489" type="curve" smooth="yes"/>
      <point x="196" y="592"/>
      <point x="226" y="722"/>
      <point x="324" y="742" type="curve"/>
      <point x="339" y="837" type="line"/>
      <point x="165" y="833"/>
      <point x="72" y="677"/>
    </contour>
  </outline>
</glyph>
<glyph name="uni207E" format="2">
  <advance width="266"/>
  <unicode hex="207E"/>
  <outline>
    <contour>
      <point x="285" y="619" type="curve" smooth="yes"/>
      <point x="285" y="732"/>
      <point x="234" y="824"/>
      <point x="105" y="837" type="curve"/>
      <point x="90" y="743" type="line"/>
      <point x="142" y="726"/>
      <point x="161" y="686"/>
      <point x="161" y="630" type="curve" smooth="yes"/>
      <point x="161" y="527"/>
      <point x="131" y="400"/>
      <point x="33" y="380" type="curve"/>
      <point x="18" y="285" type="line"/>
      <point x="192" y="289"/>
      <point x="285" y="450"/>
    </contour>
  </outline>
</glyph>
<glyph name="uni20A6" format="2">
  <advance width="1050"/>
  <unicode hex="20A6"/>
  <outline>
    <contour>
      <point x="53" y="0" type="line"/>
      <point x="340" y="0" type="line"/>
      <point x="393" y="327" type="line"/>
      <point x="641" y="0" type="line"/>
      <point x="909" y="0" type="line"/>
      <point x="1020" y="700" type="line"/>
      <point x="733" y="700" type="line"/>
      <point x="677" y="342" type="line"/>
      <point x="433" y="700" type="line"/>
      <point x="164" y="700" type="line"/>
    </contour>
    <contour>
      <point x="14" y="266" type="line"/>
      <point x="212" y="266" type="line"/>
      <point x="236" y="419" type="line"/>
      <point x="38" y="419" type="line"/>
    </contour>
    <contour>
      <point x="863" y="266" type="line"/>
      <point x="1034" y="266" type="line"/>
      <point x="1058" y="419" type="line"/>
      <point x="887" y="419" type="line"/>
    </contour>
  </outline>
</glyph>
<glyph name="peseta" format="2">
  <advance width="1050"/>
  <unicode hex="20A7"/>
  <outline>
    <contour>
      <point x="44" y="0" type="line"/>
      <point x="343" y="0" type="line"/>
      <point x="372" y="167" type="line"/>
      <point x="466" y="163"/>
      <point x="494" y="162"/>
      <point x="542" y="162" type="curve" smooth="yes"/>
      <point x="836" y="162"/>
      <point x="983" y="235"/>
      <point x="983" y="464" type="curve" smooth="yes"/>
      <point x="983" y="653"/>
      <point x="846" y="710"/>
      <point x="565" y="710" type="curve" smooth="yes"/>
      <point x="536" y="710"/>
      <point x="397" y="707"/>
      <point x="160" y="700" type="curve"/>
    </contour>
    <contour>
      <point x="427" y="501" type="line"/>
      <point x="506" y="505"/>
      <point x="514" y="505"/>
      <point x="546" y="505" type="curve" smooth="yes"/>
      <point x="623" y="505"/>
      <point x="671" y="495"/>
      <point x="671" y="447" type="curve" smooth="yes"/>
      <point x="671" y="392"/>
      <point x="640" y="371"/>
      <point x="520" y="371" type="curve" smooth="yes"/>
      <point x="490" y="371"/>
      <point x="471" y="372"/>
      <point x="407" y="376" type="curve"/>
    </contour>
    <contour>
      <point x="19" y="391" type="line"/>
      <point x="248" y="391" type="line"/>
      <point x="266" y="502" type="line"/>
      <point x="37" y="502" type="line"/>
    </contour>
    <contour>
      <point x="830" y="391" type="line"/>
      <point x="1068" y="391" type="line"/>
      <point x="1086" y="502" type="line"/>
      <point x="848" y="502" type="line"/>
    </contour>
  </outline>
</glyph>
<glyph name="uni20A9" format="2">
  <advance width="1050"/>
  <unicode hex="20A9"/>
  <outline>
    <contour>
      <point x="134" y="0" type="line"/>
      <point x="430" y="0" type="line"/>
      <point x="545" y="368" type="line"/>
      <point x="547" y="0" type="line"/>
      <point x="819" y="0" type="line"/>
      <point x="1086" y="700" type="line"/>
      <point x="830" y="700" type="line"/>
      <point x="718" y="256" type="line"/>
      <point x="727" y="662" type="line"/>
      <point x="462" y="662" type="line"/>
      <point x="329" y="253" type="line"/>
      <point x="357" y="700" type="line"/>
      <point x="98" y="700" type="line"/>
    </contour>
    <contour>
      <point x="1" y="308" type="line"/>
      <point x="232" y="308" type="line"/>
      <point x="249" y="419" type="line"/>
      <point x="18" y="419" type="line"/>
    </contour>
    <contour>
      <point x="887" y="308" type="line"/>
      <point x="1061" y="308" type="line"/>
      <point x="1078" y="419" type="line"/>
      <point x="904" y="419" type="line"/>
    </contour>
  </outline>
</glyph>
<glyph name="dong" format="2">
  <advance width="1050"/>
  <unicode hex="20AB"/>
  <outline>
    <contour>
      <point x="41" y="0" type="line"/>
      <point x="902" y="0" type="line"/>
      <point x="919" y="106" type="line"/>
      <point x="58" y="106" type="line"/>
    </contour>
    <contour>
      <point x="354" y="594" type="line"/>
      <point x="1009" y="594" type="line"/>
      <point x="1025" y="690" type="line"/>
      <point x="370" y="690" type="line"/>
    </contour>
    <contour>
      <point x="794" y="132" type="curve" smooth="yes"/>
      <point x="838" y="132"/>
      <point x="893" y="139"/>
      <point x="923" y="146" type="curve"/>
      <point x="923" y="333" type="line"/>
      <point x="917" y="332"/>
      <point x="908" y="331"/>
      <point x="902" y="331" type="curve" smooth="yes"/>
      <point x="889" y="331"/>
      <point x="883" y="337"/>
      <point x="883" y="349" type="curve" smooth="yes"/>
      <point x="883" y="366"/>
      <point x="945" y="742"/>
      <point x="945" y="742" type="curve"/>
      <point x="663" y="742" type="line"/>
      <point x="632" y="549" type="line"/>
      <point x="595" y="556"/>
      <point x="550" y="562"/>
      <point x="492" y="562" type="curve" smooth="yes"/>
      <point x="269" y="562"/>
      <point x="95" y="504"/>
      <point x="95" y="325" type="curve" smooth="yes"/>
      <point x="95" y="202"/>
      <point x="216" y="132"/>
      <point x="360" y="132" type="curve" smooth="yes"/>
      <point x="453" y="132"/>
      <point x="537" y="161"/>
      <point x="605" y="202" type="curve"/>
      <point x="643" y="162"/>
      <point x="727" y="132"/>
    </contour>
    <contour>
      <point x="466" y="279" type="curve" smooth="yes"/>
      <point x="407" y="279"/>
      <point x="370" y="306"/>
      <point x="370" y="351" type="curve" smooth="yes"/>
      <point x="370" y="409"/>
      <point x="428" y="433"/>
      <point x="516" y="433" type="curve" smooth="yes"/>
      <point x="549" y="433"/>
      <point x="583" y="430"/>
      <point x="612" y="422" type="curve"/>
      <point x="594" y="307" type="line"/>
      <point x="557" y="293"/>
      <point x="508" y="279"/>
    </contour>
  </outline>
</glyph>
<glyph name="uni20BA" format="2">
  <advance width="1050"/>
  <unicode hex="20BA"/>
  <outline>
    <contour>
      <point x="77" y="0" type="line"/>
      <point x="479" y="0" type="line" smooth="yes"/>
      <point x="802" y="0"/>
      <point x="1003" y="124"/>
      <point x="1047" y="428" type="curve"/>
      <point x="745" y="428" type="line"/>
      <point x="727" y="289"/>
      <point x="654" y="215"/>
      <point x="501" y="215" type="curve" smooth="yes"/>
      <point x="412" y="215" type="line"/>
      <point x="488" y="700" type="line"/>
      <point x="187" y="700" type="line"/>
    </contour>
    <contour>
      <point x="37" y="313" type="line"/>
      <point x="659" y="557" type="line"/>
      <point x="674" y="651" type="line"/>
      <point x="52" y="407" type="line"/>
    </contour>
    <contour>
      <point x="14" y="168" type="line"/>
      <point x="636" y="412" type="line"/>
      <point x="651" y="506" type="line"/>
      <point x="29" y="262" type="line"/>
    </contour>
  </outline>
</glyph>
<glyph name="uni20BC" format="2">
  <advance width="1050"/>
  <unicode hex="20BC"/>
  <outline>
    <contour>
      <point x="-2" y="0" type="curve"/>
      <point x="264" y="0" type="line"/>
      <point x="302" y="291"/>
      <point x="392" y="455"/>
      <point x="541" y="455" type="curve" smooth="yes"/>
      <point x="668" y="455"/>
      <point x="719" y="385"/>
      <point x="719" y="203" type="curve" smooth="yes"/>
      <point x="719" y="135"/>
      <point x="713" y="53"/>
      <point x="698" y="0" type="curve"/>
      <point x="964" y="0" type="line"/>
      <point x="976" y="52"/>
      <point x="981" y="125"/>
      <point x="981" y="210" type="curve" smooth="yes"/>
      <point x="981" y="508"/>
      <point x="868" y="633"/>
      <point x="574" y="633" type="curve" smooth="yes"/>
      <point x="228" y="633"/>
      <point x="68" y="441"/>
    </contour>
    <contour>
      <point x="398" y="52" type="line"/>
      <point x="583" y="52" type="line"/>
      <point x="687" y="710" type="line"/>
      <point x="502" y="710" type="line"/>
    </contour>
  </outline>
</glyph>
<glyph name="uni20BD" format="2">
  <advance width="1050"/>
  <unicode hex="20BD"/>
  <outline>
    <contour>
      <point x="101" y="0" type="line"/>
      <point x="400" y="0" type="line"/>
      <point x="418" y="116" type="line"/>
      <point x="800" y="116" type="line"/>
      <point x="817" y="230" type="line"/>
      <point x="436" y="230" type="line"/>
      <point x="443" y="269" type="line"/>
      <point x="609" y="269" type="line" smooth="yes"/>
      <point x="903" y="269"/>
      <point x="1040" y="331"/>
      <point x="1040" y="524" type="curve" smooth="yes"/>
      <point x="1040" y="667"/>
      <point x="903" y="710"/>
      <point x="622" y="710" type="curve" smooth="yes"/>
      <point x="593" y="710"/>
      <point x="454" y="707"/>
      <point x="217" y="700" type="curve"/>
      <point x="164" y="383" type="line"/>
      <point x="61" y="383" type="line"/>
      <point x="43" y="269" type="line"/>
      <point x="146" y="269" type="line"/>
      <point x="139" y="230" type="line"/>
      <point x="37" y="230" type="line"/>
      <point x="19" y="116" type="line"/>
      <point x="120" y="116" type="line"/>
    </contour>
    <contour>
      <point x="461" y="383" type="line"/>
      <point x="481" y="511" type="line"/>
      <point x="560" y="515"/>
      <point x="568" y="515"/>
      <point x="600" y="515" type="curve" smooth="yes"/>
      <point x="677" y="515"/>
      <point x="725" y="505"/>
      <point x="725" y="457" type="curve" smooth="yes"/>
      <point x="725" y="402"/>
      <point x="694" y="383"/>
      <point x="574" y="383" type="curve" smooth="yes"/>
    </contour>
  </outline>
</glyph>
<glyph name="uni2113" format="2">
  <advance width="750"/>
  <unicode hex="2113"/>
  <outline>
    <contour>
      <point x="380" y="-10" type="curve" smooth="yes"/>
      <point x="444" y="-10"/>
      <point x="527" y="-4"/>
      <point x="605" y="26" type="curve"/>
      <point x="596" y="191" type="line"/>
      <point x="555" y="175"/>
      <point x="509" y="164"/>
      <point x="473" y="164" type="curve" smooth="yes"/>
      <point x="458" y="164"/>
      <point x="446" y="165"/>
      <point x="434" y="168" type="curve"/>
      <point x="584" y="221"/>
      <point x="707" y="321"/>
      <point x="707" y="507" type="curve" smooth="yes"/>
      <point x="707" y="642"/>
      <point x="623" y="710"/>
      <point x="473" y="710" type="curve" smooth="yes"/>
      <point x="220" y="710"/>
      <point x="122" y="532"/>
      <point x="119" y="284" type="curve"/>
      <point x="100" y="283"/>
      <point x="81" y="282"/>
      <point x="61" y="282" type="curve"/>
      <point x="34" y="121" type="line"/>
      <point x="73" y="115"/>
      <point x="111" y="116"/>
      <point x="147" y="118" type="curve"/>
      <point x="186" y="31"/>
      <point x="265" y="-10"/>
    </contour>
    <contour>
      <point x="380" y="329" type="curve"/>
      <point x="386" y="415"/>
      <point x="407" y="526"/>
      <point x="440" y="526" type="curve" smooth="yes"/>
      <point x="454" y="526"/>
      <point x="464" y="519"/>
      <point x="464" y="494" type="curve" smooth="yes"/>
      <point x="464" y="408"/>
      <point x="434" y="358"/>
    </contour>
  </outline>
</glyph>
<glyph name="uni2117" format="2">
  <advance width="911"/>
  <unicode hex="2117"/>
  <outline>
    <contour>
      <point x="453" y="79" type="curve" smooth="yes"/>
      <point x="268" y="79"/>
      <point x="167" y="169"/>
      <point x="167" y="327" type="curve" smooth="yes"/>
      <point x="167" y="513"/>
      <point x="284" y="621"/>
      <point x="482" y="621" type="curve" smooth="yes"/>
      <point x="667" y="621"/>
      <point x="768" y="531"/>
      <point x="768" y="373" type="curve" smooth="yes"/>
      <point x="768" y="187"/>
      <point x="651" y="79"/>
    </contour>
    <contour>
      <point x="440" y="-10" type="curve" smooth="yes"/>
      <point x="699" y="-13"/>
      <point x="872" y="138"/>
      <point x="872" y="384" type="curve" smooth="yes"/>
      <point x="872" y="576"/>
      <point x="735" y="707"/>
      <point x="495" y="710" type="curve" smooth="yes"/>
      <point x="236" y="713"/>
      <point x="63" y="562"/>
      <point x="63" y="316" type="curve" smooth="yes"/>
      <point x="63" y="124"/>
      <point x="200" y="-7"/>
    </contour>
    <contour>
      <point x="254" y="201" type="line"/>
      <point x="379" y="201" type="line"/>
      <point x="393" y="272" type="line"/>
      <point x="432" y="271"/>
      <point x="444" y="270"/>
      <point x="461" y="270" type="curve" smooth="yes"/>
      <point x="638" y="270"/>
      <point x="694" y="305"/>
      <point x="694" y="397" type="curve" smooth="yes"/>
      <point x="694" y="473"/>
      <point x="652" y="501"/>
      <point x="499" y="501" type="curve" smooth="yes"/>
      <point x="474" y="501"/>
      <point x="402" y="500"/>
      <point x="302" y="497" type="curve"/>
    </contour>
    <contour>
      <point x="492" y="358" type="curve" smooth="yes"/>
      <point x="442" y="358"/>
      <point x="434" y="358"/>
      <point x="407" y="360" type="curve"/>
      <point x="415" y="414" type="line"/>
      <point x="460" y="415"/>
      <point x="464" y="415"/>
      <point x="495" y="415" type="curve" smooth="yes"/>
      <point x="542" y="415"/>
      <point x="563" y="408"/>
      <point x="563" y="389" type="curve" smooth="yes"/>
      <point x="563" y="365"/>
      <point x="546" y="358"/>
    </contour>
  </outline>
</glyph>
<glyph name="uni2199" format="2">
  <advance width="825"/>
  <unicode hex="2199"/>
  <outline>
    <contour>
      <point x="501" y="296" type="line"/>
      <point x="753" y="547" type="line"/>
      <point x="602" y="699" type="line"/>
      <point x="349" y="446" type="line"/>
      <point x="349" y="618" type="line"/>
      <point x="135" y="618" type="line"/>
      <point x="135" y="82" type="line"/>
      <point x="671" y="82" type="line"/>
      <point x="671" y="296" type="line"/>
    </contour>
  </outline>
</glyph>
<glyph name="partialdiff" format="2">
  <advance width="832"/>
  <unicode hex="2202"/>
  <outline>
    <contour>
      <point x="322" y="-10" type="curve" smooth="yes"/>
      <point x="611" y="-10"/>
      <point x="804" y="159"/>
      <point x="804" y="412" type="curve" smooth="yes"/>
      <point x="804" y="606"/>
      <point x="678" y="710"/>
      <point x="442" y="710" type="curve" smooth="yes"/>
      <point x="360" y="710"/>
      <point x="214" y="690"/>
      <point x="161" y="671" type="curve"/>
      <point x="168" y="486" type="line"/>
      <point x="271" y="511"/>
      <point x="319" y="517"/>
      <point x="397" y="517" type="curve" smooth="yes"/>
      <point x="502" y="517"/>
      <point x="572" y="476"/>
      <point x="580" y="418" type="curve" smooth="yes"/>
      <point x="580" y="287"/>
      <point x="478" y="191"/>
      <point x="341" y="191" type="curve" smooth="yes"/>
      <point x="276" y="191"/>
      <point x="263" y="208"/>
      <point x="263" y="227" type="curve" smooth="yes"/>
      <point x="263" y="253"/>
      <point x="286" y="275"/>
      <point x="390" y="275" type="curve" smooth="yes"/>
      <point x="444" y="275"/>
      <point x="527" y="257"/>
      <point x="569" y="243" type="curve"/>
      <point x="615" y="378" type="line"/>
      <point x="570" y="431"/>
      <point x="493" y="457"/>
      <point x="382" y="457" type="curve" smooth="yes"/>
      <point x="160" y="457"/>
      <point x="15" y="353"/>
      <point x="15" y="193" type="curve" smooth="yes"/>
      <point x="15" y="66"/>
      <point x="130" y="-10"/>
    </contour>
  </outline>
</glyph>
<glyph name="summation" format="2">
  <advance width="952"/>
  <unicode hex="2211"/>
  <outline>
    <contour>
      <point x="-21" y="-210" type="line"/>
      <point x="819" y="-210" type="line"/>
      <point x="855" y="10" type="line"/>
      <point x="454" y="10" type="line"/>
      <point x="812" y="183" type="line"/>
      <point x="835" y="322" type="line"/>
      <point x="560" y="480" type="line"/>
      <point x="906" y="480" type="line"/>
      <point x="941" y="700" type="line"/>
      <point x="126" y="700" type="line"/>
      <point x="96" y="516" type="line"/>
      <point x="534" y="252" type="line"/>
      <point x="12" y="-6" type="line"/>
    </contour>
  </outline>
</glyph>
<glyph name="minus" format="2">
  <advance width="742"/>
  <unicode hex="2212"/>
  <outline>
    <contour>
      <point x="51" y="216" type="line"/>
      <point x="671" y="216" type="line"/>
      <point x="705" y="421" type="line"/>
      <point x="85" y="421" type="line"/>
    </contour>
  </outline>
</glyph>
<glyph name="integral" format="2">
  <advance width="607"/>
  <unicode hex="222B"/>
  <outline>
    <contour>
      <point x="96" y="-220" type="curve" smooth="yes"/>
      <point x="246" y="-220"/>
      <point x="319" y="-155"/>
      <point x="350" y="34" type="curve" smooth="yes"/>
      <point x="424" y="493" type="line" smooth="yes"/>
      <point x="432" y="539"/>
      <point x="492" y="543"/>
      <point x="521" y="543" type="curve" smooth="yes"/>
      <point x="571" y="543"/>
      <point x="627" y="533"/>
      <point x="651" y="526" type="curve"/>
      <point x="710" y="717" type="line"/>
      <point x="654" y="737"/>
      <point x="576" y="750"/>
      <point x="500" y="750" type="curve" smooth="yes"/>
      <point x="333" y="750"/>
      <point x="224" y="729"/>
      <point x="190" y="516" type="curve" smooth="yes"/>
      <point x="114" y="46" type="line" smooth="yes"/>
      <point x="109" y="13"/>
      <point x="90" y="3"/>
      <point x="59" y="3" type="curve" smooth="yes"/>
      <point x="34" y="3"/>
      <point x="1" y="8"/>
      <point x="-44" y="17" type="curve"/>
      <point x="-106" y="-185" type="line"/>
      <point x="-66" y="-208"/>
      <point x="9" y="-220"/>
    </contour>
  </outline>
</glyph>
<glyph name="notequal" format="2">
  <advance width="742"/>
  <unicode hex="2260"/>
  <outline>
    <contour>
      <point x="216" y="0" type="line"/>
      <point x="287" y="93" type="line"/>
      <point x="621" y="93" type="line"/>
      <point x="654" y="298" type="line"/>
      <point x="443" y="298" type="line"/>
      <point x="479" y="345" type="line"/>
      <point x="661" y="345" type="line"/>
      <point x="693" y="550" type="line"/>
      <point x="636" y="550" type="line"/>
      <point x="706" y="642" type="line"/>
      <point x="511" y="642" type="line"/>
      <point x="440" y="550" type="line"/>
      <point x="104" y="550" type="line"/>
      <point x="72" y="345" type="line"/>
      <point x="283" y="345" type="line"/>
      <point x="247" y="298" type="line"/>
      <point x="65" y="298" type="line"/>
      <point x="32" y="93" type="line"/>
      <point x="89" y="93" type="line"/>
      <point x="18" y="0" type="line"/>
    </contour>
  </outline>
</glyph>
<glyph name="lessequal" format="2">
  <advance width="743"/>
  <unicode hex="2264"/>
  <outline>
    <contour>
      <point x="670" y="206" type="line"/>
      <point x="704" y="418" type="line"/>
      <point x="353" y="453" type="line"/>
      <point x="716" y="487" type="line"/>
      <point x="751" y="702" type="line"/>
      <point x="105" y="539" type="line"/>
      <point x="76" y="368" type="line"/>
    </contour>
    <contour>
      <point x="16" y="0" type="line"/>
      <point x="636" y="0" type="line"/>
      <point x="670" y="205" type="line"/>
      <point x="50" y="205" type="line"/>
    </contour>
  </outline>
</glyph>
<glyph name="greaterequal" format="2">
  <advance width="743"/>
  <unicode hex="2265"/>
  <outline>
    <contour>
      <point x="697" y="368" type="line"/>
      <point x="726" y="549" type="line"/>
      <point x="132" y="702" type="line"/>
      <point x="98" y="487" type="line"/>
      <point x="447" y="453" type="line"/>
      <point x="85" y="418" type="line"/>
      <point x="51" y="206" type="line"/>
    </contour>
    <contour>
      <point x="671" y="205" type="line"/>
      <point x="51" y="205" type="line"/>
      <point x="16" y="0" type="line"/>
      <point x="637" y="0" type="line"/>
    </contour>
  </outline>
</glyph>
<glyph name="uni25A1" format="2">
  <advance width="694"/>
  <unicode hex="25A1"/>
  <outline>
    <contour>
      <point x="147" y="117" type="line"/>
      <point x="564" y="117" type="line"/>
      <point x="564" y="534" type="line"/>
      <point x="147" y="534" type="line"/>
    </contour>
    <contour>
      <point x="227" y="197" type="line"/>
      <point x="227" y="454" type="line"/>
      <point x="484" y="454" type="line"/>
      <point x="484" y="197" type="line"/>
    </contour>
  </outline>
</glyph>
<glyph name="uni25B6" format="2">
  <advance width="694"/>
  <unicode hex="25B6"/>
  <outline>
    <contour>
      <point x="128" y="94" type="line"/>
      <point x="642" y="328" type="line"/>
      <point x="128" y="563" type="line"/>
    </contour>
  </outline>
</glyph>
<glyph name="uni25B7" format="2">
  <advance width="694"/>
  <unicode hex="25B7"/>
  <outline>
    <contour>
      <point x="128" y="94" type="line"/>
      <point x="642" y="328" type="line"/>
      <point x="128" y="563" type="line"/>
    </contour>
    <contour>
      <point x="208" y="219" type="line"/>
      <point x="208" y="438" type="line"/>
      <point x="449" y="328" type="line"/>
    </contour>
  </outline>
</glyph>
<glyph name="uni25C0" format="2">
  <advance width="694"/>
  <unicode hex="25C0"/>
  <outline>
    <contour>
      <point x="68" y="328" type="line"/>
      <point x="582" y="94" type="line"/>
      <point x="582" y="563" type="line"/>
    </contour>
  </outline>
</glyph>
<glyph name="uni25C7" format="2">
  <advance width="694"/>
  <unicode hex="25C7"/>
  <outline>
    <contour>
      <point x="60" y="328" type="line"/>
      <point x="355" y="33" type="line"/>
      <point x="650" y="328" type="line"/>
      <point x="355" y="623" type="line"/>
    </contour>
    <contour>
      <point x="174" y="328" type="line"/>
      <point x="355" y="509" type="line"/>
      <point x="536" y="328" type="line"/>
      <point x="355" y="147" type="line"/>
    </contour>
  </outline>
</glyph>
<glyph name="lozenge" format="2">
  <advance width="500"/>
  <unicode hex="25CA"/>
  <outline>
    <contour>
      <point x="259" y="464" type="line"/>
      <point x="289" y="349" type="line"/>
      <point x="257" y="236" type="line"/>
      <point x="228" y="349" type="line"/>
    </contour>
    <contour>
      <point x="353" y="700" type="line"/>
      <point x="165" y="700" type="line"/>
      <point x="22" y="345" type="line"/>
      <point x="164" y="0" type="line"/>
      <point x="352" y="0" type="line"/>
      <point x="494" y="345" type="line"/>
    </contour>
  </outline>
</glyph>
<glyph name="uni25CF" format="2">
  <advance width="694"/>
  <unicode hex="25CF"/>
  <outline>
    <contour>
      <point x="115" y="320" type="curve" smooth="yes"/>
      <point x="115" y="188"/>
      <point x="222" y="81"/>
      <point x="354" y="81" type="curve" smooth="yes"/>
      <point x="486" y="81"/>
      <point x="594" y="188"/>
      <point x="594" y="320" type="curve" smooth="yes"/>
      <point x="594" y="452"/>
      <point x="486" y="560"/>
      <point x="354" y="560" type="curve" smooth="yes"/>
      <point x="222" y="560"/>
      <point x="115" y="452"/>
    </contour>
  </outline>
</glyph>
<glyph name="uni2661" format="2">
  <advance width="800"/>
  <unicode hex="2661"/>
  <outline>
    <contour>
      <point x="408" y="0" type="curve"/>
      <point x="450" y="0" type="line"/>
      <point x="514" y="187"/>
      <point x="791" y="238"/>
      <point x="791" y="459" type="curve" smooth="yes"/>
      <point x="791" y="583"/>
      <point x="703" y="650"/>
      <point x="605" y="650" type="curve" smooth="yes"/>
      <point x="533" y="650"/>
      <point x="463" y="614"/>
      <point x="429" y="527" type="curve"/>
      <point x="395" y="614"/>
      <point x="325" y="650"/>
      <point x="253" y="650" type="curve" smooth="yes"/>
      <point x="155" y="650"/>
      <point x="67" y="583"/>
      <point x="67" y="459" type="curve" smooth="yes"/>
      <point x="67" y="238"/>
      <point x="344" y="187"/>
    </contour>
    <contour>
      <point x="430" y="173" type="curve"/>
      <point x="357" y="287"/>
      <point x="211" y="302"/>
      <point x="211" y="431" type="curve" smooth="yes"/>
      <point x="211" y="503"/>
      <point x="256" y="527"/>
      <point x="299" y="527" type="curve" smooth="yes"/>
      <point x="372" y="527"/>
      <point x="402" y="456"/>
      <point x="415" y="385" type="curve"/>
      <point x="443" y="385" type="line"/>
      <point x="456" y="456"/>
      <point x="486" y="527"/>
      <point x="559" y="527" type="curve" smooth="yes"/>
      <point x="602" y="527"/>
      <point x="647" y="503"/>
      <point x="647" y="431" type="curve" smooth="yes"/>
      <point x="647" y="302"/>
      <point x="501" y="287"/>
    </contour>
  </outline>
</glyph>
<glyph name="uni2783" format="2">
  <advance width="917"/>
  <unicode hex="2783"/>
  <outline>
    <contour>
      <point x="207" y="224" type="line"/>
      <point x="476" y="224" type="line"/>
      <point x="476" y="184" type="line"/>
      <point x="669" y="184" type="line"/>
      <point x="669" y="224" type="line"/>
      <point x="723" y="224" type="line"/>
      <point x="723" y="319" type="line"/>
      <point x="669" y="319" type="line"/>
      <point x="669" y="519" type="line"/>
      <point x="550" y="519" type="line"/>
      <point x="207" y="299" type="line"/>
    </contour>
    <contour>
      <point x="391" y="319" type="line"/>
      <point x="476" y="373" type="line"/>
      <point x="476" y="319" type="line"/>
    </contour>
    <contour>
      <point x="67" y="348" type="curve" smooth="yes"/>
      <point x="67" y="139"/>
      <point x="214" y="-10"/>
      <point x="470" y="-10" type="curve" smooth="yes"/>
      <point x="726" y="-10"/>
      <point x="873" y="139"/>
      <point x="873" y="348" type="curve" smooth="yes"/>
      <point x="873" y="559"/>
      <point x="723" y="710"/>
      <point x="470" y="710" type="curve" smooth="yes"/>
      <point x="217" y="710"/>
      <point x="67" y="559"/>
    </contour>
    <contour>
      <point x="173" y="348" type="curve" smooth="yes"/>
      <point x="173" y="509"/>
      <point x="272" y="614"/>
      <point x="470" y="614" type="curve" smooth="yes"/>
      <point x="668" y="614"/>
      <point x="767" y="509"/>
      <point x="767" y="348" type="curve" smooth="yes"/>
      <point x="767" y="189"/>
      <point x="669" y="79"/>
      <point x="470" y="79" type="curve" smooth="yes"/>
      <point x="271" y="79"/>
      <point x="173" y="189"/>
    </contour>
  </outline>
</glyph>
<glyph name="uni2784" format="2">
  <advance width="917"/>
  <unicode hex="2784"/>
  <outline>
    <contour>
      <point x="234" y="197" type="line"/>
      <point x="302" y="178"/>
      <point x="378" y="173"/>
      <point x="453" y="173" type="curve" smooth="yes"/>
      <point x="602" y="173"/>
      <point x="705" y="211"/>
      <point x="705" y="289" type="curve" smooth="yes"/>
      <point x="705" y="386"/>
      <point x="614" y="401"/>
      <point x="460" y="401" type="curve" smooth="yes"/>
      <point x="394" y="401" type="line"/>
      <point x="396" y="413" type="line"/>
      <point x="674" y="413" type="line"/>
      <point x="674" y="524" type="line"/>
      <point x="291" y="524" type="line"/>
      <point x="256" y="323" type="line"/>
      <point x="262" y="312" type="line"/>
      <point x="401" y="312" type="line" smooth="yes"/>
      <point x="515" y="312"/>
      <point x="522" y="303"/>
      <point x="522" y="294" type="curve" smooth="yes"/>
      <point x="522" y="282"/>
      <point x="503" y="279"/>
      <point x="422" y="279" type="curve" smooth="yes"/>
      <point x="339" y="279"/>
      <point x="306" y="289"/>
      <point x="262" y="296" type="curve"/>
    </contour>
    <contour>
      <point x="67" y="348" type="curve" smooth="yes"/>
      <point x="67" y="139"/>
      <point x="214" y="-10"/>
      <point x="470" y="-10" type="curve" smooth="yes"/>
      <point x="726" y="-10"/>
      <point x="873" y="139"/>
      <point x="873" y="348" type="curve" smooth="yes"/>
      <point x="873" y="559"/>
      <point x="723" y="710"/>
      <point x="470" y="710" type="curve" smooth="yes"/>
      <point x="217" y="710"/>
      <point x="67" y="559"/>
    </contour>
    <contour>
      <point x="173" y="348" type="curve" smooth="yes"/>
      <point x="173" y="509"/>
      <point x="272" y="614"/>
      <point x="470" y="614" type="curve" smooth="yes"/>
      <point x="668" y="614"/>
      <point x="767" y="509"/>
      <point x="767" y="348" type="curve" smooth="yes"/>
      <point x="767" y="189"/>
      <point x="669" y="79"/>
      <point x="470" y="79" type="curve" smooth="yes"/>
      <point x="271" y="79"/>
      <point x="173" y="189"/>
    </contour>
  </outline>
</glyph>
<glyph name="uni2786" format="2">
  <advance width="917"/>
  <unicode hex="2786"/>
  <outline>
    <contour>
      <point x="316" y="184" type="curve"/>
      <point x="503" y="184" type="line"/>
      <point x="507" y="219"/>
      <point x="523" y="261"/>
      <point x="587" y="323" type="curve" smooth="yes"/>
      <point x="691" y="425" type="line"/>
      <point x="691" y="516" type="line"/>
      <point x="245" y="516" type="line"/>
      <point x="245" y="405" type="line"/>
      <point x="480" y="405" type="line"/>
      <point x="399" y="333" type="line" smooth="yes"/>
      <point x="343" y="284"/>
      <point x="316" y="232"/>
    </contour>
    <contour>
      <point x="470" y="-10" type="curve" smooth="yes"/>
      <point x="726" y="-10"/>
      <point x="873" y="139"/>
      <point x="873" y="348" type="curve" smooth="yes"/>
      <point x="873" y="559"/>
      <point x="723" y="710"/>
      <point x="470" y="710" type="curve" smooth="yes"/>
      <point x="217" y="710"/>
      <point x="67" y="559"/>
      <point x="67" y="348" type="curve" smooth="yes"/>
      <point x="67" y="139"/>
      <point x="214" y="-10"/>
    </contour>
    <contour>
      <point x="470" y="614" type="curve" smooth="yes"/>
      <point x="668" y="614"/>
      <point x="767" y="509"/>
      <point x="767" y="348" type="curve" smooth="yes"/>
      <point x="767" y="189"/>
      <point x="669" y="79"/>
      <point x="470" y="79" type="curve" smooth="yes"/>
      <point x="271" y="79"/>
      <point x="173" y="189"/>
      <point x="173" y="348" type="curve" smooth="yes"/>
      <point x="173" y="509"/>
      <point x="272" y="614"/>
    </contour>
  </outline>
</glyph>
<glyph name="uni278A" format="2">
  <advance width="917"/>
  <unicode hex="278A"/>
  <outline>
    <contour>
      <point x="470" y="-10" type="curve" smooth="yes"/>
      <point x="726" y="-10"/>
      <point x="873" y="139"/>
      <point x="873" y="348" type="curve" smooth="yes"/>
      <point x="873" y="559"/>
      <point x="723" y="710"/>
      <point x="470" y="710" type="curve" smooth="yes"/>
      <point x="217" y="710"/>
      <point x="67" y="559"/>
      <point x="67" y="348" type="curve" smooth="yes"/>
      <point x="67" y="139"/>
      <point x="214" y="-10"/>
    </contour>
    <contour>
      <point x="276" y="184" type="line"/>
      <point x="276" y="295" type="line"/>
      <point x="384" y="295" type="line"/>
      <point x="384" y="351" type="line"/>
      <point x="284" y="324" type="line"/>
      <point x="238" y="444" type="line"/>
      <point x="481" y="519" type="line"/>
      <point x="576" y="519" type="line"/>
      <point x="576" y="295" type="line"/>
      <point x="674" y="295" type="line"/>
      <point x="674" y="184" type="line"/>
    </contour>
  </outline>
</glyph>
<glyph name="uni278B" format="2">
  <advance width="917"/>
  <unicode hex="278B"/>
  <outline>
    <contour>
      <point x="470" y="-10" type="curve" smooth="yes"/>
      <point x="726" y="-10"/>
      <point x="873" y="139"/>
      <point x="873" y="348" type="curve" smooth="yes"/>
      <point x="873" y="559"/>
      <point x="723" y="710"/>
      <point x="470" y="710" type="curve" smooth="yes"/>
      <point x="217" y="710"/>
      <point x="67" y="559"/>
      <point x="67" y="348" type="curve" smooth="yes"/>
      <point x="67" y="139"/>
      <point x="214" y="-10"/>
    </contour>
    <contour>
      <point x="258" y="184" type="line"/>
      <point x="258" y="278" type="line"/>
      <point x="403" y="316"/>
      <point x="455" y="341"/>
      <point x="455" y="373" type="curve" smooth="yes"/>
      <point x="455" y="392"/>
      <point x="435" y="405"/>
      <point x="406" y="405" type="curve" smooth="yes"/>
      <point x="369" y="405"/>
      <point x="340" y="393"/>
      <point x="295" y="376" type="curve"/>
      <point x="258" y="483" type="line"/>
      <point x="303" y="508"/>
      <point x="390" y="527"/>
      <point x="455" y="527" type="curve" smooth="yes"/>
      <point x="570" y="527"/>
      <point x="649" y="477"/>
      <point x="649" y="402" type="curve" smooth="yes"/>
      <point x="649" y="356"/>
      <point x="626" y="327"/>
      <point x="562" y="297" type="curve"/>
      <point x="695" y="297" type="line"/>
      <point x="695" y="184" type="line"/>
    </contour>
  </outline>
</glyph>
<glyph name="uni278E" format="2">
  <advance width="917"/>
  <unicode hex="278E"/>
  <outline>
    <contour>
      <point x="470" y="-10" type="curve" smooth="yes"/>
      <point x="726" y="-10"/>
      <point x="873" y="139"/>
      <point x="873" y="348" type="curve" smooth="yes"/>
      <point x="873" y="559"/>
      <point x="723" y="710"/>
      <point x="470" y="710" type="curve" smooth="yes"/>
      <point x="217" y="710"/>
      <point x="67" y="559"/>
      <point x="67" y="348" type="curve" smooth="yes"/>
      <point x="67" y="139"/>
      <point x="214" y="-10"/>
    </contour>
    <contour>
      <point x="453" y="173" type="curve" smooth="yes"/>
      <point x="378" y="173"/>
      <point x="302" y="178"/>
      <point x="234" y="197" type="curve"/>
      <point x="262" y="296" type="line"/>
      <point x="306" y="289"/>
      <point x="339" y="279"/>
      <point x="422" y="279" type="curve" smooth="yes"/>
      <point x="503" y="279"/>
      <point x="522" y="282"/>
      <point x="522" y="294" type="curve" smooth="yes"/>
      <point x="522" y="303"/>
      <point x="515" y="312"/>
      <point x="401" y="312" type="curve" smooth="yes"/>
      <point x="262" y="312" type="line"/>
      <point x="256" y="323" type="line"/>
      <point x="291" y="524" type="line"/>
      <point x="674" y="524" type="line"/>
      <point x="674" y="413" type="line"/>
      <point x="396" y="413" type="line"/>
      <point x="394" y="401" type="line"/>
      <point x="460" y="401" type="line" smooth="yes"/>
      <point x="614" y="401"/>
      <point x="705" y="386"/>
      <point x="705" y="289" type="curve" smooth="yes"/>
      <point x="705" y="211"/>
      <point x="602" y="173"/>
    </contour>
  </outline>
</glyph>
<glyph name="uni278F" format="2">
  <advance width="917"/>
  <unicode hex="278F"/>
  <outline>
    <contour>
      <point x="470" y="-10" type="curve" smooth="yes"/>
      <point x="726" y="-10"/>
      <point x="873" y="139"/>
      <point x="873" y="348" type="curve" smooth="yes"/>
      <point x="873" y="559"/>
      <point x="723" y="710"/>
      <point x="470" y="710" type="curve" smooth="yes"/>
      <point x="217" y="710"/>
      <point x="67" y="559"/>
      <point x="67" y="348" type="curve" smooth="yes"/>
      <point x="67" y="139"/>
      <point x="214" y="-10"/>
    </contour>
    <contour>
      <point x="471" y="272" type="curve" smooth="yes"/>
      <point x="527" y="272"/>
      <point x="534" y="278"/>
      <point x="534" y="285" type="curve" smooth="yes"/>
      <point x="534" y="293"/>
      <point x="534" y="298"/>
      <point x="456" y="298" type="curve" smooth="yes"/>
      <point x="436" y="298"/>
      <point x="412" y="298"/>
      <point x="390" y="296" type="curve"/>
      <point x="406" y="279"/>
      <point x="428" y="272"/>
    </contour>
    <contour>
      <point x="471" y="171" type="curve" smooth="yes"/>
      <point x="305" y="171"/>
      <point x="210" y="222"/>
      <point x="210" y="336" type="curve" smooth="yes"/>
      <point x="210" y="460"/>
      <point x="311" y="525"/>
      <point x="486" y="525" type="curve" smooth="yes"/>
      <point x="592" y="525"/>
      <point x="651" y="515"/>
      <point x="696" y="501" type="curve"/>
      <point x="671" y="399" type="line"/>
      <point x="615" y="412"/>
      <point x="592" y="417"/>
      <point x="529" y="417" type="curve" smooth="yes"/>
      <point x="453" y="417"/>
      <point x="421" y="402"/>
      <point x="399" y="386" type="curve"/>
      <point x="444" y="398"/>
      <point x="479" y="399"/>
      <point x="528" y="399" type="curve" smooth="yes"/>
      <point x="659" y="399"/>
      <point x="719" y="363"/>
      <point x="719" y="296" type="curve" smooth="yes"/>
      <point x="719" y="217"/>
      <point x="663" y="171"/>
    </contour>
  </outline>
</glyph>
<glyph name="uni2793" format="2">
  <advance width="917"/>
  <unicode hex="2793"/>
  <outline>
    <contour>
      <point x="470" y="-10" type="curve" smooth="yes"/>
      <point x="726" y="-10"/>
      <point x="873" y="139"/>
      <point x="873" y="348" type="curve" smooth="yes"/>
      <point x="873" y="559"/>
      <point x="723" y="710"/>
      <point x="470" y="710" type="curve" smooth="yes"/>
      <point x="217" y="710"/>
      <point x="67" y="559"/>
      <point x="67" y="348" type="curve" smooth="yes"/>
      <point x="67" y="139"/>
      <point x="214" y="-10"/>
    </contour>
    <contour>
      <point x="233" y="184" type="line"/>
      <point x="233" y="295" type="line"/>
      <point x="293" y="295" type="line"/>
      <point x="293" y="351" type="line"/>
      <point x="237" y="324" type="line"/>
      <point x="211" y="444" type="line"/>
      <point x="348" y="519" type="line"/>
      <point x="401" y="519" type="line"/>
      <point x="401" y="295" type="line"/>
      <point x="456" y="295" type="line"/>
      <point x="456" y="184" type="line"/>
    </contour>
    <contour>
      <point x="603" y="171" type="curve" smooth="yes"/>
      <point x="523" y="171"/>
      <point x="459" y="210"/>
      <point x="459" y="347" type="curve" smooth="yes"/>
      <point x="459" y="487"/>
      <point x="523" y="525"/>
      <point x="603" y="525" type="curve" smooth="yes"/>
      <point x="683" y="525"/>
      <point x="746" y="487"/>
      <point x="746" y="347" type="curve" smooth="yes"/>
      <point x="746" y="210"/>
      <point x="683" y="171"/>
    </contour>
    <contour>
      <point x="597" y="271" type="curve" smooth="yes"/>
      <point x="619" y="271"/>
      <point x="631" y="288"/>
      <point x="631" y="347" type="curve" smooth="yes"/>
      <point x="631" y="409"/>
      <point x="619" y="426"/>
      <point x="597" y="426" type="curve" smooth="yes"/>
      <point x="575" y="426"/>
      <point x="562" y="409"/>
      <point x="562" y="347" type="curve" smooth="yes"/>
      <point x="562" y="288"/>
      <point x="575" y="271"/>
    </contour>
  </outline>
</glyph>
<glyph name="uni27F7" format="2">
  <advance width="1464"/>
  <unicode hex="27F7"/>
  <outline>
    <contour>
      <point x="393" y="-29" type="line"/>
      <point x="544" y="123" type="line"/>
      <point x="422" y="244" type="line"/>
      <point x="1042" y="244" type="line"/>
      <point x="920" y="123" type="line"/>
      <point x="1071" y="-29" type="line"/>
      <point x="1450" y="350" type="line"/>
      <point x="1071" y="729" type="line"/>
      <point x="920" y="578" type="line"/>
      <point x="1040" y="458" type="line"/>
      <point x="424" y="458" type="line"/>
      <point x="544" y="578" type="line"/>
      <point x="393" y="729" type="line"/>
      <point x="14" y="350" type="line"/>
    </contour>
  </outline>
</glyph>
<glyph name="fi" format="2">
  <advance width="952"/>
  <unicode hex="FB01"/>
  <outline>
    <contour>
      <point x="88" y="-220" type="curve" smooth="yes"/>
      <point x="219" y="-220"/>
      <point x="326" y="-141"/>
      <point x="350" y="3" type="curve" smooth="yes"/>
      <point x="400" y="305" type="line"/>
      <point x="617" y="305" type="line"/>
      <point x="569" y="0" type="line"/>
      <point x="850" y="0" type="line"/>
      <point x="927" y="484" type="line"/>
      <point x="428" y="484" type="line"/>
      <point x="437" y="539"/>
      <point x="484" y="560"/>
      <point x="584" y="560" type="curve" smooth="yes"/>
      <point x="642" y="560"/>
      <point x="718" y="551"/>
      <point x="887" y="514" type="curve"/>
      <point x="940" y="696" type="line"/>
      <point x="724" y="745"/>
      <point x="656" y="750"/>
      <point x="550" y="750" type="curve" smooth="yes"/>
      <point x="339" y="750"/>
      <point x="186" y="682"/>
      <point x="153" y="484" type="curve"/>
      <point x="53" y="464" type="line"/>
      <point x="27" y="305" type="line"/>
      <point x="122" y="305" type="line"/>
      <point x="75" y="19" type="line" smooth="yes"/>
      <point x="71" y="-6"/>
      <point x="43" y="-12"/>
      <point x="23" y="-12" type="curve" smooth="yes"/>
      <point x="10" y="-12"/>
      <point x="-2" y="-9"/>
      <point x="-6" y="-7" type="curve"/>
      <point x="-56" y="-190" type="line"/>
      <point x="-7" y="-210"/>
      <point x="42" y="-220"/>
    </contour>
  </outline>
</glyph>
<glyph name="fl" format="2">
  <advance width="1102"/>
  <unicode hex="FB02"/>
  <outline>
    <contour>
      <point x="88" y="-220" type="curve" smooth="yes"/>
      <point x="219" y="-220"/>
      <point x="326" y="-141"/>
      <point x="350" y="3" type="curve" smooth="yes"/>
      <point x="400" y="305" type="line"/>
      <point x="571" y="305" type="line"/>
      <point x="600" y="484" type="line"/>
      <point x="428" y="484" type="line"/>
      <point x="437" y="539"/>
      <point x="484" y="559"/>
      <point x="568" y="559" type="curve" smooth="yes"/>
      <point x="608" y="559"/>
      <point x="648" y="555"/>
      <point x="693" y="548" type="curve"/>
      <point x="642" y="244" type="line" smooth="yes"/>
      <point x="636" y="210"/>
      <point x="633" y="180"/>
      <point x="633" y="153" type="curve" smooth="yes"/>
      <point x="633" y="34"/>
      <point x="693" y="-10"/>
      <point x="817" y="-10" type="curve" smooth="yes"/>
      <point x="904" y="-10"/>
      <point x="988" y="4"/>
      <point x="1066" y="25" type="curve"/>
      <point x="1066" y="227" type="line"/>
      <point x="1019" y="218"/>
      <point x="993" y="213"/>
      <point x="966" y="213" type="curve" smooth="yes"/>
      <point x="940" y="213"/>
      <point x="924" y="220"/>
      <point x="924" y="239" type="curve" smooth="yes"/>
      <point x="924" y="245"/>
      <point x="925" y="251"/>
      <point x="926" y="256" type="curve" smooth="yes"/>
      <point x="1002" y="716" type="line"/>
      <point x="920" y="730"/>
      <point x="691" y="750"/>
      <point x="546" y="750" type="curve" smooth="yes"/>
      <point x="339" y="750"/>
      <point x="186" y="682"/>
      <point x="153" y="484" type="curve"/>
      <point x="53" y="464" type="line"/>
      <point x="27" y="305" type="line"/>
      <point x="122" y="305" type="line"/>
      <point x="75" y="19" type="line" smooth="yes"/>
      <point x="71" y="-6"/>
      <point x="43" y="-12"/>
      <point x="23" y="-12" type="curve" smooth="yes"/>
      <point x="10" y="-12"/>
      <point x="-2" y="-9"/>
      <point x="-6" y="-7" type="curve"/>
      <point x="-56" y="-190" type="line"/>
      <point x="-7" y="-210"/>
      <point x="42" y="-220"/>
    </contour>
  </outline>
</glyph>
<glyph name="a.sc" format="2">
  <advance width="999"/>
  <anchor x="456.444" y="0" name="bottom"/>
  <anchor x="949" y="0" name="ogonek"/>
  <anchor x="550" y="625" name="top"/>
  <outline>
    <contour>
      <point x="-38" y="0" type="line"/>
      <point x="289" y="0" type="line"/>
      <point x="332" y="91" type="line"/>
      <point x="611" y="91" type="line"/>
      <point x="631" y="0" type="line"/>
      <point x="949" y="0" type="line"/>
      <point x="713" y="635" type="line"/>
      <point x="394" y="635" type="line"/>
    </contour>
    <contour>
      <point x="434" y="263" type="line"/>
      <point x="526" y="425" type="line"/>
      <point x="565" y="263" type="line"/>
    </contour>
  </outline>
</glyph>
<glyph name="a.superior" format="2">
  <advance width="583"/>
  <outline>
    <contour>
      <point x="588" y="668" type="curve"/>
      <point x="546" y="682"/>
      <point x="451" y="692"/>
      <point x="366" y="692" type="curve" smooth="yes"/>
      <point x="151" y="692"/>
      <point x="67" y="623"/>
      <point x="67" y="501" type="curve" smooth="yes"/>
      <point x="67" y="416"/>
      <point x="131" y="364"/>
      <point x="217" y="364" type="curve" smooth="yes"/>
      <point x="267" y="364"/>
      <point x="308" y="372"/>
      <point x="359" y="402" type="curve"/>
      <point x="390" y="367"/>
      <point x="433" y="364"/>
      <point x="481" y="364" type="curve" smooth="yes"/>
      <point x="513" y="364"/>
      <point x="562" y="368"/>
      <point x="584" y="371" type="curve"/>
      <point x="584" y="488" type="line"/>
      <point x="576" y="487"/>
      <point x="574" y="487"/>
      <point x="571" y="487" type="curve" smooth="yes"/>
      <point x="562" y="487"/>
      <point x="560" y="491"/>
      <point x="560" y="496" type="curve" smooth="yes"/>
      <point x="560" y="502"/>
      <point x="564" y="514"/>
    </contour>
    <contour>
      <point x="249" y="533" type="curve" smooth="yes"/>
      <point x="249" y="569"/>
      <point x="279" y="583"/>
      <point x="323" y="583" type="curve" smooth="yes"/>
      <point x="346" y="583"/>
      <point x="356" y="582"/>
      <point x="370" y="579" type="curve"/>
      <point x="360" y="507" type="line"/>
      <point x="337" y="495"/>
      <point x="315" y="493"/>
      <point x="300" y="493" type="curve" smooth="yes"/>
      <point x="270" y="493"/>
      <point x="249" y="505"/>
    </contour>
  </outline>
</glyph>
<glyph name="acutecomb.case" format="2">
  <anchor x="-486" y="700" name="_top"/>
  <anchor x="-377" y="940" name="top"/>
  <outline>
    <contour>
      <point x="-590" y="746" type="line"/>
      <point x="-383" y="746" type="line"/>
      <point x="-195" y="940" type="line"/>
      <point x="-462" y="940" type="line"/>
    </contour>
  </outline>
</glyph>
<glyph name="ae.sc" format="2">
  <advance width="1485"/>
  <anchor x="699.444" y="0" name="bottom"/>
  <anchor x="877" y="625" name="top"/>
  <outline>
    <contour>
      <point x="608" y="0" type="line"/>
      <point x="1407" y="0" type="line"/>
      <point x="1435" y="182" type="line"/>
      <point x="927" y="182" type="line"/>
      <point x="935" y="228" type="line"/>
      <point x="1383" y="228" type="line"/>
      <point x="1411" y="395" type="line"/>
      <point x="957" y="395" type="line"/>
      <point x="965" y="443" type="line"/>
      <point x="1447" y="443" type="line"/>
      <point x="1480" y="625" type="line"/>
      <point x="576" y="625" type="line"/>
      <point x="-38" y="0" type="line"/>
      <point x="291" y="0" type="line"/>
      <point x="413" y="135" type="line"/>
      <point x="630" y="135" type="line"/>
    </contour>
    <contour>
      <point x="678" y="431" type="line"/>
      <point x="657" y="305" type="line"/>
      <point x="559" y="305" type="line"/>
    </contour>
  </outline>
</glyph>
<glyph name="at.sc" format="2">
  <advance width="821"/>
  <outline>
    <contour>
      <point x="343" y="-15" type="curve" smooth="yes"/>
      <point x="387" y="-15"/>
      <point x="435" y="-13"/>
      <point x="512" y="8" type="curve"/>
      <point x="505" y="99" type="line"/>
      <point x="457" y="88"/>
      <point x="404" y="80"/>
      <point x="352" y="80" type="curve" smooth="yes"/>
      <point x="239" y="80"/>
      <point x="132" y="125"/>
      <point x="132" y="254" type="curve" smooth="yes"/>
      <point x="132" y="457"/>
      <point x="309" y="545"/>
      <point x="457" y="545" type="curve" smooth="yes"/>
      <point x="609" y="545"/>
      <point x="702" y="487"/>
      <point x="702" y="356" type="curve" smooth="yes"/>
      <point x="702" y="279"/>
      <point x="660" y="210"/>
      <point x="627" y="210" type="curve" smooth="yes"/>
      <point x="602" y="210"/>
      <point x="594" y="230"/>
      <point x="601" y="262" type="curve" smooth="yes"/>
      <point x="644" y="457" type="line"/>
      <point x="578" y="481"/>
      <point x="495" y="493"/>
      <point x="449" y="493" type="curve" smooth="yes"/>
      <point x="326" y="493"/>
      <point x="173" y="426"/>
      <point x="173" y="245" type="curve" smooth="yes"/>
      <point x="173" y="168"/>
      <point x="225" y="121"/>
      <point x="314" y="121" type="curve" smooth="yes"/>
      <point x="378" y="121"/>
      <point x="437" y="143"/>
      <point x="470" y="187" type="curve"/>
      <point x="494" y="132"/>
      <point x="540" y="111"/>
      <point x="596" y="111" type="curve" smooth="yes"/>
      <point x="729" y="111"/>
      <point x="802" y="249"/>
      <point x="802" y="362" type="curve" smooth="yes"/>
      <point x="802" y="539"/>
      <point x="680" y="634"/>
      <point x="477" y="634" type="curve" smooth="yes"/>
      <point x="219" y="634"/>
      <point x="31" y="475"/>
      <point x="31" y="249" type="curve" smooth="yes"/>
      <point x="31" y="81"/>
      <point x="158" y="-15"/>
    </contour>
    <contour>
      <point x="386" y="231" type="curve" smooth="yes"/>
      <point x="347" y="231"/>
      <point x="329" y="250"/>
      <point x="329" y="286" type="curve" smooth="yes"/>
      <point x="329" y="342"/>
      <point x="369" y="385"/>
      <point x="423" y="385" type="curve" smooth="yes"/>
      <point x="448" y="385"/>
      <point x="463" y="384"/>
      <point x="485" y="375" type="curve"/>
      <point x="463" y="282" type="line"/>
      <point x="449" y="260"/>
      <point x="419" y="231"/>
    </contour>
  </outline>
</glyph>
<glyph name="braceleft.sc" format="2">
  <advance width="500"/>
  <outline>
    <contour>
      <point x="53" y="22" type="curve" smooth="yes"/>
      <point x="53" y="-70"/>
      <point x="130" y="-106"/>
      <point x="224" y="-106" type="curve" smooth="yes"/>
      <point x="380" y="-106" type="line"/>
      <point x="403" y="33" type="line"/>
      <point x="328" y="33" type="line" smooth="yes"/>
      <point x="299" y="33"/>
      <point x="286" y="47"/>
      <point x="286" y="69" type="curve" smooth="yes"/>
      <point x="286" y="126"/>
      <point x="338" y="161"/>
      <point x="338" y="226" type="curve" smooth="yes"/>
      <point x="338" y="258"/>
      <point x="329" y="287"/>
      <point x="274" y="313" type="curve"/>
      <point x="339" y="342"/>
      <point x="373" y="378"/>
      <point x="373" y="440" type="curve" smooth="yes"/>
      <point x="373" y="475"/>
      <point x="361" y="486"/>
      <point x="361" y="534" type="curve" smooth="yes"/>
      <point x="361" y="569"/>
      <point x="384" y="592"/>
      <point x="418" y="592" type="curve" smooth="yes"/>
      <point x="492" y="592" type="line"/>
      <point x="515" y="730" type="line"/>
      <point x="358" y="730" type="line" smooth="yes"/>
      <point x="230" y="730"/>
      <point x="138" y="662"/>
      <point x="138" y="536" type="curve" smooth="yes"/>
      <point x="138" y="488"/>
      <point x="154" y="462"/>
      <point x="154" y="435" type="curve" smooth="yes"/>
      <point x="154" y="399"/>
      <point x="133" y="382"/>
      <point x="103" y="382" type="curve" smooth="yes"/>
      <point x="89" y="382" type="line"/>
      <point x="66" y="243" type="line"/>
      <point x="81" y="243" type="line" smooth="yes"/>
      <point x="109" y="243"/>
      <point x="119" y="234"/>
      <point x="119" y="214" type="curve" smooth="yes"/>
      <point x="119" y="167"/>
      <point x="53" y="109"/>
    </contour>
  </outline>
</glyph>
<glyph name="braceright.sc" format="2">
  <advance width="500"/>
  <outline>
    <contour>
      <point x="459" y="602" type="curve" smooth="yes"/>
      <point x="459" y="694"/>
      <point x="382" y="730"/>
      <point x="288" y="730" type="curve" smooth="yes"/>
      <point x="132" y="730" type="line"/>
      <point x="109" y="591" type="line"/>
      <point x="184" y="591" type="line" smooth="yes"/>
      <point x="213" y="591"/>
      <point x="226" y="577"/>
      <point x="226" y="555" type="curve" smooth="yes"/>
      <point x="226" y="498"/>
      <point x="174" y="463"/>
      <point x="174" y="398" type="curve" smooth="yes"/>
      <point x="174" y="366"/>
      <point x="183" y="337"/>
      <point x="238" y="311" type="curve"/>
      <point x="173" y="282"/>
      <point x="139" y="246"/>
      <point x="139" y="184" type="curve" smooth="yes"/>
      <point x="139" y="149"/>
      <point x="151" y="138"/>
      <point x="151" y="90" type="curve" smooth="yes"/>
      <point x="151" y="55"/>
      <point x="128" y="32"/>
      <point x="94" y="32" type="curve" smooth="yes"/>
      <point x="20" y="32" type="line"/>
      <point x="-3" y="-106" type="line"/>
      <point x="154" y="-106" type="line" smooth="yes"/>
      <point x="282" y="-106"/>
      <point x="374" y="-38"/>
      <point x="374" y="88" type="curve" smooth="yes"/>
      <point x="374" y="136"/>
      <point x="358" y="162"/>
      <point x="358" y="189" type="curve" smooth="yes"/>
      <point x="358" y="225"/>
      <point x="379" y="242"/>
      <point x="409" y="242" type="curve" smooth="yes"/>
      <point x="423" y="242" type="line"/>
      <point x="446" y="381" type="line"/>
      <point x="431" y="381" type="line" smooth="yes"/>
      <point x="403" y="381"/>
      <point x="393" y="390"/>
      <point x="393" y="410" type="curve" smooth="yes"/>
      <point x="393" y="457"/>
      <point x="459" y="515"/>
    </contour>
  </outline>
</glyph>
<glyph name="bracketright.sc" format="2">
  <advance width="500"/>
  <outline>
    <contour>
      <point x="19" y="32" type="line"/>
      <point x="-5" y="-126" type="line"/>
      <point x="376" y="-126" type="line"/>
      <point x="515" y="750" type="line"/>
      <point x="133" y="750" type="line"/>
      <point x="108" y="592" type="line"/>
      <point x="283" y="592" type="line"/>
      <point x="194" y="32" type="line"/>
    </contour>
  </outline>
</glyph>
<glyph name="commasuperior" format="2">
  <advance width="265"/>
  <outline>
    <contour>
      <point x="94" y="433" type="line"/>
      <point x="93" y="421"/>
      <point x="91" y="408"/>
      <point x="88" y="395" type="curve" smooth="yes"/>
      <point x="80" y="352"/>
      <point x="65" y="310"/>
      <point x="30" y="269" type="curve"/>
      <point x="150" y="256" type="line"/>
      <point x="198" y="300"/>
      <point x="238" y="353"/>
      <point x="238" y="416" type="curve" smooth="yes"/>
      <point x="238" y="422"/>
      <point x="237" y="428"/>
      <point x="235" y="434" type="curve"/>
    </contour>
  </outline>
</glyph>
<glyph name="dcroat.sc" format="2">
  <advance width="1105"/>
  <outline>
    <contour>
      <point x="12" y="220" type="line"/>
      <point x="534" y="220" type="line"/>
      <point x="567" y="408" type="line"/>
      <point x="40" y="408" type="line"/>
    </contour>
    <component base="d.sc"/>
  </outline>
</glyph>
<glyph name="dividesuperior" format="2">
  <advance width="477"/>
  <outline>
    <contour>
      <point x="192" y="404" type="curve" smooth="yes"/>
      <point x="192" y="378"/>
      <point x="210" y="364"/>
      <point x="252" y="364" type="curve" smooth="yes"/>
      <point x="294" y="364"/>
      <point x="327" y="380"/>
      <point x="327" y="426" type="curve" smooth="yes"/>
      <point x="327" y="452"/>
      <point x="310" y="465"/>
      <point x="268" y="465" type="curve" smooth="yes"/>
      <point x="227" y="465"/>
      <point x="192" y="448"/>
    </contour>
    <contour>
      <point x="238" y="678" type="curve" smooth="yes"/>
      <point x="238" y="653"/>
      <point x="255" y="640"/>
      <point x="297" y="640" type="curve" smooth="yes"/>
      <point x="340" y="640"/>
      <point x="372" y="657"/>
      <point x="372" y="702" type="curve" smooth="yes"/>
      <point x="372" y="727"/>
      <point x="355" y="740"/>
      <point x="313" y="740" type="curve" smooth="yes"/>
      <point x="271" y="740"/>
      <point x="238" y="723"/>
    </contour>
    <contour>
      <point x="96" y="493" type="line"/>
      <point x="449" y="493" type="line"/>
      <point x="469" y="610" type="line"/>
      <point x="116" y="610" type="line"/>
    </contour>
  </outline>
</glyph>
<glyph name="dollar.tosf" format="2">
  <advance width="1050"/>
  <outline>
    <contour>
      <point x="675" y="560" type="curve"/>
      <point x="692" y="655" type="line"/>
      <point x="505" y="655" type="line"/>
      <point x="488" y="555" type="line"/>
      <point x="179" y="546"/>
      <point x="74" y="500"/>
      <point x="74" y="350" type="curve" smooth="yes"/>
      <point x="74" y="130"/>
      <point x="681" y="208"/>
      <point x="681" y="161" type="curve" smooth="yes"/>
      <point x="681" y="151"/>
      <point x="667" y="145"/>
      <point x="569" y="145" type="curve" smooth="yes"/>
      <point x="415" y="145"/>
      <point x="181" y="167"/>
      <point x="56" y="201" type="curve"/>
      <point x="5" y="31" type="line"/>
      <point x="91" y="10"/>
      <point x="186" y="-2"/>
      <point x="386" y="-7" type="curve"/>
      <point x="370" y="-104" type="line"/>
      <point x="557" y="-104" type="line"/>
      <point x="573" y="-8" type="line"/>
      <point x="910" y="4"/>
      <point x="983" y="80"/>
      <point x="983" y="192" type="curve" smooth="yes"/>
      <point x="983" y="414"/>
      <point x="367" y="340"/>
      <point x="367" y="387" type="curve" smooth="yes"/>
      <point x="367" y="397"/>
      <point x="380" y="403"/>
      <point x="410" y="403" type="curve" smooth="yes"/>
      <point x="578" y="403"/>
      <point x="820" y="393"/>
      <point x="924" y="364" type="curve"/>
      <point x="970" y="533" type="line"/>
      <point x="903" y="545"/>
      <point x="787" y="557"/>
    </contour>
  </outline>
</glyph>
<glyph name="dollarsuperior" format="2">
  <advance width="556"/>
  <outline>
    <contour>
      <point x="241" y="310" type="line"/>
      <point x="346" y="310" type="line"/>
      <point x="355" y="368" type="line"/>
      <point x="493" y="384"/>
      <point x="561" y="432"/>
      <point x="561" y="523" type="curve" smooth="yes"/>
      <point x="561" y="668"/>
      <point x="277" y="620"/>
      <point x="277" y="642" type="curve" smooth="yes"/>
      <point x="277" y="650"/>
      <point x="291" y="661"/>
      <point x="331" y="661" type="curve" smooth="yes"/>
      <point x="414" y="661"/>
      <point x="473" y="650"/>
      <point x="523" y="633" type="curve"/>
      <point x="566" y="752" type="line"/>
      <point x="513" y="764"/>
      <point x="468" y="771"/>
      <point x="421" y="774" type="curve"/>
      <point x="430" y="829" type="line"/>
      <point x="325" y="829" type="line"/>
      <point x="316" y="773" type="line"/>
      <point x="182" y="767"/>
      <point x="102" y="710"/>
      <point x="102" y="612" type="curve" smooth="yes"/>
      <point x="102" y="465"/>
      <point x="381" y="518"/>
      <point x="381" y="491" type="curve" smooth="yes"/>
      <point x="381" y="483"/>
      <point x="369" y="474"/>
      <point x="322" y="474" type="curve" smooth="yes"/>
      <point x="248" y="474"/>
      <point x="163" y="487"/>
      <point x="95" y="511" type="curve"/>
      <point x="51" y="397" type="line"/>
      <point x="106" y="379"/>
      <point x="176" y="368"/>
      <point x="250" y="365" type="curve"/>
    </contour>
  </outline>
</glyph>
<glyph name="e.sc" format="2">
  <advance width="954"/>
  <anchor x="453" y="0" name="bottom"/>
  <anchor x="876" y="0" name="ogonek"/>
  <anchor x="541" y="625" name="top"/>
  <anchor x="64" y="625" name="topleft"/>
  <outline>
    <contour>
      <point x="30" y="0" type="line"/>
      <point x="876" y="0" type="line"/>
      <point x="904" y="182" type="line"/>
      <point x="350" y="182" type="line"/>
      <point x="358" y="228" type="line"/>
      <point x="852" y="228" type="line"/>
      <point x="880" y="395" type="line"/>
      <point x="380" y="395" type="line"/>
      <point x="388" y="443" type="line"/>
      <point x="916" y="443" type="line"/>
      <point x="949" y="625" type="line"/>
      <point x="133" y="625" type="line"/>
    </contour>
  </outline>
</glyph>
<glyph name="e.superior" format="2">
  <advance width="523"/>
  <outline>
    <contour>
      <point x="233" y="554" type="curve"/>
      <point x="243" y="492" type="line"/>
      <point x="267" y="487"/>
      <point x="297" y="485"/>
      <point x="342" y="486" type="curve" smooth="yes"/>
      <point x="468" y="489"/>
      <point x="561" y="517"/>
      <point x="561" y="589" type="curve" smooth="yes"/>
      <point x="561" y="665"/>
      <point x="485" y="690"/>
      <point x="371" y="690" type="curve" smooth="yes"/>
      <point x="178" y="690"/>
      <point x="63" y="618"/>
      <point x="63" y="506" type="curve" smooth="yes"/>
      <point x="63" y="389"/>
      <point x="178" y="364"/>
      <point x="316" y="364" type="curve" smooth="yes"/>
      <point x="382" y="364"/>
      <point x="461" y="373"/>
      <point x="519" y="384" type="curve"/>
      <point x="508" y="486" type="line"/>
      <point x="449" y="473"/>
      <point x="372" y="466"/>
      <point x="350" y="466" type="curve" smooth="yes"/>
      <point x="273" y="466"/>
      <point x="257" y="478"/>
      <point x="257" y="518" type="curve" smooth="yes"/>
      <point x="257" y="561"/>
      <point x="291" y="593"/>
      <point x="334" y="593" type="curve" smooth="yes"/>
      <point x="356" y="593"/>
      <point x="365" y="586"/>
      <point x="365" y="576" type="curve" smooth="yes"/>
      <point x="365" y="561"/>
      <point x="335" y="554"/>
      <point x="282" y="554" type="curve" smooth="yes"/>
      <point x="261" y="554"/>
      <point x="246" y="553"/>
    </contour>
  </outline>
</glyph>
<glyph name="exclamdown.case" format="2">
  <advance width="390"/>
  <outline>
    <contour>
      <point x="337" y="441" type="line"/>
      <point x="107" y="441" type="line"/>
      <point x="18" y="0" type="line"/>
      <point x="285" y="0" type="line"/>
    </contour>
    <contour>
      <point x="397" y="621" type="curve" smooth="yes"/>
      <point x="397" y="680"/>
      <point x="359" y="710"/>
      <point x="263" y="710" type="curve" smooth="yes"/>
      <point x="162" y="710"/>
      <point x="93" y="674"/>
      <point x="93" y="570" type="curve" smooth="yes"/>
      <point x="93" y="511"/>
      <point x="131" y="481"/>
      <point x="226" y="481" type="curve" smooth="yes"/>
      <point x="332" y="481"/>
      <point x="397" y="522"/>
    </contour>
  </outline>
</glyph>
<glyph name="f.superior" format="2">
  <advance width="411"/>
  <outline>
    <contour>
      <point x="325" y="539" type="line"/>
      <point x="437" y="539" type="line"/>
      <point x="455" y="636" type="line"/>
      <point x="340" y="636" type="line"/>
      <point x="347" y="671"/>
      <point x="369" y="679"/>
      <point x="401" y="679" type="curve" smooth="yes"/>
      <point x="421" y="679"/>
      <point x="471" y="672"/>
      <point x="485" y="668" type="curve"/>
      <point x="525" y="780" type="line"/>
      <point x="488" y="792"/>
      <point x="412" y="800"/>
      <point x="361" y="800" type="curve" smooth="yes"/>
      <point x="251" y="800"/>
      <point x="161" y="759"/>
      <point x="139" y="635" type="curve"/>
      <point x="86" y="623" type="line"/>
      <point x="68" y="539" type="line"/>
      <point x="121" y="539" type="line"/>
      <point x="98" y="391" type="line" smooth="yes"/>
      <point x="95" y="371"/>
      <point x="80" y="366"/>
      <point x="70" y="366" type="curve" smooth="yes"/>
      <point x="59" y="366"/>
      <point x="55" y="367"/>
      <point x="45" y="370" type="curve"/>
      <point x="15" y="263" type="line"/>
      <point x="47" y="251"/>
      <point x="105" y="245"/>
      <point x="136" y="245" type="curve" smooth="yes"/>
      <point x="223" y="245"/>
      <point x="285" y="291"/>
      <point x="299" y="376" type="curve" smooth="yes"/>
    </contour>
  </outline>
</glyph>
<glyph name="f_f_k.liga" format="2">
  <advance width="1946"/>
  <outline>
    <contour>
      <point x="88" y="-220" type="curve" smooth="yes"/>
      <point x="219" y="-220"/>
      <point x="326" y="-141"/>
      <point x="350" y="3" type="curve" smooth="yes"/>
      <point x="403" y="325" type="line"/>
      <point x="626" y="325" type="line"/>
      <point x="576" y="19" type="line" smooth="yes"/>
      <point x="572" y="-6"/>
      <point x="544" y="-12"/>
      <point x="524" y="-12" type="curve" smooth="yes"/>
      <point x="511" y="-12"/>
      <point x="499" y="-9"/>
      <point x="495" y="-7" type="curve"/>
      <point x="445" y="-190" type="line"/>
      <point x="494" y="-210"/>
      <point x="543" y="-220"/>
      <point x="589" y="-220" type="curve" smooth="yes"/>
      <point x="720" y="-220"/>
      <point x="827" y="-141"/>
      <point x="851" y="3" type="curve" smooth="yes"/>
      <point x="904" y="325" type="line"/>
      <point x="1093" y="325" type="line"/>
      <point x="1119" y="484" type="line"/>
      <point x="929" y="484" type="line"/>
      <point x="938" y="539"/>
      <point x="985" y="558"/>
      <point x="1069" y="558" type="curve" smooth="yes"/>
      <point x="1109" y="558"/>
      <point x="1163" y="553"/>
      <point x="1219" y="547" type="curve"/>
      <point x="1131" y="0" type="line"/>
      <point x="1414" y="0" type="line"/>
      <point x="1528" y="717" type="line"/>
      <point x="1439" y="731"/>
      <point x="1205" y="750"/>
      <point x="1047" y="750" type="curve" smooth="yes"/>
      <point x="970" y="750"/>
      <point x="901" y="740"/>
      <point x="842" y="719" type="curve"/>
      <point x="728" y="740"/>
      <point x="626" y="750"/>
      <point x="533" y="750" type="curve" smooth="yes"/>
      <point x="336" y="750"/>
      <point x="189" y="679"/>
      <point x="153" y="484" type="curve"/>
      <point x="53" y="464" type="line"/>
      <point x="30" y="325" type="line"/>
      <point x="125" y="325" type="line"/>
      <point x="75" y="19" type="line" smooth="yes"/>
      <point x="71" y="-6"/>
      <point x="43" y="-12"/>
      <point x="23" y="-12" type="curve" smooth="yes"/>
      <point x="10" y="-12"/>
      <point x="-2" y="-9"/>
      <point x="-6" y="-7" type="curve"/>
      <point x="-56" y="-190" type="line"/>
      <point x="-7" y="-210"/>
      <point x="42" y="-220"/>
    </contour>
    <contour>
      <point x="428" y="484" type="line"/>
      <point x="437" y="546"/>
      <point x="498" y="570"/>
      <point x="558" y="570" type="curve" smooth="yes"/>
      <point x="592" y="570"/>
      <point x="632" y="568"/>
      <point x="677" y="561" type="curve"/>
      <point x="668" y="538"/>
      <point x="661" y="512"/>
      <point x="655" y="484" type="curve"/>
    </contour>
    <contour>
      <point x="1827" y="-10" type="curve" smooth="yes"/>
      <point x="1841" y="-10"/>
      <point x="1856" y="-9"/>
      <point x="1870" y="-7" type="curve"/>
      <point x="1909" y="233" type="line"/>
      <point x="1899" y="232"/>
      <point x="1890" y="232"/>
      <point x="1879" y="232" type="curve" smooth="yes"/>
      <point x="1814" y="232"/>
      <point x="1746" y="254"/>
      <point x="1633" y="310" type="curve" smooth="yes"/>
      <point x="1447" y="403" type="line"/>
      <point x="1412" y="185" type="line"/>
      <point x="1557" y="85" type="line" smooth="yes"/>
      <point x="1642" y="27"/>
      <point x="1739" y="-10"/>
    </contour>
    <contour>
      <point x="1655" y="280" type="line"/>
      <point x="1791" y="358"/>
      <point x="1911" y="466"/>
      <point x="1956" y="550" type="curve"/>
      <point x="1650" y="560" type="line"/>
      <point x="1604" y="483"/>
      <point x="1532" y="420"/>
      <point x="1436" y="349" type="curve"/>
    </contour>
  </outline>
</glyph>
<glyph name="f_f_l.liga" format="2">
  <advance width="1624"/>
  <outline>
    <contour>
      <point x="88" y="-220" type="curve" smooth="yes"/>
      <point x="219" y="-220"/>
      <point x="326" y="-141"/>
      <point x="350" y="3" type="curve" smooth="yes"/>
      <point x="403" y="325" type="line"/>
      <point x="626" y="325" type="line"/>
      <point x="576" y="19" type="line" smooth="yes"/>
      <point x="572" y="-6"/>
      <point x="544" y="-12"/>
      <point x="524" y="-12" type="curve" smooth="yes"/>
      <point x="511" y="-12"/>
      <point x="499" y="-9"/>
      <point x="495" y="-7" type="curve"/>
      <point x="445" y="-190" type="line"/>
      <point x="494" y="-210"/>
      <point x="543" y="-220"/>
      <point x="589" y="-220" type="curve" smooth="yes"/>
      <point x="720" y="-220"/>
      <point x="827" y="-141"/>
      <point x="851" y="3" type="curve" smooth="yes"/>
      <point x="904" y="325" type="line"/>
      <point x="1093" y="325" type="line"/>
      <point x="1119" y="484" type="line"/>
      <point x="929" y="484" type="line"/>
      <point x="938" y="539"/>
      <point x="985" y="558"/>
      <point x="1069" y="558" type="curve" smooth="yes"/>
      <point x="1108" y="558"/>
      <point x="1161" y="553"/>
      <point x="1214" y="546" type="curve"/>
      <point x="1164" y="244" type="line" smooth="yes"/>
      <point x="1158" y="210"/>
      <point x="1155" y="180"/>
      <point x="1155" y="153" type="curve" smooth="yes"/>
      <point x="1155" y="34"/>
      <point x="1215" y="-10"/>
      <point x="1339" y="-10" type="curve" smooth="yes"/>
      <point x="1426" y="-10"/>
      <point x="1510" y="4"/>
      <point x="1588" y="25" type="curve"/>
      <point x="1588" y="227" type="line"/>
      <point x="1541" y="218"/>
      <point x="1515" y="213"/>
      <point x="1488" y="213" type="curve" smooth="yes"/>
      <point x="1462" y="213"/>
      <point x="1446" y="220"/>
      <point x="1446" y="239" type="curve" smooth="yes"/>
      <point x="1446" y="245"/>
      <point x="1447" y="251"/>
      <point x="1448" y="256" type="curve" smooth="yes"/>
      <point x="1523" y="714" type="line"/>
      <point x="1436" y="728"/>
      <point x="1202" y="750"/>
      <point x="1047" y="750" type="curve" smooth="yes"/>
      <point x="970" y="750"/>
      <point x="901" y="740"/>
      <point x="842" y="719" type="curve"/>
      <point x="728" y="740"/>
      <point x="626" y="750"/>
      <point x="533" y="750" type="curve" smooth="yes"/>
      <point x="336" y="750"/>
      <point x="189" y="679"/>
      <point x="153" y="484" type="curve"/>
      <point x="53" y="464" type="line"/>
      <point x="30" y="325" type="line"/>
      <point x="125" y="325" type="line"/>
      <point x="75" y="19" type="line" smooth="yes"/>
      <point x="71" y="-6"/>
      <point x="43" y="-12"/>
      <point x="23" y="-12" type="curve" smooth="yes"/>
      <point x="10" y="-12"/>
      <point x="-2" y="-9"/>
      <point x="-6" y="-7" type="curve"/>
      <point x="-56" y="-190" type="line"/>
      <point x="-7" y="-210"/>
      <point x="42" y="-220"/>
    </contour>
    <contour>
      <point x="428" y="484" type="line"/>
      <point x="437" y="546"/>
      <point x="498" y="570"/>
      <point x="558" y="570" type="curve" smooth="yes"/>
      <point x="592" y="570"/>
      <point x="632" y="568"/>
      <point x="677" y="561" type="curve"/>
      <point x="668" y="538"/>
      <point x="661" y="512"/>
      <point x="655" y="484" type="curve"/>
    </contour>
  </outline>
</glyph>
<glyph name="f_f_t.liga" format="2">
  <advance width="1620"/>
  <outline>
    <contour>
      <point x="88" y="-220" type="curve" smooth="yes"/>
      <point x="219" y="-220"/>
      <point x="327" y="-141"/>
      <point x="350" y="3" type="curve" smooth="yes"/>
      <point x="403" y="325" type="line"/>
      <point x="626" y="325" type="line"/>
      <point x="576" y="19" type="line" smooth="yes"/>
      <point x="572" y="-6"/>
      <point x="544" y="-12"/>
      <point x="524" y="-12" type="curve" smooth="yes"/>
      <point x="511" y="-12"/>
      <point x="499" y="-9"/>
      <point x="495" y="-7" type="curve"/>
      <point x="445" y="-190" type="line"/>
      <point x="494" y="-210"/>
      <point x="543" y="-220"/>
      <point x="589" y="-220" type="curve" smooth="yes"/>
      <point x="721" y="-220"/>
      <point x="827" y="-141"/>
      <point x="851" y="3" type="curve" smooth="yes"/>
      <point x="904" y="325" type="line"/>
      <point x="1125" y="325" type="line"/>
      <point x="1114" y="247" type="line" smooth="yes"/>
      <point x="1110" y="217"/>
      <point x="1107" y="191"/>
      <point x="1107" y="167" type="curve" smooth="yes"/>
      <point x="1107" y="32"/>
      <point x="1185" y="-10"/>
      <point x="1311" y="-10" type="curve" smooth="yes"/>
      <point x="1397" y="-10"/>
      <point x="1468" y="3"/>
      <point x="1555" y="22" type="curve"/>
      <point x="1563" y="227" type="line"/>
      <point x="1506" y="217"/>
      <point x="1470" y="210"/>
      <point x="1442" y="210" type="curve" smooth="yes"/>
      <point x="1410" y="210"/>
      <point x="1395" y="220"/>
      <point x="1395" y="245" type="curve" smooth="yes"/>
      <point x="1395" y="250"/>
      <point x="1395" y="255"/>
      <point x="1396" y="261" type="curve" smooth="yes"/>
      <point x="1408" y="325" type="line"/>
      <point x="1576" y="325" type="line"/>
      <point x="1604" y="484" type="line"/>
      <point x="1433" y="484" type="line"/>
      <point x="1471" y="700" type="line"/>
      <point x="1250" y="737"/>
      <point x="1160" y="750"/>
      <point x="1051" y="750" type="curve" smooth="yes"/>
      <point x="969" y="750"/>
      <point x="899" y="739"/>
      <point x="840" y="716" type="curve"/>
      <point x="724" y="741"/>
      <point x="630" y="750"/>
      <point x="542" y="750" type="curve" smooth="yes"/>
      <point x="336" y="750"/>
      <point x="201" y="676"/>
      <point x="153" y="484" type="curve"/>
      <point x="53" y="464" type="line"/>
      <point x="30" y="325" type="line"/>
      <point x="125" y="325" type="line"/>
      <point x="75" y="19" type="line" smooth="yes"/>
      <point x="71" y="-6"/>
      <point x="43" y="-12"/>
      <point x="23" y="-12" type="curve" smooth="yes"/>
      <point x="10" y="-12"/>
      <point x="-2" y="-9"/>
      <point x="-6" y="-7" type="curve"/>
      <point x="-56" y="-190" type="line"/>
      <point x="-7" y="-210"/>
      <point x="42" y="-220"/>
    </contour>
    <contour>
      <point x="428" y="484" type="line"/>
      <point x="437" y="546"/>
      <point x="498" y="570"/>
      <point x="558" y="570" type="curve" smooth="yes"/>
      <point x="592" y="570"/>
      <point x="632" y="568"/>
      <point x="677" y="561" type="curve"/>
      <point x="668" y="538"/>
      <point x="661" y="512"/>
      <point x="655" y="484" type="curve"/>
    </contour>
    <contour>
      <point x="929" y="484" type="line"/>
      <point x="940" y="549"/>
      <point x="985" y="569"/>
      <point x="1085" y="569" type="curve" smooth="yes"/>
      <point x="1107" y="569"/>
      <point x="1135" y="569"/>
      <point x="1174" y="563" type="curve"/>
      <point x="1153" y="484" type="line"/>
    </contour>
  </outline>
</glyph>
<glyph name="f_k.liga" format="2">
  <advance width="1455"/>
  <outline>
    <contour>
      <point x="88" y="-220" type="curve" smooth="yes"/>
      <point x="219" y="-220"/>
      <point x="326" y="-141"/>
      <point x="350" y="3" type="curve" smooth="yes"/>
      <point x="400" y="305" type="line"/>
      <point x="589" y="305" type="line"/>
      <point x="618" y="484" type="line"/>
      <point x="428" y="484" type="line"/>
      <point x="437" y="539"/>
      <point x="484" y="558"/>
      <point x="568" y="558" type="curve" smooth="yes"/>
      <point x="610" y="558"/>
      <point x="667" y="553"/>
      <point x="726" y="546" type="curve"/>
      <point x="639" y="0" type="line"/>
      <point x="922" y="0" type="line"/>
      <point x="1033" y="714" type="line"/>
      <point x="944" y="728"/>
      <point x="704" y="750"/>
      <point x="546" y="750" type="curve" smooth="yes"/>
      <point x="339" y="750"/>
      <point x="186" y="682"/>
      <point x="153" y="484" type="curve"/>
      <point x="53" y="464" type="line"/>
      <point x="27" y="305" type="line"/>
      <point x="122" y="305" type="line"/>
      <point x="75" y="19" type="line" smooth="yes"/>
      <point x="71" y="-6"/>
      <point x="43" y="-12"/>
      <point x="23" y="-12" type="curve" smooth="yes"/>
      <point x="10" y="-12"/>
      <point x="-2" y="-9"/>
      <point x="-6" y="-7" type="curve"/>
      <point x="-56" y="-190" type="line"/>
      <point x="-7" y="-210"/>
      <point x="42" y="-220"/>
    </contour>
    <contour>
      <point x="1336" y="-10" type="curve" smooth="yes"/>
      <point x="1350" y="-10"/>
      <point x="1365" y="-9"/>
      <point x="1379" y="-7" type="curve"/>
      <point x="1418" y="233" type="line"/>
      <point x="1408" y="232"/>
      <point x="1399" y="232"/>
      <point x="1388" y="232" type="curve" smooth="yes"/>
      <point x="1323" y="232"/>
      <point x="1255" y="254"/>
      <point x="1142" y="310" type="curve" smooth="yes"/>
      <point x="956" y="403" type="line"/>
      <point x="921" y="185" type="line"/>
      <point x="1066" y="85" type="line" smooth="yes"/>
      <point x="1151" y="27"/>
      <point x="1248" y="-10"/>
    </contour>
    <contour>
      <point x="1164" y="280" type="line"/>
      <point x="1300" y="358"/>
      <point x="1420" y="466"/>
      <point x="1465" y="550" type="curve"/>
      <point x="1159" y="560" type="line"/>
      <point x="1113" y="483"/>
      <point x="1041" y="420"/>
      <point x="945" y="349" type="curve"/>
    </contour>
  </outline>
</glyph>
<glyph name="g.sc" format="2">
  <advance width="1013"/>
  <anchor x="492" y="0" name="bottom"/>
  <anchor x="621" y="625" name="top"/>
  <outline>
    <contour>
      <point x="51" y="269" type="curve" smooth="yes"/>
      <point x="51" y="76"/>
      <point x="219" y="-10"/>
      <point x="526" y="-10" type="curve" smooth="yes"/>
      <point x="706" y="-10"/>
      <point x="835" y="26"/>
      <point x="923" y="56" type="curve"/>
      <point x="977" y="380" type="line"/>
      <point x="581" y="380" type="line"/>
      <point x="554" y="229" type="line"/>
      <point x="705" y="229" type="line"/>
      <point x="696" y="179" type="line"/>
      <point x="651" y="172"/>
      <point x="593" y="172"/>
      <point x="570" y="172" type="curve" smooth="yes"/>
      <point x="415" y="172"/>
      <point x="350" y="204"/>
      <point x="350" y="279" type="curve" smooth="yes"/>
      <point x="350" y="388"/>
      <point x="441" y="440"/>
      <point x="627" y="440" type="curve" smooth="yes"/>
      <point x="728" y="440"/>
      <point x="827" y="432"/>
      <point x="914" y="417" type="curve"/>
      <point x="976" y="604" type="line"/>
      <point x="867" y="626"/>
      <point x="776" y="634"/>
      <point x="638" y="634" type="curve" smooth="yes"/>
      <point x="263" y="634"/>
      <point x="51" y="511"/>
    </contour>
  </outline>
</glyph>
<glyph name="h.sc" format="2">
  <advance width="1043"/>
  <anchor x="478.444" y="0" name="bottom"/>
  <anchor x="522" y="275" name="center"/>
  <anchor x="577" y="624" name="top"/>
  <anchor x="79" y="625" name="topleft"/>
  <outline>
    <contour>
      <point x="30" y="0" type="line"/>
      <point x="320" y="0" type="line"/>
      <point x="350" y="189" type="line"/>
      <point x="661" y="189" type="line"/>
      <point x="632" y="0" type="line"/>
      <point x="922" y="0" type="line"/>
      <point x="1024" y="625" type="line"/>
      <point x="734" y="625" type="line"/>
      <point x="696" y="403" type="line"/>
      <point x="386" y="403" type="line"/>
      <point x="422" y="625" type="line"/>
      <point x="132" y="625" type="line"/>
    </contour>
  </outline>
</glyph>
<glyph name="i.superior" format="2">
  <advance width="314"/>
  <outline>
    <contour>
      <point x="74" y="370" type="line"/>
      <point x="278" y="370" type="line"/>
      <point x="326" y="683" type="line"/>
      <point x="122" y="683" type="line"/>
    </contour>
    <contour>
      <point x="353" y="780" type="curve" smooth="yes"/>
      <point x="353" y="813"/>
      <point x="324" y="833"/>
      <point x="251" y="833" type="curve" smooth="yes"/>
      <point x="166" y="833"/>
      <point x="126" y="810"/>
      <point x="126" y="759" type="curve" smooth="yes"/>
      <point x="126" y="725"/>
      <point x="154" y="705"/>
      <point x="228" y="705" type="curve" smooth="yes"/>
      <point x="294" y="705"/>
      <point x="353" y="720"/>
    </contour>
  </outline>
</glyph>
<glyph name="l.sc" format="2">
  <advance width="867"/>
  <anchor x="412" y="0" name="bottom"/>
  <anchor x="434" y="275" name="center"/>
  <anchor x="277" y="625" name="top"/>
  <anchor x="591" y="625" name="topright"/>
  <outline>
    <contour>
      <point x="30" y="0" type="line"/>
      <point x="794" y="0" type="line"/>
      <point x="831" y="204" type="line"/>
      <point x="354" y="204" type="line"/>
      <point x="422" y="625" type="line"/>
      <point x="132" y="625" type="line"/>
    </contour>
  </outline>
</glyph>
<glyph name="lslash.sc" format="2">
  <advance width="867"/>
  <outline>
    <contour>
      <point x="-16" y="161" type="line"/>
      <point x="60" y="183" type="line"/>
      <point x="30" y="0" type="line"/>
      <point x="794" y="0" type="line"/>
      <point x="831" y="204" type="line"/>
      <point x="354" y="204" type="line"/>
      <point x="365" y="271" type="line"/>
      <point x="712" y="371" type="line"/>
      <point x="741" y="545" type="line"/>
      <point x="393" y="447" type="line"/>
      <point x="422" y="625" type="line"/>
      <point x="132" y="625" type="line"/>
      <point x="89" y="360" type="line"/>
      <point x="13" y="339" type="line"/>
    </contour>
  </outline>
</glyph>
<glyph name="n.sc" format="2">
  <advance width="969"/>
  <anchor x="441" y="0" name="bottom"/>
  <anchor x="539" y="625" name="top"/>
  <outline>
    <contour>
      <point x="30" y="0" type="line"/>
      <point x="292" y="0" type="line"/>
      <point x="343" y="304" type="line"/>
      <point x="591" y="0" type="line"/>
      <point x="847" y="0" type="line"/>
      <point x="950" y="625" type="line"/>
      <point x="690" y="625" type="line"/>
      <point x="638" y="311" type="line"/>
      <point x="396" y="625" type="line"/>
      <point x="134" y="625" type="line"/>
    </contour>
  </outline>
</glyph>
<glyph name="o.sc" format="2">
  <advance width="1103"/>
  <anchor x="508.444" y="0" name="bottom"/>
  <anchor x="552" y="275" name="center"/>
  <anchor x="649" y="0" name="ogonek"/>
  <anchor x="616" y="625" name="top"/>
  <anchor x="64" y="625" name="topleft"/>
  <anchor x="885" y="625" name="topright"/>
  <outline>
    <contour>
      <point x="518" y="-10" type="curve" smooth="yes"/>
      <point x="823" y="-10"/>
      <point x="1061" y="51"/>
      <point x="1061" y="342" type="curve" smooth="yes"/>
      <point x="1061" y="517"/>
      <point x="929" y="634"/>
      <point x="597" y="634" type="curve" smooth="yes"/>
      <point x="292" y="634"/>
      <point x="54" y="574"/>
      <point x="54" y="283" type="curve" smooth="yes"/>
      <point x="54" y="108"/>
      <point x="186" y="-10"/>
    </contour>
    <contour>
      <point x="550" y="167" type="curve" smooth="yes"/>
      <point x="418" y="167"/>
      <point x="366" y="223"/>
      <point x="366" y="303" type="curve" smooth="yes"/>
      <point x="366" y="413"/>
      <point x="447" y="457"/>
      <point x="565" y="457" type="curve" smooth="yes"/>
      <point x="697" y="457"/>
      <point x="749" y="402"/>
      <point x="749" y="322" type="curve" smooth="yes"/>
      <point x="749" y="212"/>
      <point x="668" y="167"/>
    </contour>
  </outline>
</glyph>
<glyph name="o.superior" format="2">
  <advance width="562"/>
  <outline>
    <contour>
      <point x="319" y="690" type="curve" smooth="yes"/>
      <point x="134" y="690"/>
      <point x="65" y="625"/>
      <point x="65" y="515" type="curve" smooth="yes"/>
      <point x="65" y="406"/>
      <point x="169" y="363"/>
      <point x="323" y="363" type="curve" smooth="yes"/>
      <point x="508" y="363"/>
      <point x="577" y="428"/>
      <point x="577" y="538" type="curve" smooth="yes"/>
      <point x="577" y="647"/>
      <point x="473" y="690"/>
    </contour>
    <contour>
      <point x="325" y="593" type="curve" smooth="yes"/>
      <point x="367" y="593"/>
      <point x="380" y="570"/>
      <point x="380" y="536" type="curve" smooth="yes"/>
      <point x="380" y="483"/>
      <point x="357" y="460"/>
      <point x="317" y="460" type="curve" smooth="yes"/>
      <point x="275" y="460"/>
      <point x="262" y="483"/>
      <point x="262" y="517" type="curve" smooth="yes"/>
      <point x="262" y="570"/>
      <point x="285" y="593"/>
    </contour>
  </outline>
</glyph>
<glyph name="one.lf" format="2">
  <advance width="621"/>
  <outline>
    <contour>
      <point x="506" y="0" type="line"/>
      <point x="619" y="700" type="line"/>
      <point x="476" y="700" type="line"/>
      <point x="33" y="541" type="line"/>
      <point x="70" y="314" type="line"/>
      <point x="272" y="386" type="line"/>
      <point x="216" y="0" type="line"/>
    </contour>
  </outline>
</glyph>
<glyph name="one.osf" format="2">
  <advance width="630"/>
  <outline>
    <contour>
      <point x="520" y="0" type="line"/>
      <point x="609" y="550" type="line"/>
      <point x="466" y="550" type="line"/>
      <point x="23" y="391" type="line"/>
      <point x="60" y="170" type="line"/>
      <point x="262" y="242" type="line"/>
      <point x="228" y="0" type="line"/>
    </contour>
  </outline>
</glyph>
<glyph name="oslash.sc" format="2">
  <advance width="1103"/>
  <anchor x="616" y="625" name="top"/>
  <outline>
    <contour>
      <point x="891.0" y="635.0" type="line"/>
      <point x="10.0" y="-10.0" type="line"/>
      <point x="223.0" y="-10.0" type="line"/>
      <point x="1104.0" y="635.0" type="line"/>
    </contour>
    <contour>
      <point x="518.0" y="-10.0" type="curve" smooth="yes"/>
      <point x="823.0" y="-10.0"/>
      <point x="1061.0" y="51.0"/>
      <point x="1061.0" y="342.0" type="curve" smooth="yes"/>
      <point x="1061.0" y="517.0"/>
      <point x="929.0" y="634.0"/>
      <point x="597.0" y="634.0" type="curve" smooth="yes"/>
      <point x="292.0" y="634.0"/>
      <point x="54.0" y="574.0"/>
      <point x="54.0" y="283.0" type="curve" smooth="yes"/>
      <point x="54.0" y="108.0"/>
      <point x="186.0" y="-10.0"/>
    </contour>
    <contour>
      <point x="550.0" y="157.0" type="curve" smooth="yes"/>
      <point x="424.0" y="157.0"/>
      <point x="356.0" y="208.0"/>
      <point x="356.0" y="303.0" type="curve" smooth="yes"/>
      <point x="356.0" y="410.0"/>
      <point x="430.0" y="467.0"/>
      <point x="565.0" y="467.0" type="curve" smooth="yes"/>
      <point x="691.0" y="467.0"/>
      <point x="759.0" y="417.0"/>
      <point x="759.0" y="322.0" type="curve" smooth="yes"/>
      <point x="759.0" y="215.0"/>
      <point x="685.0" y="157.0"/>
    </contour>
  </outline>
</glyph>
<glyph name="p.sc" format="2">
  <advance width="1043"/>
  <outline>
    <contour>
      <point x="30" y="0" type="line"/>
      <point x="320" y="0" type="line"/>
      <point x="346" y="151" type="line"/>
      <point x="417" y="146"/>
      <point x="426" y="146"/>
      <point x="465" y="146" type="curve" smooth="yes"/>
      <point x="815" y="146"/>
      <point x="1033" y="154"/>
      <point x="1033" y="421" type="curve" smooth="yes"/>
      <point x="1033" y="572"/>
      <point x="905" y="634"/>
      <point x="558" y="634" type="curve" smooth="yes"/>
      <point x="496" y="634"/>
      <point x="376" y="633"/>
      <point x="134" y="626" type="curve"/>
    </contour>
    <contour>
      <point x="395" y="448" type="line"/>
      <point x="455" y="451"/>
      <point x="466" y="451"/>
      <point x="493" y="451" type="curve" smooth="yes"/>
      <point x="586" y="451"/>
      <point x="705" y="451"/>
      <point x="705" y="397" type="curve" smooth="yes"/>
      <point x="705" y="351"/>
      <point x="686" y="332"/>
      <point x="461" y="332" type="curve" smooth="yes"/>
      <point x="443" y="332"/>
      <point x="406" y="333"/>
      <point x="377" y="337" type="curve"/>
    </contour>
  </outline>
</glyph>
<glyph name="p.superior" format="2">
  <advance width="601"/>
  <outline>
    <contour>
      <point x="325" y="683" type="line"/>
      <point x="122" y="683" type="line"/>
      <point x="55" y="250" type="line"/>
      <point x="258" y="250" type="line"/>
      <point x="276" y="371" type="line"/>
      <point x="299" y="367"/>
      <point x="328" y="364"/>
      <point x="351" y="364" type="curve" smooth="yes"/>
      <point x="505" y="364"/>
      <point x="617" y="431"/>
      <point x="617" y="575" type="curve" smooth="yes"/>
      <point x="617" y="652"/>
      <point x="571" y="690"/>
      <point x="473" y="690" type="curve" smooth="yes"/>
      <point x="416" y="690"/>
      <point x="364" y="674"/>
      <point x="319" y="650" type="curve"/>
    </contour>
    <contour>
      <point x="305" y="559" type="line"/>
      <point x="332" y="570"/>
      <point x="351" y="574"/>
      <point x="372" y="574" type="curve" smooth="yes"/>
      <point x="402" y="574"/>
      <point x="425" y="566"/>
      <point x="425" y="537" type="curve" smooth="yes"/>
      <point x="425" y="493"/>
      <point x="398" y="472"/>
      <point x="347" y="472" type="curve" smooth="yes"/>
      <point x="328" y="472"/>
      <point x="306" y="474"/>
      <point x="293" y="480" type="curve"/>
    </contour>
  </outline>
</glyph>
<glyph name="periodsuperior" format="2">
  <advance width="273"/>
  <outline>
    <contour>
      <point x="74" y="415" type="curve" smooth="yes"/>
      <point x="74" y="381"/>
      <point x="96" y="364"/>
      <point x="151" y="364" type="curve" smooth="yes"/>
      <point x="208" y="364"/>
      <point x="248" y="385"/>
      <point x="248" y="444" type="curve" smooth="yes"/>
      <point x="248" y="478"/>
      <point x="226" y="495"/>
      <point x="172" y="495" type="curve" smooth="yes"/>
      <point x="111" y="495"/>
      <point x="74" y="471"/>
    </contour>
  </outline>
</glyph>
<glyph name="q.sc" format="2">
  <advance width="1103"/>
  <outline>
    <contour>
      <point x="788" y="34" type="curve"/>
      <point x="490" y="8" type="line"/>
      <point x="543" y="-139"/>
      <point x="637" y="-211"/>
      <point x="774" y="-211" type="curve" smooth="yes"/>
      <point x="819" y="-211"/>
      <point x="867" y="-204"/>
      <point x="921" y="-189" type="curve"/>
      <point x="921" y="18" type="line"/>
      <point x="907" y="13"/>
      <point x="890" y="11"/>
      <point x="870" y="11" type="curve" smooth="yes"/>
      <point x="839" y="11"/>
      <point x="809" y="17"/>
    </contour>
    <component base="o.sc"/>
  </outline>
</glyph>
<glyph name="s.sc" format="2">
  <advance width="973"/>
  <anchor x="484" y="0" name="bottom"/>
  <anchor x="551" y="625" name="top"/>
  <outline>
    <contour>
      <point x="934" y="603" type="line"/>
      <point x="848" y="619"/>
      <point x="732" y="634"/>
      <point x="577" y="634" type="curve" smooth="yes"/>
      <point x="224" y="634"/>
      <point x="71" y="549"/>
      <point x="71" y="384" type="curve" smooth="yes"/>
      <point x="71" y="141"/>
      <point x="609" y="245"/>
      <point x="609" y="183" type="curve" smooth="yes"/>
      <point x="609" y="167"/>
      <point x="550" y="165"/>
      <point x="516" y="165" type="curve" smooth="yes"/>
      <point x="342" y="165"/>
      <point x="191" y="190"/>
      <point x="50" y="228" type="curve"/>
      <point x="-7" y="36" type="line"/>
      <point x="119" y="6"/>
      <point x="268" y="-10"/>
      <point x="426" y="-10" type="curve" smooth="yes"/>
      <point x="772" y="-10"/>
      <point x="949" y="77"/>
      <point x="949" y="248" type="curve" smooth="yes"/>
      <point x="949" y="469"/>
      <point x="401" y="382"/>
      <point x="401" y="434" type="curve" smooth="yes"/>
      <point x="401" y="453"/>
      <point x="461" y="457"/>
      <point x="495" y="457" type="curve" smooth="yes"/>
      <point x="639" y="457"/>
      <point x="765" y="445"/>
      <point x="882" y="413" type="curve"/>
    </contour>
  </outline>
</glyph>
<glyph name="s.superior" format="2">
  <advance width="465"/>
  <outline>
    <contour>
      <point x="45" y="384" type="line"/>
      <point x="107" y="369"/>
      <point x="157" y="364"/>
      <point x="217" y="364" type="curve" smooth="yes"/>
      <point x="329" y="364"/>
      <point x="471" y="383"/>
      <point x="471" y="494" type="curve" smooth="yes"/>
      <point x="471" y="596"/>
      <point x="255" y="568"/>
      <point x="255" y="586" type="curve" smooth="yes"/>
      <point x="255" y="591"/>
      <point x="275" y="593"/>
      <point x="297" y="593" type="curve" smooth="yes"/>
      <point x="335" y="593"/>
      <point x="400" y="584"/>
      <point x="440" y="573" type="curve"/>
      <point x="476" y="672" type="line"/>
      <point x="428" y="683"/>
      <point x="382" y="690"/>
      <point x="313" y="690" type="curve" smooth="yes"/>
      <point x="189" y="690"/>
      <point x="87" y="665"/>
      <point x="87" y="565" type="curve" smooth="yes"/>
      <point x="87" y="448"/>
      <point x="292" y="483"/>
      <point x="292" y="464" type="curve" smooth="yes"/>
      <point x="292" y="460"/>
      <point x="268" y="458"/>
      <point x="250" y="458" type="curve" smooth="yes"/>
      <point x="203" y="458"/>
      <point x="129" y="468"/>
      <point x="80" y="481" type="curve"/>
    </contour>
  </outline>
</glyph>
<glyph name="t.sc" format="2">
  <advance width="964"/>
  <anchor x="435" y="0" name="bottom"/>
  <anchor x="482" y="275" name="center"/>
  <anchor x="526" y="625" name="top"/>
  <outline>
    <contour>
      <point x="960" y="421" type="line"/>
      <point x="995" y="625" type="line"/>
      <point x="84" y="625" type="line"/>
      <point x="47" y="421" type="line"/>
      <point x="359" y="421" type="line"/>
      <point x="290" y="0" type="line"/>
      <point x="580" y="0" type="line"/>
      <point x="648" y="421" type="line"/>
    </contour>
  </outline>
</glyph>
<glyph name="t.superior" format="2">
  <advance width="443"/>
  <outline>
    <contour>
      <point x="335" y="580" type="line"/>
      <point x="450" y="580" type="line"/>
      <point x="472" y="683" type="line"/>
      <point x="351" y="683" type="line"/>
      <point x="360" y="750" type="line"/>
      <point x="184" y="750" type="line"/>
      <point x="154" y="683" type="line"/>
      <point x="83" y="672" type="line"/>
      <point x="65" y="580" type="line"/>
      <point x="132" y="580" type="line"/>
      <point x="121" y="509" type="line" smooth="yes"/>
      <point x="118" y="494"/>
      <point x="116" y="480"/>
      <point x="116" y="464" type="curve" smooth="yes"/>
      <point x="116" y="390"/>
      <point x="167" y="364"/>
      <point x="251" y="364" type="curve" smooth="yes"/>
      <point x="307" y="364"/>
      <point x="371" y="370"/>
      <point x="429" y="386" type="curve"/>
      <point x="429" y="502" type="line"/>
      <point x="393" y="497"/>
      <point x="375" y="493"/>
      <point x="356" y="493" type="curve" smooth="yes"/>
      <point x="335" y="493"/>
      <point x="325" y="497"/>
      <point x="325" y="512" type="curve" smooth="yes"/>
      <point x="325" y="514"/>
      <point x="325" y="519"/>
      <point x="326" y="523" type="curve" smooth="yes"/>
    </contour>
  </outline>
</glyph>
<glyph name="tildecomb.loclVIT" format="2">
  <anchor x="-388" y="550" name="_top"/>
  <anchor x="-420" y="790" name="top"/>
  <outline>
    <contour>
      <point x="-679" y="596" type="curve"/>
      <point x="-544" y="596" type="line"/>
      <point x="-543" y="601" type="line" smooth="yes"/>
      <point x="-540" y="617"/>
      <point x="-528" y="624"/>
      <point x="-510" y="624" type="curve" smooth="yes"/>
      <point x="-460" y="624"/>
      <point x="-408" y="596"/>
      <point x="-343" y="596" type="curve" smooth="yes"/>
      <point x="-263" y="596"/>
      <point x="-208" y="646"/>
      <point x="-195" y="740" type="curve" smooth="yes"/>
      <point x="-193" y="755"/>
      <point x="-191" y="772"/>
      <point x="-191" y="790" type="curve"/>
      <point x="-327" y="790" type="line"/>
      <point x="-328" y="785" type="line" smooth="yes"/>
      <point x="-331" y="769"/>
      <point x="-342" y="762"/>
      <point x="-360" y="762" type="curve" smooth="yes"/>
      <point x="-399" y="762"/>
      <point x="-449" y="790"/>
      <point x="-518" y="790" type="curve" smooth="yes"/>
      <point x="-608" y="790"/>
      <point x="-662" y="740"/>
      <point x="-675" y="646" type="curve" smooth="yes"/>
      <point x="-677" y="631"/>
      <point x="-679" y="614"/>
    </contour>
  </outline>
</glyph>
<glyph name="uni0163.sc" format="2">
  <advance width="964"/>
  <outline>
    <contour>
      <point x="224" y="-208" type="line"/>
      <point x="264" y="-216"/>
      <point x="297" y="-220"/>
      <point x="329" y="-220" type="curve" smooth="yes"/>
      <point x="440" y="-220"/>
      <point x="548" y="-168"/>
      <point x="548" y="-47" type="curve" smooth="yes"/>
      <point x="548" y="-27"/>
      <point x="544" y="-7"/>
      <point x="538" y="10" type="curve"/>
      <point x="315" y="10" type="line"/>
      <point x="323" y="1"/>
      <point x="327" y="-8"/>
      <point x="327" y="-17" type="curve" smooth="yes"/>
      <point x="327" y="-52"/>
      <point x="301" y="-58"/>
      <point x="274" y="-58" type="curve" smooth="yes"/>
      <point x="271" y="-58"/>
      <point x="257" y="-57"/>
      <point x="254" y="-56" type="curve"/>
    </contour>
    <component base="t.sc"/>
  </outline>
</glyph>
<glyph name="uni0304.case" format="2">
  <anchor x="-486" y="700" name="_top"/>
  <anchor x="-448" y="940" name="top"/>
  <outline>
    <contour>
      <point x="-681" y="746" type="line"/>
      <point x="-277" y="746" type="line"/>
      <point x="-249" y="920" type="line"/>
      <point x="-653" y="920" type="line"/>
    </contour>
  </outline>
</glyph>
<glyph name="uni030C.alt" format="2">
  <anchor x="-52" y="740" name="_topright"/>
  <outline>
    <contour>
      <point x="-100" y="545" type="curve"/>
      <point x="138" y="545" type="line"/>
      <point x="215" y="594"/>
      <point x="261" y="668"/>
      <point x="233" y="740" type="curve"/>
      <point x="-52" y="740" type="line"/>
      <point x="-22" y="690"/>
      <point x="-52" y="594"/>
    </contour>
  </outline>
</glyph>
<glyph name="v.sc" format="2">
  <advance width="909"/>
  <outline>
    <contour>
      <point x="282" y="0" type="line"/>
      <point x="549" y="0" type="line"/>
      <point x="858" y="398"/>
      <point x="925" y="518"/>
      <point x="945" y="603" type="curve" smooth="yes"/>
      <point x="947" y="610"/>
      <point x="948" y="618"/>
      <point x="949" y="625" type="curve"/>
      <point x="616" y="625" type="line"/>
      <point x="616" y="614"/>
      <point x="615" y="602"/>
      <point x="614" y="590" type="curve" smooth="yes"/>
      <point x="608" y="532"/>
      <point x="577" y="450"/>
      <point x="462" y="222" type="curve"/>
      <point x="371" y="625" type="line"/>
      <point x="70" y="625" type="line"/>
    </contour>
  </outline>
</glyph>
<glyph name="w.superior" format="2">
  <advance width="721"/>
  <outline>
    <contour>
      <point x="593" y="683" type="line"/>
      <point x="580" y="583"/>
      <point x="567" y="558"/>
      <point x="544" y="492" type="curve"/>
      <point x="529" y="683" type="line"/>
      <point x="314" y="683" type="line"/>
      <point x="303" y="629"/>
      <point x="293" y="564"/>
      <point x="253" y="487" type="curve"/>
      <point x="237" y="683" type="line"/>
      <point x="78" y="683" type="line"/>
      <point x="140" y="370" type="line"/>
      <point x="339" y="370" type="line"/>
      <point x="367" y="428"/>
      <point x="380" y="452"/>
      <point x="403" y="513" type="curve"/>
      <point x="421" y="370" type="line"/>
      <point x="648" y="370" type="line"/>
      <point x="691" y="436"/>
      <point x="761" y="573"/>
      <point x="772" y="683" type="curve"/>
    </contour>
  </outline>
</glyph>
<glyph name="x.superior" format="2">
  <advance width="538"/>
  <outline>
    <contour>
      <point x="387" y="683" type="line"/>
      <point x="374" y="645"/>
      <point x="353" y="613"/>
      <point x="319" y="573" type="curve"/>
      <point x="292" y="683" type="line"/>
      <point x="85" y="683" type="line"/>
      <point x="154" y="523" type="line"/>
      <point x="85" y="453"/>
      <point x="65" y="429"/>
      <point x="24" y="370" type="curve"/>
      <point x="236" y="370" type="line"/>
      <point x="255" y="410"/>
      <point x="276" y="439"/>
      <point x="301" y="473" type="curve"/>
      <point x="334" y="370" type="line"/>
      <point x="545" y="370" type="line"/>
      <point x="466" y="522" type="line"/>
      <point x="529" y="578"/>
      <point x="561" y="619"/>
      <point x="595" y="683" type="curve"/>
    </contour>
  </outline>
</glyph>
<glyph name="z.superior" format="2">
  <advance width="552"/>
  <outline>
    <contour>
      <point x="531" y="370" type="line"/>
      <point x="548" y="478" type="line"/>
      <point x="377" y="478" type="line"/>
      <point x="554" y="589" type="line"/>
      <point x="569" y="683" type="line"/>
      <point x="120" y="683" type="line"/>
      <point x="103" y="566" type="line"/>
      <point x="238" y="566" type="line"/>
      <point x="67" y="454" type="line"/>
      <point x="52" y="370" type="line"/>
    </contour>
  </outline>
</glyph>
<glyph name="zero.closecirc" format="2">
  <advance width="917"/>
  <outline>
    <contour>
      <point x="212" y="347" type="curve" smooth="yes"/>
      <point x="212" y="487"/>
      <point x="325" y="525"/>
      <point x="469" y="525" type="curve" smooth="yes"/>
      <point x="610" y="525"/>
      <point x="722" y="487"/>
      <point x="722" y="347" type="curve" smooth="yes"/>
      <point x="722" y="210"/>
      <point x="610" y="171"/>
      <point x="469" y="171" type="curve" smooth="yes"/>
      <point x="325" y="171"/>
      <point x="212" y="210"/>
    </contour>
    <contour>
      <point x="405" y="347" type="curve" smooth="yes"/>
      <point x="405" y="288"/>
      <point x="429" y="271"/>
      <point x="469" y="271" type="curve" smooth="yes"/>
      <point x="508" y="271"/>
      <point x="529" y="288"/>
      <point x="529" y="347" type="curve" smooth="yes"/>
      <point x="529" y="409"/>
      <point x="508" y="426"/>
      <point x="469" y="426" type="curve" smooth="yes"/>
      <point x="429" y="426"/>
      <point x="405" y="409"/>
    </contour>
    <contour>
      <point x="470" y="-10" type="curve" smooth="yes"/>
      <point x="726" y="-10"/>
      <point x="873" y="139"/>
      <point x="873" y="348" type="curve" smooth="yes"/>
      <point x="873" y="559"/>
      <point x="723" y="710"/>
      <point x="470" y="710" type="curve" smooth="yes"/>
      <point x="217" y="710"/>
      <point x="67" y="559"/>
      <point x="67" y="348" type="curve" smooth="yes"/>
      <point x="67" y="139"/>
      <point x="214" y="-10"/>
    </contour>
  </outline>
</glyph>
<glyph name="zero.tosf" format="2">
  <advance width="1050"/>
  <outline>
    <contour>
      <point x="523" y="-10" type="curve" smooth="yes"/>
      <point x="801" y="-10"/>
      <point x="972" y="85"/>
      <point x="972" y="285" type="curve" smooth="yes"/>
      <point x="972" y="481"/>
      <point x="809" y="561"/>
      <point x="527" y="561" type="curve" smooth="yes"/>
      <point x="249" y="561"/>
      <point x="78" y="467"/>
      <point x="78" y="267" type="curve" smooth="yes"/>
      <point x="78" y="71"/>
      <point x="241" y="-10"/>
    </contour>
    <contour>
      <point x="534" y="175" type="curve" smooth="yes"/>
      <point x="429" y="175"/>
      <point x="366" y="208"/>
      <point x="366" y="272" type="curve" smooth="yes"/>
      <point x="366" y="337"/>
      <point x="418" y="376"/>
      <point x="516" y="376" type="curve" smooth="yes"/>
      <point x="621" y="376"/>
      <point x="684" y="344"/>
      <point x="684" y="280" type="curve" smooth="yes"/>
      <point x="684" y="215"/>
      <point x="632" y="175"/>
    </contour>
  </outline>
</glyph>
